<?xml version="1.0" encoding="UTF-8"?>
<svg version="1.1" xmlns="http://www.w3.org/2000/svg" width="217" height="210">
<path d="M0 0 C71.61 0 143.22 0 217 0 C217 69.3 217 138.6 217 210 C145.39 210 73.78 210 0 210 C0 140.7 0 71.4 0 0 Z " fill="#FDFDFD" transform="translate(0,0)"/>
<path d="M0 0 C0.53625 0.598125 1.0725 1.19625 1.625 1.8125 C5.18278293 5.08940533 9.38289339 5.83691208 14 7 C14 5.68 14 4.36 14 3 C18.89326308 4.39807517 21.0857479 6.90429435 24 11 C24.69100553 12.99172182 25.35902703 14.99161804 26 17 C27.5633326 19.89177071 27.5633326 19.89177071 30 22 C32.32817964 22.36760731 34.6618385 22.70241581 37 23 C38.9375 25.0625 38.9375 25.0625 40 27 C40.9075 26.7525 41.815 26.505 42.75 26.25 C46 26 46 26 48.375 27.9375 C48.91125 28.618125 49.4475 29.29875 50 30 C49.31164062 30.56267578 49.31164062 30.56267578 48.609375 31.13671875 C45.00338661 34.14423428 41.57888214 37.02422337 39 41 C40.43086447 45.2925934 42.94966693 46.22852761 46.765625 48.4453125 C51.78859897 50.85973719 57.01825859 52.38571483 62.36328125 53.921875 C65.33831306 54.80383932 68.1487081 55.7866843 71 57 C71 56.01 71 55.02 71 54 C70.34 53.34 69.68 52.68 69 52 C69 50.68 69 49.36 69 48 C72 49 72 49 74 51 C74.33 49.68 74.66 48.36 75 47 C76.65 47 78.3 47 80 47 C80.99 44.03 81.98 41.06 83 38 C79.32998017 40.11304172 76.03969817 42.4623211 72.74609375 45.109375 C71 46 71 46 69.11328125 45.86328125 C66.35683095 44.73726366 64.16042261 43.18188478 61.75 41.4375 C60.85796875 40.79683594 59.9659375 40.15617187 59.046875 39.49609375 C58.37140625 39.00238281 57.6959375 38.50867188 57 38 C57.495 37.01 57.495 37.01 58 36 C61.96 37.98 65.92 39.96 70 42 C69.67 40.7625 69.34 39.525 69 38.25 C68.20108841 35.25408155 68 33.19892281 68 30 C68.66 30 69.32 30 70 30 C71.625 32.5 71.625 32.5 73 35 C73.845625 34.79375 74.69125 34.5875 75.5625 34.375 C79.53560946 33.94156988 82.24624618 34.7237237 86 36 C86.46229687 41.77871087 85.71404687 44.54314376 82 49 C79.98037021 50.82804435 77.92793863 52.58244933 75.8046875 54.2890625 C73.92096696 56.07492743 73.00541074 57.62640144 72 60 C72.84498047 60.38671875 72.84498047 60.38671875 73.70703125 60.78125 C89.64399189 69.2520025 100.32716825 85.50284871 106.2109375 102.109375 C108.86049473 111.81567376 109.1372446 120.5759168 108.65820312 130.60546875 C108.30287709 136.68561346 108.30287709 136.68561346 111.40234375 141.60546875 C112.25957031 142.06566406 113.11679688 142.52585938 114 143 C116.56516545 145.84000461 117.80673117 148.13462337 118 152 C116.38494491 155.07741407 115.30476799 155.89406249 111.98828125 157.046875 C102.5486483 158.85254336 93.60021571 159.34061212 84 159 C84 159.99 84 160.98 84 162 C79.38 162 74.76 162 70 162 C69.67 161.34 69.34 160.68 69 160 C63.06 159.67 57.12 159.34 51 159 C51 158.01 51 157.02 51 156 C50.175 156.103125 49.35 156.20625 48.5 156.3125 C44.26403138 155.93428852 42.08180858 154.45609731 38.63671875 152.09375 C37.18951627 150.90739738 37.18951627 150.90739738 36 151 C36.33 151.99 36.66 152.98 37 154 C31.66307593 154.50827848 29.21553078 153.20746907 25 150 C24.21625 149.4225 23.4325 148.845 22.625 148.25 C22.08875 147.8375 21.5525 147.425 21 147 C26.047913 152.49331709 30.56585502 155.11498274 38 156 C38.33 155.34 38.66 154.68 39 154 C40.50539661 154.94983358 42.00420347 155.91011891 43.5 156.875 C44.3353125 157.40867188 45.170625 157.94234375 46.03125 158.4921875 C46.6809375 158.98976562 47.330625 159.48734375 48 160 C48 160.66 48 161.32 48 162 C44.66696997 162.1174875 41.33448163 162.18767324 38 162.25 C37.06542969 162.28351563 36.13085938 162.31703125 35.16796875 162.3515625 C28.89483047 162.4392987 24.15477509 161.74052774 19 158 C16.42578125 155.34375 16.42578125 155.34375 14.3125 152.5 C10.64899558 147.62425737 7.13485298 143.50761421 1.25 141.4375 C0.1775 140.963125 -0.895 140.48875 -2 140 C-2.33 139.01 -2.66 138.02 -3 137 C3.93 137 10.86 137 18 137 C18 119.84 18 102.68 18 85 C6.78 85.33 -4.44 85.66 -16 86 C-16.33 102.83 -16.66 119.66 -17 137 C-14.36 137 -11.72 137 -9 137 C-6 138 -6 138 -4 139 C-4.56332766 143.84758278 -6.06840396 147.80822485 -8.25 152.125 C-8.53746094 152.73214844 -8.82492188 153.33929688 -9.12109375 153.96484375 C-11.13476135 158.00097226 -13.15399465 160.62435651 -17 163 C-21.42498765 163.99191863 -25.96233792 164.06549506 -30.046875 161.9296875 C-33.13997936 159.23426799 -33.94715955 157.2302334 -34.875 153.1875 C-34.5081646 148.30576737 -31.44004603 145.3438539 -28.23828125 141.8828125 C-26 140 -26 140 -21 138 C-21 120.84 -21 103.68 -21 86 C-26.28 86 -31.56 86 -37 86 C-37 85.01 -37 84.02 -37 83 C-29.74 83 -22.48 83 -15 83 C-14.505 81.515 -14.505 81.515 -14 80 C-11.9375 78.3125 -11.9375 78.3125 -10 77 C-11.11375 76.7215625 -11.11375 76.7215625 -12.25 76.4375 C-16.07687804 74.43708648 -17.64027762 71.98892367 -19 68 C-19.54691969 63.16545784 -19.47550905 58.35655338 -19.375 53.5 C-19.35856077 52.11515871 -19.34261509 50.73031148 -19.32714844 49.34545898 C-19.20476118 40.90718937 -18.88372056 32.4785328 -18.25 24.0625 C-18.1886084 23.15371094 -18.1272168 22.24492188 -18.06396484 21.30859375 C-17.40966879 14.13436621 -15.51050345 7.90567468 -9.9375 3.0625 C-6.24025686 0.46656333 -4.54616982 0 0 0 Z " fill="#FCE4D5" transform="translate(87,34)"/>
<path d="M0 0 C12.21 0 24.42 0 37 0 C37.495 1.485 37.495 1.485 38 3 C38.7312207 3.12673096 39.46244141 3.25346191 40.21582031 3.3840332 C44.65748894 4.36669981 48.61803425 6.32016932 52.75 8.1875 C53.6059375 8.56197266 54.461875 8.93644531 55.34375 9.32226562 C63.4045988 12.94354088 72.3486765 17.19777994 77 25 C78.42968097 33.32948908 75.36704108 40.65564599 72.4375 48.3125 C71.57080487 50.59603105 70.71485397 52.88367672 69.87109375 55.17578125 C69.48880615 56.17520752 69.10651855 57.17463379 68.71264648 58.2043457 C67.92950742 61.27653668 68.07183636 62.9954257 69 66 C71.03511431 69.23258737 73.55870784 72.06666446 76 75 C76.62390625 75.84046875 77.2478125 76.6809375 77.890625 77.546875 C81.51752994 82.25743876 81.51752994 82.25743876 86.73046875 84.78515625 C89.19277496 85.03173416 91.53066416 85.12650286 94 85 C93.97679687 84.04738281 93.95359375 83.09476562 93.9296875 82.11328125 C93.91164063 80.85902344 93.89359375 79.60476562 93.875 78.3125 C93.85179687 77.07113281 93.82859375 75.82976562 93.8046875 74.55078125 C93.98967979 71.18762143 94.54232105 69.0014413 96 66 C96.99 66 97.98 66 99 66 C98.7834375 64.90300781 98.566875 63.80601562 98.34375 62.67578125 C98.06225708 61.22140116 97.78102059 59.76697143 97.5 58.3125 C97.35691406 57.59126953 97.21382813 56.87003906 97.06640625 56.12695312 C96.34428113 52.36158641 95.8175024 48.85526187 96 45 C98.2810762 47.2810762 98.52440699 48.41480697 99.25390625 51.5 C99.46853516 52.386875 99.68316406 53.27375 99.90429688 54.1875 C100.23010742 55.5796875 100.23010742 55.5796875 100.5625 57 C100.99930348 58.83381054 101.43801428 60.66716813 101.87890625 62.5 C102.0704126 63.3146875 102.26191895 64.129375 102.45922852 64.96875 C102.93920307 67.0467861 102.93920307 67.0467861 104 69 C106.97 61.74 109.94 54.48 113 47 C114.32 47 115.64 47 117 47 C119.44571065 50.66856598 119.65644381 52.84315332 119.57421875 57.17578125 C117.99159974 64.95968292 111.12980268 71.19846716 105.53515625 76.5 C103.48379325 78.50438522 101.78128547 80.75689978 100 83 C99.01 83.495 99.01 83.495 98 84 C100.64 84.33 103.28 84.66 106 85 C105.41456217 92.10228522 104.34585177 99.00157082 103 106 C98.38 106 93.76 106 89 106 C88.67 105.34 88.34 104.68 88 104 C82.06 103.67 76.12 103.34 70 103 C70 102.01 70 101.02 70 100 C69.175 100.103125 68.35 100.20625 67.5 100.3125 C63.26403138 99.93428852 61.08180858 98.45609731 57.63671875 96.09375 C56.18951627 94.90739738 56.18951627 94.90739738 55 95 C55.33 95.99 55.66 96.98 56 98 C50.66307593 98.50827848 48.21553078 97.20746907 44 94 C43.21625 93.4225 42.4325 92.845 41.625 92.25 C41.08875 91.8375 40.5525 91.425 40 91 C45.047913 96.49331709 49.56585502 99.11498274 57 100 C57.33 99.34 57.66 98.68 58 98 C59.50539661 98.94983358 61.00420347 99.91011891 62.5 100.875 C63.3353125 101.40867187 64.170625 101.94234375 65.03125 102.4921875 C65.6809375 102.98976563 66.330625 103.48734375 67 104 C67 104.66 67 105.32 67 106 C63.66696997 106.1174875 60.33448163 106.18767324 57 106.25 C56.06542969 106.28351563 55.13085938 106.31703125 54.16796875 106.3515625 C47.89483047 106.4392987 43.15477509 105.74052774 38 102 C35.42578125 99.34375 35.42578125 99.34375 33.3125 96.5 C29.64899558 91.62425737 26.13485298 87.50761421 20.25 85.4375 C19.1775 84.963125 18.105 84.48875 17 84 C16.67 83.01 16.34 82.02 16 81 C22.93 81 29.86 81 37 81 C37 63.84 37 46.68 37 29 C25.78 29.33 14.56 29.66 3 30 C2.67 46.83 2.34 63.66 2 81 C4.64 81 7.28 81 10 81 C13 82 13 82 15 83 C14.43667234 87.84758278 12.93159604 91.80822485 10.75 96.125 C10.46253906 96.73214844 10.17507812 97.33929688 9.87890625 97.96484375 C7.86523865 102.00097226 5.84600535 104.62435651 2 107 C-2.42498765 107.99191863 -6.96233792 108.06549506 -11.046875 105.9296875 C-14.13997936 103.23426799 -14.94715955 101.2302334 -15.875 97.1875 C-15.5081646 92.30576737 -12.44004603 89.3438539 -9.23828125 85.8828125 C-7 84 -7 84 -2 82 C-2 64.84 -2 47.68 -2 30 C-7.28 30 -12.56 30 -18 30 C-18 29.01 -18 28.02 -18 27 C-10.74 27 -3.48 27 4 27 C4.33 26.01 4.66 25.02 5 24 C7.0625 22.3125 7.0625 22.3125 9 21 C8.2575 20.814375 7.515 20.62875 6.75 20.4375 C2.67988093 18.30993776 1.73620364 16.24405334 0 12 C0 8.04 0 4.08 0 0 Z " fill="#F9C9B5" transform="translate(68,90)"/>
<path d="M0 0 C12.21 0 24.42 0 37 0 C37.495 1.485 37.495 1.485 38 3 C38.7312207 3.12673096 39.46244141 3.25346191 40.21582031 3.3840332 C44.65748894 4.36669981 48.61803425 6.32016932 52.75 8.1875 C53.6059375 8.56197266 54.461875 8.93644531 55.34375 9.32226562 C63.4045988 12.94354088 72.3486765 17.19777994 77 25 C77.95170833 32.00803409 76.42097631 38.06314398 74.0078125 44.5859375 C73.70181122 45.45014313 73.39580994 46.31434875 73.08053589 47.20474243 C72.10996008 49.93364758 71.11764034 52.65405447 70.125 55.375 C69.466063 57.22216279 68.80849852 59.06981581 68.15234375 60.91796875 C66.94693462 64.29246388 65.73978699 67.6662146 64.51220703 71.03271484 C64.26793976 71.70426605 64.02367249 72.37581726 63.77200317 73.06771851 C63.51724213 73.7053714 63.26248108 74.34302429 63 75 C62.71051483 75.7292569 62.42102966 76.45851379 62.12277222 77.20986938 C61.75225739 77.80061249 61.38174255 78.39135559 61 79 C58.33517159 79.46709352 56.04929034 79.69572473 53.375 79.75 C52.66859375 79.77964844 51.9621875 79.80929688 51.234375 79.83984375 C49.49019953 79.91055357 47.74509173 79.95754035 46 80 C46.27865297 67.53027957 47.49741709 55.51156341 49.71582031 43.22875977 C49.89467773 42.21483154 50.07353516 41.20090332 50.2578125 40.15625 C50.4242627 39.25712891 50.59071289 38.35800781 50.76220703 37.43164062 C51.00817364 34.91641743 50.98336035 33.32747821 50 31 C43.41457755 27.84942019 36.21880031 26.52245767 29.125 24.9375 C27.44470703 24.55368164 27.44470703 24.55368164 25.73046875 24.16210938 C19.82896479 22.82273654 13.93076954 21.56612096 7.97021484 20.51733398 C5.0740929 19.75687768 3.70357356 18.41339588 2 16 C0 12 0 12 0 0 Z " fill="#191E42" transform="translate(68,90)"/>
<path d="M0 0 C0.53625 0.598125 1.0725 1.19625 1.625 1.8125 C5.18278293 5.08940533 9.38289339 5.83691208 14 7 C14 5.68 14 4.36 14 3 C18.89326308 4.39807517 21.0857479 6.90429435 24 11 C24.69100553 12.99172182 25.35902703 14.99161804 26 17 C27.5633326 19.89177071 27.5633326 19.89177071 30 22 C32.32817964 22.36760731 34.6618385 22.70241581 37 23 C38.9375 25.0625 38.9375 25.0625 40 27 C40.9075 26.7525 41.815 26.505 42.75 26.25 C46 26 46 26 48.375 27.9375 C48.91125 28.618125 49.4475 29.29875 50 30 C36.95803892 41.78410697 36.95803892 41.78410697 29.5625 42.1875 C26.30493264 42.01604909 24.6894209 41.72122938 22 40 C20.06903585 43.8619283 20.58210327 48.65166543 20.37890625 52.91015625 C20.19134766 54.43962891 20.19134766 54.43962891 20 56 C16.76535917 57.61732041 13.25291549 56.99875197 9.7109375 56.87890625 C8.89251373 56.85529526 8.07408997 56.83168427 7.23086548 56.80735779 C4.6120694 56.73067056 1.99356529 56.64666817 -0.625 56.5625 C-2.39842312 56.50928437 -4.17186058 56.45654393 -5.9453125 56.40429688 C-10.29706054 56.2750486 -14.64856061 56.13923848 -19 56 C-19.17735836 45.56610404 -19.04392301 35.22367936 -18.25 24.8125 C-18.18828613 23.85786865 -18.12657227 22.9032373 -18.06298828 21.91967773 C-17.43233549 14.46787916 -15.73570106 8.11211333 -9.9375 3.0625 C-6.24025686 0.46656333 -4.54616982 0 0 0 Z " fill="#E75E5E" transform="translate(87,34)"/>
<path d="M0 0 C1.43352211 0.00025101 2.86705028 0.00580931 4.30053711 0.01586914 C5.30159485 0.01737976 5.30159485 0.01737976 6.32287598 0.0189209 C8.82456166 0.02416731 11.32622292 0.03812848 13.82788086 0.05102539 C22.21194336 0.08196289 22.21194336 0.08196289 30.76538086 0.11352539 C30.76538086 17.27352539 30.76538086 34.43352539 30.76538086 52.11352539 C23.83538086 52.11352539 16.90538086 52.11352539 9.76538086 52.11352539 C11.9477148 55.38702631 12.2342671 55.44081809 15.70288086 56.55102539 C23.93465587 59.95313662 29.57319852 68.19061561 34.76538086 75.11352539 C23.21538086 75.11352539 11.66538086 75.11352539 -0.23461914 75.11352539 C3.70288086 66.30102539 3.70288086 66.30102539 4.94091797 63.53613281 C5.26326416 62.81272705 5.58561035 62.08932129 5.91772461 61.34399414 C6.24764404 60.60560303 6.57756348 59.86721191 6.91748047 59.10644531 C7.85757013 56.97099025 7.85757013 56.97099025 8.76538086 54.11352539 C4.47538086 53.45352539 0.18538086 52.79352539 -4.23461914 52.11352539 C-4.25926027 44.8686549 -4.27745094 37.62380857 -4.28955078 30.37890625 C-4.2945927 27.91210506 -4.30142605 25.44530687 -4.31005859 22.97851562 C-4.32213039 19.4414801 -4.3278487 15.90448394 -4.33227539 12.36743164 C-4.33743668 11.25703018 -4.34259796 10.14662872 -4.34791565 9.00257874 C-4.34799118 7.98159592 -4.34806671 6.9606131 -4.34814453 5.90869141 C-4.35036514 5.0049025 -4.35258575 4.10111359 -4.35487366 3.16993713 C-4.15411669 -0.26310638 -3.53322899 0.1240057 0 0 Z " fill="#F5E1D7" transform="translate(74.234619140625,118.886474609375)"/>
<path d="M0 0 C1.0813623 0.24613037 2.16272461 0.49226074 3.27685547 0.74584961 C4.63182129 1.0681958 5.98678711 1.39054199 7.3828125 1.72265625 C11.7140625 2.73328125 16.0453125 3.74390625 20.5078125 4.78515625 C20.1778125 22.60515625 19.8478125 40.42515625 19.5078125 58.78515625 C20.4978125 59.11515625 21.4878125 59.44515625 22.5078125 59.78515625 C22.93707031 60.29691406 23.36632812 60.80867188 23.80859375 61.3359375 C26.34822843 63.50192478 28.42682723 63.07809126 31.6953125 62.97265625 C33.32533203 62.93205078 33.32533203 62.93205078 34.98828125 62.890625 C35.81972656 62.85582031 36.65117188 62.82101563 37.5078125 62.78515625 C37.75273438 63.5121875 37.99765625 64.23921875 38.25 64.98828125 C39.64699286 68.09463805 41.31168658 70.05596082 43.6328125 72.53515625 C47.5078125 76.699747 47.5078125 76.699747 47.5078125 77.78515625 C42.04488658 77.34812218 38.9023736 76.02876087 34.5078125 72.78515625 C34.1778125 72.78515625 33.8478125 72.78515625 33.5078125 72.78515625 C33.8378125 73.77515625 34.1678125 74.76515625 34.5078125 75.78515625 C29.17088843 76.29343473 26.72334328 74.99262532 22.5078125 71.78515625 C21.7240625 71.20765625 20.9403125 70.63015625 20.1328125 70.03515625 C19.5965625 69.62265625 19.0603125 69.21015625 18.5078125 68.78515625 C23.5557255 74.27847334 28.07366752 76.90013899 35.5078125 77.78515625 C35.8378125 77.12515625 36.1678125 76.46515625 36.5078125 75.78515625 C38.01320911 76.73498983 39.51201597 77.69527516 41.0078125 78.66015625 C41.843125 79.19382812 42.6784375 79.7275 43.5390625 80.27734375 C44.18875 80.77492188 44.8384375 81.2725 45.5078125 81.78515625 C45.5078125 82.44515625 45.5078125 83.10515625 45.5078125 83.78515625 C42.17478247 83.90264375 38.84229413 83.97282949 35.5078125 84.03515625 C34.57324219 84.06867188 33.63867188 84.1021875 32.67578125 84.13671875 C26.40264297 84.22445495 21.66258759 83.52568399 16.5078125 79.78515625 C13.93359375 77.12890625 13.93359375 77.12890625 11.8203125 74.28515625 C8.15680808 69.40941362 4.64266548 65.29277046 -1.2421875 63.22265625 C-2.3146875 62.74828125 -3.3871875 62.27390625 -4.4921875 61.78515625 C-4.8221875 60.79515625 -5.1521875 59.80515625 -5.4921875 58.78515625 C1.4378125 58.78515625 8.3678125 58.78515625 15.5078125 58.78515625 C15.5078125 41.62515625 15.5078125 24.46515625 15.5078125 6.78515625 C4.2878125 7.11515625 -6.9321875 7.44515625 -18.4921875 7.78515625 C-18.8221875 24.61515625 -19.1521875 41.44515625 -19.4921875 58.78515625 C-16.8521875 58.78515625 -14.2121875 58.78515625 -11.4921875 58.78515625 C-8.4921875 59.78515625 -8.4921875 59.78515625 -6.4921875 60.78515625 C-7.05551516 65.63273903 -8.56059146 69.5933811 -10.7421875 73.91015625 C-11.02964844 74.51730469 -11.31710938 75.12445313 -11.61328125 75.75 C-13.62694885 79.78612851 -15.64618215 82.40951276 -19.4921875 84.78515625 C-23.91717515 85.77707488 -28.45452542 85.85065131 -32.5390625 83.71484375 C-35.63216686 81.01942424 -36.43934705 79.01538965 -37.3671875 74.97265625 C-37.0003521 70.09092362 -33.93223353 67.12901015 -30.73046875 63.66796875 C-28.4921875 61.78515625 -28.4921875 61.78515625 -23.4921875 59.78515625 C-23.4921875 42.62515625 -23.4921875 25.46515625 -23.4921875 7.78515625 C-28.7721875 7.78515625 -34.0521875 7.78515625 -39.4921875 7.78515625 C-39.4921875 6.79515625 -39.4921875 5.80515625 -39.4921875 4.78515625 C-32.2321875 4.78515625 -24.9721875 4.78515625 -17.4921875 4.78515625 C-17.1621875 3.79515625 -16.8321875 2.80515625 -16.4921875 1.78515625 C-11.29816675 -1.67752425 -5.84555761 -1.36396344 0 0 Z " fill="#7480BE" transform="translate(89.4921875,112.21484375)"/>
<path d="M0 0 C0.20311303 7.15282583 0.34304981 14.3049067 0.43945312 21.45996094 C0.47964492 23.8928608 0.53420973 26.3255679 0.60351562 28.7578125 C0.70075128 32.25829603 0.74597077 35.7562234 0.78125 39.2578125 C0.82254028 40.34240753 0.86383057 41.42700256 0.90637207 42.54446411 C0.91076772 49.9689404 0.91076772 49.9689404 -1.74633789 52.97698975 C-3.76656338 54.49100983 -5.81464351 55.7425485 -8 57 C-11.14188935 59.98479488 -12.23533259 61.87290322 -12.375 66.125 C-12.30203385 70.05825469 -12.30203385 70.05825469 -10 73 C-30.75702716 70.89518818 -30.75702716 70.89518818 -37 69 C-39.35620437 65.46569344 -39.48991613 64.16428713 -39 60 C-35.53161109 52.90556813 -28.21822794 46.14126586 -21 43 C-21.04640625 41.86304688 -21.0928125 40.72609375 -21.140625 39.5546875 C-21.44957108 28.66936894 -21.60503694 16.61627828 -14.75 7.4375 C-10.14113665 3.35237112 -6.30665493 0 0 0 Z " fill="#FEE7D8" transform="translate(66,121)"/>
<path d="M0 0 C8.91 0 17.82 0 27 0 C27 3.3 27 6.6 27 10 C23.7 8.02 20.4 6.04 17 4 C24.04663212 6.99481865 24.04663212 6.99481865 27 11 C28.37870437 18.2502794 27.43182104 25.70222444 27 33 C18.09 33 9.18 33 0 33 C0 22.11 0 11.22 0 0 Z " fill="#F7F8EF" transform="translate(74,133)"/>
<path d="M0 0 C0.99 0 1.98 0 3 0 C3.36351563 0.78503906 3.72703125 1.57007813 4.1015625 2.37890625 C7.6629625 9.82131908 10.92014943 16.12555983 17.75 20.9375 C24.52421669 23.15214777 31.04096089 21.99414844 38 21 C37.67 26.61 37.34 32.22 37 38 C33.76535917 39.61732041 30.25291549 38.99875197 26.7109375 38.87890625 C25.89251373 38.85529526 25.07408997 38.83168427 24.23086548 38.80735779 C21.6120694 38.73067056 18.99356529 38.64666817 16.375 38.5625 C14.60157688 38.50928437 12.82813942 38.45654393 11.0546875 38.40429688 C6.70293946 38.2750486 2.35143939 38.13923848 -2 38 C-2.20771776 25.1656593 -1.59798997 12.74111642 0 0 Z " fill="#C94574" transform="translate(70,52)"/>
<path d="M0 0 C0 0.33 0 0.66 0 1 C1.03125 1.144375 2.0625 1.28875 3.125 1.4375 C8.5050887 2.99631846 10.39462921 7.36898753 13 12 C13.57492188 12.96808594 14.14984375 13.93617187 14.7421875 14.93359375 C17.93659434 20.47596323 17.93659434 20.47596323 19 23 C18.505 24.485 18.505 24.485 18 26 C14.79529932 26.70521394 11.5858619 27.38594148 8.375 28.0625 C7.47136719 28.26166016 6.56773438 28.46082031 5.63671875 28.66601562 C-4.03206814 30.6774056 -4.03206814 30.6774056 -8 29 C-10.15551031 26.48420602 -11.68329234 23.72106376 -13.25 20.8125 C-13.683125 20.05646484 -14.11625 19.30042969 -14.5625 18.52148438 C-20.35086254 8.22212942 -20.35086254 8.22212942 -19.625 3.625 C-19.41875 3.08875 -19.2125 2.5525 -19 2 C-16.33333333 2 -13.66666667 2 -11 2 C-11 1.67 -11 1.34 -11 1 C-7.26562152 0.12132271 -3.83225427 -0.08912219 0 0 Z " fill="#6C76B8" transform="translate(37,35)"/>
<path d="M0 0 C0.33 0 0.66 0 1 0 C1.00386719 1.53720703 1.00386719 1.53720703 1.0078125 3.10546875 C0.80362826 11.40493407 0.80362826 11.40493407 4.3125 18.4375 C8.89757291 21.25388385 14.85074486 20.37494576 20 20 C20.24492188 20.72703125 20.48984375 21.4540625 20.7421875 22.203125 C22.13918036 25.3094818 23.80387408 27.27080457 26.125 29.75 C30 33.91459075 30 33.91459075 30 35 C24.53707408 34.56296593 21.3945611 33.24360462 17 30 C16.67 30 16.34 30 16 30 C16.495 31.485 16.495 31.485 17 33 C11.66307593 33.50827848 9.21553078 32.20746907 5 29 C4.21625 28.4225 3.4325 27.845 2.625 27.25 C2.08875 26.8375 1.5525 26.425 1 26 C6.047913 31.49331709 10.56585502 34.11498274 18 35 C18.495 34.01 18.495 34.01 19 33 C20.50539661 33.94983358 22.00420347 34.91011891 23.5 35.875 C24.3353125 36.40867188 25.170625 36.94234375 26.03125 37.4921875 C26.6809375 37.98976562 27.330625 38.48734375 28 39 C28 39.66 28 40.32 28 41 C24.66696997 41.1174875 21.33448163 41.18767324 18 41.25 C17.06542969 41.28351563 16.13085938 41.31703125 15.16796875 41.3515625 C8.89483047 41.4392987 4.15477509 40.74052774 -1 37 C-3.57421875 34.34375 -3.57421875 34.34375 -5.6875 31.5 C-9.35100442 26.62425737 -12.86514702 22.50761421 -18.75 20.4375 C-19.8225 19.963125 -20.895 19.48875 -22 19 C-22.33 18.01 -22.66 17.02 -23 16 C-16.07 16 -9.14 16 -2 16 C-2.04125 13.73125 -2.0825 11.4625 -2.125 9.125 C-2.1953125 5.2578125 -2.1953125 5.2578125 -2 2 C-1.34 1.34 -0.68 0.68 0 0 Z " fill="#7177B4" transform="translate(107,155)"/>
<path d="M0 0 C3.27191292 1.35815253 5.49895506 2.49895506 8 5 C10.31765729 5.71927295 12.65095874 6.3909893 15 7 C13.38307807 10.96168144 11.75510955 14.91872862 10.125 18.875 C9.66480469 20.00292969 9.20460937 21.13085938 8.73046875 22.29296875 C8.28574219 23.36933594 7.84101563 24.44570312 7.3828125 25.5546875 C6.97434082 26.54968262 6.56586914 27.54467773 6.14501953 28.56982422 C5 31 5 31 3 33 C1.02 25.08 -0.96 17.16 -3 9 C-2.34 15.27 -1.68 21.54 -1 28 C-1.99 28 -2.98 28 -4 28 C-4.9327418 32.099361 -5.28825262 36.12043288 -5.5625 40.3125 C-5.64628906 41.56675781 -5.73007813 42.82101563 -5.81640625 44.11328125 C-5.87699219 45.06589844 -5.93757812 46.01851562 -6 47 C-8.64 45.02 -11.28 43.04 -14 41 C-13.45276317 37.62537285 -12.9451 35.91765 -11 33 C-11.2059902 30.01314217 -12.18931047 28.7590594 -14.0625 26.375 C-16.70448482 21.7728329 -16.77287249 18.1915172 -16 13 C-14.66797612 8.43407859 -12.87640658 4.97115324 -9.6875 1.4375 C-6.15320842 -0.45293503 -3.96474082 -0.48689799 0 0 Z " fill="#B0DEDE" transform="translate(168,128)"/>
<path d="M0 0 C1.5159375 0.00580078 1.5159375 0.00580078 3.0625 0.01171875 C6.05225499 0.31785058 8.28352213 1.0591251 11 2.3125 C10.43667234 7.16008278 8.93159604 11.12072485 6.75 15.4375 C6.31880859 16.34822266 6.31880859 16.34822266 5.87890625 17.27734375 C3.86523865 21.31347226 1.84600535 23.93685651 -2 26.3125 C-6.42498765 27.30441863 -10.96233792 27.37799506 -15.046875 25.2421875 C-18.13997936 22.54676799 -18.94715955 20.5427334 -19.875 16.5 C-19.44789018 10.80520242 -15.0736007 6.91689015 -11 3.3125 C-7.2236863 0.56496997 -4.65212963 -0.0771399 0 0 Z " fill="#D2517E" transform="translate(72,170.6875)"/>
<path d="M0 0 C0.33773437 0.69867188 0.67546875 1.39734375 1.0234375 2.1171875 C1.46945313 3.02726563 1.91546875 3.93734375 2.375 4.875 C2.81585938 5.77992188 3.25671875 6.68484375 3.7109375 7.6171875 C5.57490726 11.06270736 7.53238749 12.38178083 11 14 C10.34 14.66 9.68 15.32 9 16 C6.27603178 20.08595233 6.53088955 22.15252537 7 27 C7.66 27.99 8.32 28.98 9 30 C-11.75702716 27.89518818 -11.75702716 27.89518818 -18 26 C-20.35620437 22.46569344 -20.48991613 21.16428713 -20 17 C-16.7935736 10.44140055 -7.83009051 0 0 0 Z " fill="#FDDCCB" transform="translate(47,164)"/>
<path d="M0 0 C0.53625 0.598125 1.0725 1.19625 1.625 1.8125 C5.18278293 5.08940533 9.38289339 5.83691208 14 7 C14 5.68 14 4.36 14 3 C17.74784551 4.070813 20.65304472 5.73492772 23.12890625 8.8046875 C25.12797258 13.84269324 23.72498096 19.7600386 23 25 C15.42824601 27.523918 15.42824601 27.523918 11 26 C8.82421875 23.8125 8.82421875 23.8125 6.6875 21 C5.91277344 20.01515625 5.13804688 19.0303125 4.33984375 18.015625 C3.56769531 17.02046875 2.79554687 16.0253125 2 15 C0.60476351 13.23286685 -0.81020439 11.48102081 -2.25 9.75 C-2.85328125 9.00234375 -3.4565625 8.2546875 -4.078125 7.484375 C-5.94875125 5.70614755 -5.94875125 5.70614755 -8.671875 6.140625 C-11.1646468 6.75910855 -11.1646468 6.75910855 -12 9 C-12.66 9 -13.32 9 -14 9 C-12.50521886 5.19510255 -10.30557786 3.33809165 -7 1 C-4 0 -4 0 0 0 Z " fill="#C94876" transform="translate(87,34)"/>
<path d="M0 0 C6.625 0.75 6.625 0.75 10 3 C11.13285219 6.57697038 10.97892016 9.38445863 10.29296875 13.03515625 C10.11926758 14.00066406 9.94556641 14.96617187 9.76660156 15.9609375 C9.57549805 16.98445313 9.38439453 18.00796875 9.1875 19.0625 C7.24057885 30.01351257 5.93145548 40.92058219 5 52 C11.435 51.505 11.435 51.505 18 51 C18 52.65 18 54.3 18 56 C16.35 56 14.7 56 13 56 C13 55.34 13 54.68 13 54 C12.01 54 11.02 54 10 54 C9.67 55.32 9.34 56.64 9 58 C4.66481879 57.5183132 2.74667862 56.38149306 0 53 C-0.48101807 50.50689697 -0.48101807 50.50689697 -0.45410156 47.68066406 C-0.45379944 46.61986633 -0.45349731 45.5590686 -0.45318604 44.46612549 C-0.43254089 43.32746033 -0.41189575 42.18879517 -0.390625 41.015625 C-0.38496521 39.84489441 -0.37930542 38.67416382 -0.37347412 37.46795654 C-0.35108125 33.728222 -0.3008768 29.98944503 -0.25 26.25 C-0.22993889 23.71485758 -0.21168744 21.17970015 -0.1953125 18.64453125 C-0.15120678 12.42936071 -0.08426454 6.21474876 0 0 Z " fill="#F7D3C1" transform="translate(109,118)"/>
<path d="M0 0 C2.2810762 2.2810762 2.52440699 3.41480697 3.25390625 6.5 C3.46853516 7.386875 3.68316406 8.27375 3.90429688 9.1875 C4.12150391 10.115625 4.33871094 11.04375 4.5625 12 C4.99930348 13.83381054 5.43801428 15.66716813 5.87890625 17.5 C6.0704126 18.3146875 6.26191895 19.129375 6.45922852 19.96875 C6.93920307 22.0467861 6.93920307 22.0467861 8 24 C10.97 16.74 13.94 9.48 17 2 C18.32 2 19.64 2 21 2 C23.44571065 5.66856598 23.65644381 7.84315332 23.57421875 12.17578125 C21.99119853 19.96165622 15.12684479 26.20080846 9.53125 31.50390625 C7.79351959 33.14089961 7.79351959 33.14089961 5.75 35.8125 C4 38 4 38 1 40 C0.01 40 -0.98 40 -2 40 C-2.05428973 37.77110504 -2.09292338 35.54182529 -2.125 33.3125 C-2.15980469 31.45044922 -2.15980469 31.45044922 -2.1953125 29.55078125 C-2.01032021 26.18762143 -1.45767895 24.0014413 0 21 C0.99 21 1.98 21 3 21 C2.7834375 19.90300781 2.566875 18.80601562 2.34375 17.67578125 C2.06225708 16.22140116 1.78102059 14.76697143 1.5 13.3125 C1.35691406 12.59126953 1.21382812 11.87003906 1.06640625 11.12695312 C0.34428113 7.36158641 -0.1824976 3.85526187 0 0 Z " fill="#4BA8A8" transform="translate(164,135)"/>
<path d="M0 0 C0.61875 0.69802734 0.61875 0.69802734 1.25 1.41015625 C3.17238422 3.15660799 4.55187304 3.64095869 7 4.4375 C15.18267456 7.85812625 20.83021053 16.10694737 26 23 C14.45 23 2.9 23 -9 23 C-5.0625 14.1875 -5.0625 14.1875 -3.82446289 11.42260742 C-3.3409436 10.33749878 -3.3409436 10.33749878 -2.84765625 9.23046875 C-2.51773682 8.49207764 -2.18781738 7.75368652 -1.84790039 6.99291992 C-0.90781073 4.85746486 -0.90781073 4.85746486 0 2 C-0.66 1.67 -1.32 1.34 -2 1 C-1.34 0.67 -0.68 0.34 0 0 Z " fill="#FACBB6" transform="translate(83,171)"/>
<path d="M0 0 C2.5214854 1.16376249 4.60352047 2.43296034 6.875 4.0625 C10.07331319 6.04545418 12.29300838 6.64695318 16 7 C15.01 5.68 14.02 4.36 13 3 C13.33 2.34 13.66 1.68 14 1 C15.36125 2.175625 15.36125 2.175625 16.75 3.375 C21.06195158 6.94142724 24.39769826 8.23604976 30 9 C30 9.99 30 10.98 30 12 C35.94 12 41.88 12 48 12 C48.495 13.485 48.495 13.485 49 15 C53.29 15 57.58 15 62 15 C62 15.33 62 15.66 62 16 C39.25417385 16.98108583 16.54596841 17.12731765 -6.21777344 17.06866455 C-10.72460439 17.05820907 -15.23144153 17.05382069 -19.73828125 17.04882812 C-28.49220368 17.03828351 -37.24609726 17.02134815 -46 17 C-46 16.67 -46 16.34 -46 16 C-43.02148438 15.70703125 -43.02148438 15.70703125 -40.04296875 15.4140625 C-37.70011858 15.07334609 -37.70011858 15.07334609 -35 13 C-32.13315956 12.81582475 -29.36584701 12.74399191 -26.5 12.76953125 C-25.25186523 12.77021858 -25.25186523 12.77021858 -23.97851562 12.7709198 C-22.22003757 12.7739395 -20.46156213 12.78181741 -18.703125 12.79418945 C-16.01032033 12.81243009 -13.31785997 12.81469918 -10.625 12.81445312 C-8.91666369 12.81936916 -7.20832971 12.82519785 -5.5 12.83203125 C-4.69369141 12.83314407 -3.88738281 12.8342569 -3.05664062 12.83540344 C0.21419621 12.86319415 2.87562787 12.95854262 6 14 C7.62567079 14.14715199 9.25586857 14.24721867 10.88671875 14.31640625 C11.82451172 14.35830078 12.76230469 14.40019531 13.72851562 14.44335938 C14.70498047 14.48267578 15.68144531 14.52199219 16.6875 14.5625 C18.16959961 14.62727539 18.16959961 14.62727539 19.68164062 14.69335938 C22.12095546 14.79941654 24.56037113 14.90147714 27 15 C24.18600451 12.08979954 21.54865549 9.97147527 18 8 C17.67 8.33 17.34 8.66 17 9 C10.55233561 9.32449952 6.40795679 7.41917819 1.43359375 3.47265625 C0 2 0 2 0 0 Z " fill="#C7E5F8" transform="translate(108,181)"/>
<path d="M0 0 C2.31 4.62 4.62 9.24 7 14 C3.2565625 14.7425 3.2565625 14.7425 -0.5625 15.5 C-1.33408447 15.65662109 -2.10566895 15.81324219 -2.90063477 15.97460938 C-11.53822253 17.63894386 -11.53822253 17.63894386 -16 17 C-18.21484375 14.4453125 -18.21484375 14.4453125 -19.9375 11.125 C-20.52402344 10.03445312 -21.11054688 8.94390625 -21.71484375 7.8203125 C-23 5 -23 5 -23 3 C-20.10496617 2.49494737 -17.20912047 1.9957978 -14.3125 1.5 C-13.08756836 1.28537109 -13.08756836 1.28537109 -11.83789062 1.06640625 C-10.64389648 0.86337891 -10.64389648 0.86337891 -9.42578125 0.65625 C-8.33390503 0.46772461 -8.33390503 0.46772461 -7.2199707 0.27539062 C-5 0 -5 0 0 0 Z " fill="#CFE5F3" transform="translate(44,40)"/>
<path d="M0 0 C6.6 0 13.2 0 20 0 C19.05471579 6.68000842 18.10913935 13.34516391 17 20 C12.38 20 7.76 20 3 20 C0 6.75 0 6.75 0 0 Z " fill="#CE4E7F" transform="translate(154,176)"/>
<path d="M0 0 C0.66 0 1.32 0 2 0 C3.625 2.5 3.625 2.5 5 5 C5.845625 4.79375 6.69125 4.5875 7.5625 4.375 C11.53560946 3.94156988 14.24624618 4.7237237 18 6 C18.46229687 11.77871087 17.71404687 14.54314376 14 19 C11.98257828 20.86192874 9.92673307 22.64503984 7.8046875 24.38671875 C5.7757779 26.06481085 5.7757779 26.06481085 4 29 C3.34 28.67 2.68 28.34 2 28 C2.66 27.01 3.32 26.02 4 25 C3.505 24.5875 3.01 24.175 2.5 23.75 C1 22 1 22 1 18 C4 19 4 19 6 21 C6.33 19.68 6.66 18.36 7 17 C8.65 17 10.3 17 12 17 C12.99 14.03 13.98 11.06 15 8 C11.32998017 10.11304172 8.03969817 12.4623211 4.74609375 15.109375 C3 16 3 16 1.11328125 15.86328125 C-1.64316905 14.73726366 -3.83957739 13.18188478 -6.25 11.4375 C-7.14203125 10.79683594 -8.0340625 10.15617187 -8.953125 9.49609375 C-9.62859375 9.00238281 -10.3040625 8.50867188 -11 8 C-10.67 7.34 -10.34 6.68 -10 6 C-6.04 7.98 -2.08 9.96 2 12 C1.67 10.7625 1.34 9.525 1 8.25 C0.20108841 5.25408155 0 3.19892281 0 0 Z " fill="#AAB0E9" transform="translate(155,64)"/>
<path d="M0 0 C1.48831242 0.00667405 2.97660807 0.01863442 4.46484375 0.03515625 C5.22345703 0.03966797 5.98207031 0.04417969 6.76367188 0.04882812 C8.64326246 0.06064945 10.52281274 0.07858547 12.40234375 0.09765625 C12.76972656 1.18820313 12.76972656 1.18820313 13.14453125 2.30078125 C14.54152411 5.40713805 16.20621783 7.36846082 18.52734375 9.84765625 C22.40234375 14.012247 22.40234375 14.012247 22.40234375 15.09765625 C16.93941783 14.66062218 13.79690485 13.34126087 9.40234375 10.09765625 C9.07234375 10.09765625 8.74234375 10.09765625 8.40234375 10.09765625 C8.73234375 11.08765625 9.06234375 12.07765625 9.40234375 13.09765625 C4.08596578 13.60397796 1.57716572 12.34474001 -2.59765625 9.09765625 C-3.23703125 8.62328125 -3.87640625 8.14890625 -4.53515625 7.66015625 C-5.59765625 6.09765625 -5.59765625 6.09765625 -5.34765625 3.47265625 C-4.16933235 -0.25870278 -4.19216364 0.1137938 0 0 Z " fill="#20264D" transform="translate(114.59765625,174.90234375)"/>
<path d="M0 0 C-2.30643508 8.13815304 -5.10428784 16.05682118 -8 24 C-5.03 24 -2.06 24 1 24 C1 24.33 1 24.66 1 25 C-8.25726265 25.88948787 -8.25726265 25.88948787 -12.06640625 23.9453125 C-15.12558301 21.2178537 -15.94675455 19.23199802 -16.875 15.1875 C-16.46872297 9.48864105 -11.99092734 5.67806306 -8 2 C-4.77208445 -0.1519437 -3.71599191 -0.20086443 0 0 Z " fill="#CF648D" transform="translate(69,172)"/>
<path d="M0 0 C-0.33 8.58 -0.66 17.16 -1 26 C-6.77074067 23.11462966 -9.35022113 21.63639404 -12 16 C-12.83144052 12.52672427 -12.79415598 9.4683782 -11.04296875 6.23046875 C-8.12561548 2.42401735 -4.87869672 0 0 0 Z " fill="#FCE6D8" transform="translate(69,66)"/>
<path d="M0 0 C1.20076172 0.06960937 1.20076172 0.06960937 2.42578125 0.140625 C3.23402344 0.17671875 4.04226562 0.2128125 4.875 0.25 C5.79732422 0.31960937 5.79732422 0.31960937 6.73828125 0.390625 C4.65899398 5.12739708 1.27412625 8.75813102 -2.03125 12.68359375 C-4.19663369 15.22478708 -4.19663369 15.22478708 -5.6484375 17.44140625 C-6.76171875 19.078125 -6.76171875 19.078125 -9.26171875 21.390625 C-12.32816008 21.86438758 -15.18813972 21.75222253 -18.26171875 21.390625 C-16.81848788 16.75349859 -14.12866765 13.75320567 -10.82421875 10.328125 C-7.0154061 6.38884141 -7.0154061 6.38884141 -3.70703125 2.03515625 C-2.26171875 0.390625 -2.26171875 0.390625 0 0 Z " fill="#232846" transform="translate(157.26171875,38.609375)"/>
<path d="M0 0 C2.25 0.1875 2.25 0.1875 4.25 2.1875 C4.375 4.8125 4.375 4.8125 4.25 7.1875 C1.9375 7.875 1.9375 7.875 -0.75 8.1875 C-2.5625 6.75 -2.5625 6.75 -3.75 5.1875 C-4.08 7.1675 -4.41 9.1475 -4.75 11.1875 C-2.44 11.5175 -0.13 11.8475 2.25 12.1875 C2.58 11.5275 2.91 10.8675 3.25 10.1875 C2.92 12.1675 2.59 14.1475 2.25 16.1875 C-1.03696233 16.98703138 -2.46023192 17.28408936 -5.75 16.1875 C-6.08 14.5375 -6.41 12.8875 -6.75 11.1875 C-8.07 11.1875 -9.39 11.1875 -10.75 11.1875 C-11.08 12.8375 -11.41 14.4875 -11.75 16.1875 C-13.07 16.5175 -14.39 16.8475 -15.75 17.1875 C-14.59737882 7.36441503 -14.59737882 7.36441503 -11.5 3.0625 C-7.64135749 0.43160738 -4.54582022 0.30994229 0 0 Z " fill="#77385A" transform="translate(105.75,12.8125)"/>
<path d="M0 0 C1.00546875 0.22623047 2.0109375 0.45246094 3.046875 0.68554688 C10.48188267 2.41938267 10.48188267 2.41938267 12.75 4.6875 C-0.78 5.0175 -14.31 5.3475 -28.25 5.6875 C-28.25 6.0175 -28.25 6.3475 -28.25 6.6875 C-33.53 6.6875 -38.81 6.6875 -44.25 6.6875 C-44.25 5.6975 -44.25 4.7075 -44.25 3.6875 C-36.99 3.6875 -29.73 3.6875 -22.25 3.6875 C-21.92 2.6975 -21.59 1.7075 -21.25 0.6875 C-14.44064801 -3.85206799 -7.36597776 -1.76956106 0 0 Z " fill="#B6C6DE" transform="translate(94.25,113.3125)"/>
<path d="M0 0 C2 1 4 2 6 3 C6 5.97 6 8.94 6 12 C-2.91 12 -11.82 12 -21 12 C-21 9.69 -21 7.38 -21 5 C-20.67 5.99 -20.34 6.98 -20 8 C-16.37 8 -12.74 8 -9 8 C-9 6.02 -9 4.04 -9 2 C-4.545 3.98 -4.545 3.98 0 6 C0 4.02 0 2.04 0 0 Z " fill="#FBFCFC" transform="translate(95,154)"/>
<path d="M0 0 C0.99 0.33 1.98 0.66 3 1 C2.67 18.16 2.34 35.32 2 53 C1.67 53 1.34 53 1 53 C0.67 48.38 0.34 43.76 0 39 C-0.99 39.495 -0.99 39.495 -2 40 C-2 27.13 -2 14.26 -2 1 C-1.34 0.67 -0.68 0.34 0 0 Z " fill="#868AC1" transform="translate(107,117)"/>
<path d="M0 0 C1.32 0.66 2.64 1.32 4 2 C3.52949219 2.51949219 3.05898437 3.03898437 2.57421875 3.57421875 C-0.67440177 7.21294277 -3.69660472 10.66419713 -6 15 C-5.01 15.33 -4.02 15.66 -3 16 C-5.8125 17.125 -5.8125 17.125 -9 18 C-9.99 17.34 -10.98 16.68 -12 16 C-15.63939932 16.31730524 -15.63939932 16.31730524 -19 17 C-19.268125 16.38125 -19.53625 15.7625 -19.8125 15.125 C-20.95556848 12.7004767 -20.95556848 12.7004767 -24 11 C-22.2984375 10.5978125 -22.2984375 10.5978125 -20.5625 10.1875 C-16.61378568 9.21086069 -12.80906194 7.95474427 -8.98046875 6.5859375 C-7 6 -7 6 -4 6 C-3.566875 5.071875 -3.566875 5.071875 -3.125 4.125 C-2 2 -2 2 0 0 Z " fill="#F6D0C6" transform="translate(145,45)"/>
<path d="M0 0 C0 0.33 0 0.66 0 1 C1.03125 1.144375 2.0625 1.28875 3.125 1.4375 C7.67515027 2.7111729 9.34246306 5.74715273 11.73828125 9.61328125 C13.01291249 12.0244258 14.03849153 14.44951979 15 17 C14.01 17.495 14.01 17.495 13 18 C11.99491199 16.21118264 10.99607264 14.41885304 10 12.625 C9.443125 11.62726562 8.88625 10.62953125 8.3125 9.6015625 C7 7 7 7 7 5 C6.44538086 5.09087891 5.89076172 5.18175781 5.31933594 5.27539062 C2.79674339 5.6868549 0.27339283 6.09347372 -2.25 6.5 C-3.12269531 6.64308594 -3.99539062 6.78617188 -4.89453125 6.93359375 C-6.16103516 7.13662109 -6.16103516 7.13662109 -7.453125 7.34375 C-8.61569824 7.53227539 -8.61569824 7.53227539 -9.80175781 7.72460938 C-12 8 -12 8 -16 8 C-15.34 9.65 -14.68 11.3 -14 13 C-14.99 13.33 -15.98 13.66 -17 14 C-19.05257931 10.55166676 -20.0632763 8.68338409 -19.6875 4.625 C-19.460625 3.75875 -19.23375 2.8925 -19 2 C-16.33333333 2 -13.66666667 2 -11 2 C-11 1.67 -11 1.34 -11 1 C-7.26562152 0.12132271 -3.83225427 -0.08912219 0 0 Z " fill="#6F79B8" transform="translate(37,35)"/>
<path d="M0 0 C1.20946289 0.0185202 1.20946289 0.0185202 2.44335938 0.03741455 C3.27544922 0.03928772 4.10753906 0.04116089 4.96484375 0.04309082 C6.72334808 0.04981054 8.48183747 0.06372351 10.24023438 0.08428955 C12.93308393 0.11542076 15.62534776 0.12525882 18.31835938 0.13116455 C20.02669985 0.14033583 21.73503437 0.150712 23.44335938 0.16241455 C24.24966797 0.16666443 25.05597656 0.17091431 25.88671875 0.17529297 C29.15271542 0.21708161 31.82409569 0.32578499 34.94335938 1.36553955 C36.35000864 1.51046078 37.76147267 1.61182886 39.17382812 1.6819458 C40.37749023 1.7447876 40.37749023 1.7447876 41.60546875 1.80889893 C42.43884766 1.84821533 43.27222656 1.88753174 44.13085938 1.92803955 C44.97583984 1.97122314 45.82082031 2.01440674 46.69140625 2.05889893 C48.77520371 2.16485473 50.85926041 2.26568975 52.94335938 2.36553955 C52.94335938 2.69553955 52.94335938 3.02553955 52.94335938 3.36553955 C32.48335937 3.36553955 12.02335937 3.36553955 -9.05664062 3.36553955 C-5.6820223 -0.00907878 -4.57135289 0.0182707 0 0 Z " fill="#B2DAF6" transform="translate(79.056640625,193.63446044921875)"/>
<path d="M0 0 C8.91 0 17.82 0 27 0 C27 3.3 27 6.6 27 10 C26.24074219 9.50628906 25.48148438 9.01257813 24.69921875 8.50390625 C23.70535156 7.86324219 22.71148437 7.22257813 21.6875 6.5625 C20.70136719 5.92441406 19.71523437 5.28632813 18.69921875 4.62890625 C16.04723007 2.89384394 16.04723007 2.89384394 13 2 C10.00484043 3.43433163 10.00484043 3.43433163 6.875 5.4375 C1.06066536 9 1.06066536 9 0 9 C0 6.03 0 3.06 0 0 Z " fill="#FCFDFA" transform="translate(74,133)"/>
<path d="M0 0 C-0.33 5.61 -0.66 11.22 -1 17 C-3 18 -3 18 -8 17 C-8 12.71 -8 8.42 -8 4 C-9.60875 3.87625 -11.2175 3.7525 -12.875 3.625 C-17.75 3.25 -17.75 3.25 -20 1 C-19.10796875 1.01160156 -18.2159375 1.02320312 -17.296875 1.03515625 C-15.54117188 1.04869141 -15.54117188 1.04869141 -13.75 1.0625 C-12.00976562 1.07990234 -12.00976562 1.07990234 -10.234375 1.09765625 C-6.68543243 0.99050219 -3.53067445 0 0 0 Z " fill="#AF4472" transform="translate(108,73)"/>
<path d="M0 0 C2.5214854 1.16376249 4.60352047 2.43296034 6.875 4.0625 C10.07331319 6.04545418 12.29300838 6.64695318 16 7 C15.01 5.68 14.02 4.36 13 3 C13.33 2.34 13.66 1.68 14 1 C14.9075 1.78375 15.815 2.5675 16.75 3.375 C21.06195158 6.94142724 24.39769826 8.23604976 30 9 C30 9.99 30 10.98 30 12 C35.94 12 41.88 12 48 12 C48 12.33 48 12.66 48 13 C44.50045016 13.14671745 41.00170297 13.23453588 37.5 13.3125 C36.51773438 13.35439453 35.53546875 13.39628906 34.5234375 13.43945312 C27.62500987 13.55442692 23.40010905 12.34497164 18 8 C17.67 8.33 17.34 8.66 17 9 C10.55233561 9.32449952 6.40795679 7.41917819 1.43359375 3.47265625 C0 2 0 2 0 0 Z " fill="#EFDED5" transform="translate(108,181)"/>
<path d="M0 0 C0.99 0.33 1.98 0.66 3 1 C3 3.31 3 5.62 3 8 C3.99 8 4.98 8 6 8 C5.39301257 12.12751449 3.96189209 15.3321148 2 19 C1.01 19 0.02 19 -1 19 C-0.34 17.02 0.32 15.04 1 13 C-1.64 13 -4.28 13 -7 13 C-7.33 12.01 -7.66 11.02 -8 10 C-5.36 10 -2.72 10 0 10 C0 6.7 0 3.4 0 0 Z " fill="#9CA4DF" transform="translate(31,141)"/>
<path d="M0 0 C0.60328125 0.08378906 1.2065625 0.16757812 1.828125 0.25390625 C3.02695312 0.40666016 3.02695312 0.40666016 4.25 0.5625 C5.03890625 0.66691406 5.8278125 0.77132812 6.640625 0.87890625 C9.00532874 1.00027349 10.7511037 0.69633257 13 0 C13.33 1.32 13.66 2.64 14 4 C14.66 4 15.32 4 16 4 C16 4.66 16 5.32 16 6 C13.11504794 6.96165069 11.01406646 7.22728086 8 7.3125 C7.13375 7.34988281 6.2675 7.38726562 5.375 7.42578125 C3 7 3 7 1.1875 5.16796875 C0 3 0 3 0 0 Z " fill="#F0C98F" transform="translate(28,46)"/>
<path d="M0 0 C6.93 0.495 6.93 0.495 14 1 C14 1.66 14 2.32 14 3 C8.61804014 3.90482048 3.4553068 4.13304442 -1.99609375 4.09765625 C-2.82963882 4.0962413 -3.6631839 4.09482635 -4.52198792 4.09336853 C-7.16052986 4.08781168 -9.79898409 4.0752674 -12.4375 4.0625 C-14.23632689 4.05747942 -16.03515513 4.05291749 -17.83398438 4.04882812 C-22.22268958 4.03785643 -26.61132996 4.02062196 -31 4 C-31 3.67 -31 3.34 -31 3 C-16.15 2.505 -16.15 2.505 -1 2 C-0.67 1.34 -0.34 0.68 0 0 Z " fill="#EEF6FC" transform="translate(171,194)"/>
<path d="M0 0 C-0.55728913 3.34373475 -1.35173889 6.03312999 -3 9 C-4.65 9 -6.3 9 -8 9 C-8.33 10.65 -8.66 12.3 -9 14 C-10.65 12.35 -12.3 10.7 -14 9 C-12.948125 8.1646875 -12.948125 8.1646875 -11.875 7.3125 C-10.37575052 6.10658194 -8.88012397 4.8942094 -7.4375 3.62109375 C-3.31089744 0 -3.31089744 0 0 0 Z " fill="#F2F5FA" transform="translate(170,72)"/>
<path d="M0 0 C2.71567296 2.71567296 3.24031242 5.76406108 4.1875 9.375 C4.47270508 10.38433594 4.47270508 10.38433594 4.76367188 11.4140625 C5.69874176 14.91971194 6.37236206 17.56909485 5 21 C4.731875 21.721875 4.46375 22.44375 4.1875 23.1875 C3 25 3 25 0.875 25.75 C-0.053125 25.87375 -0.053125 25.87375 -1 26 C-0.67 24.35 -0.34 22.7 0 21 C0.99 21 1.98 21 3 21 C2.7834375 19.90300781 2.566875 18.80601562 2.34375 17.67578125 C2.06225708 16.22140116 1.78102059 14.76697143 1.5 13.3125 C1.35691406 12.59126953 1.21382812 11.87003906 1.06640625 11.12695312 C0.34428113 7.36158641 -0.1824976 3.85526187 0 0 Z " fill="#62BAB9" transform="translate(164,135)"/>
<path d="M0 0 C0.33 0 0.66 0 1 0 C1.268125 1.11375 1.53625 2.2275 1.8125 3.375 C2.65809019 7.21840951 2.65809019 7.21840951 6 9 C6 9.66 6 10.32 6 11 C4.58297487 10.85769192 3.1663904 10.71099254 1.75 10.5625 C0.56664063 10.44068359 0.56664063 10.44068359 -0.640625 10.31640625 C-2.82364639 10.02365007 -4.8773182 9.57935581 -7 9 C-7.33 9.66 -7.66 10.32 -8 11 C-8 10.34 -8 9.68 -8 9 C-8.66 8.67 -9.32 8.34 -10 8 C-9.36191406 7.67386719 -8.72382812 7.34773438 -8.06640625 7.01171875 C-7.24011719 6.57472656 -6.41382812 6.13773438 -5.5625 5.6875 C-4.73878906 5.25824219 -3.91507812 4.82898438 -3.06640625 4.38671875 C-0.69352356 3.09979113 -0.69352356 3.09979113 0 0 Z " fill="#F8D5CF" transform="translate(95,25)"/>
<path d="M0 0 C0 1.65 0 3.3 0 5 C-1.65 5 -3.3 5 -5 5 C-5 4.34 -5 3.68 -5 3 C-5.99 3 -6.98 3 -8 3 C-8.33 4.32 -8.66 5.64 -9 7 C-10.65 6.67 -12.3 6.34 -14 6 C-14 4.35 -14 2.7 -14 1 C-9.27616037 0.34843591 -4.78025483 -0.11950637 0 0 Z " fill="#E3CFCA" transform="translate(127,169)"/>
<path d="M0 0 C2 0 2 0 3.6875 1.625 C5.43013159 4.77833336 4.8539524 6.58419039 4 10 C2.02 10.33 0.04 10.66 -2 11 C-2.33 8.36 -2.66 5.72 -3 3 C-2.01 2.67 -1.02 2.34 0 2 C0 1.34 0 0.68 0 0 Z " fill="#BEE2E3" transform="translate(159,151)"/>
<path d="M0 0 C4.66666667 0.66666667 9.33333333 1.33333333 14 2 C13.67 3.65 13.34 5.3 13 7 C3.98253275 6.23580786 3.98253275 6.23580786 0 3 C0 2.01 0 1.02 0 0 Z " fill="#FAF3F4" transform="translate(88,34)"/>
<path d="M0 0 C1.00289062 0.28746094 2.00578125 0.57492188 3.0390625 0.87109375 C3.80992188 1.09925781 4.58078125 1.32742187 5.375 1.5625 C5.705 0.9025 6.035 0.2425 6.375 -0.4375 C6.045 1.5425 5.715 3.5225 5.375 5.5625 C2.08803767 6.36203138 0.66476808 6.65908936 -2.625 5.5625 C-2.955 3.9125 -3.285 2.2625 -3.625 0.5625 C-4.945 0.2325 -6.265 -0.0975 -7.625 -0.4375 C-4.72405209 -1.88797396 -3.06527404 -0.89106803 0 0 Z " fill="#C79AA5" transform="translate(102.625,23.4375)"/>
<path d="M0 0 C0 0.33 0 0.66 0 1 C-7.59 1 -15.18 1 -23 1 C-23 0.34 -23 -0.32 -23 -1 C-15.06458207 -4.07699879 -7.96595867 -1.92925561 0 0 Z " fill="#99B2CC" transform="translate(98,114)"/>
<path d="M0 0 C6.15234375 -0.09765625 6.15234375 -0.09765625 8 0 C8.33 0.33 8.66 0.66 9 1 C8.91062197 2.52519276 8.75462854 4.04681929 8.5625 5.5625 C8.46066406 6.38878906 8.35882813 7.21507812 8.25390625 8.06640625 C8.17011719 8.70449219 8.08632813 9.34257812 8 10 C7.01 10.33 6.02 10.66 5 11 C5.33 8.36 5.66 5.72 6 3 C4.02 3 2.04 3 0 3 C0 2.01 0 1.02 0 0 Z " fill="#8F95D0" transform="translate(34,133)"/>
<path d="M0 0 C4.53786224 2.26893112 5.94678157 4.09866534 9 8 C5.7 8.66 2.4 9.32 -1 10 C-0.67 6.7 -0.34 3.4 0 0 Z " fill="#E7686B" transform="translate(110,50)"/>
<path d="M0 0 C2.5214854 1.16376249 4.60352047 2.43296034 6.875 4.0625 C10.07331319 6.04545418 12.29300838 6.64695318 16 7 C15.01 5.68 14.02 4.36 13 3 C13.33 2.34 13.66 1.68 14 1 C16.0625 3.3125 16.0625 3.3125 18 6 C17.67 6.99 17.34 7.98 17 9 C10.46843612 8.96976128 6.54946948 7.53145045 1.43359375 3.47265625 C0 2 0 2 0 0 Z " fill="#CDD2DB" transform="translate(108,181)"/>
<path d="M0 0 C1.66611905 -0.042721 3.33382885 -0.04063832 5 0 C6 1 6 1 6.0625 3.5625 C6.041875 4.366875 6.02125 5.17125 6 6 C3.6875 6.6875 3.6875 6.6875 1 7 C-0.8125 5.5625 -0.8125 5.5625 -2 4 C-1.34 2.68 -0.68 1.36 0 0 Z " fill="#783A64" transform="translate(104,14)"/>
<path d="M0 0 C0.556875 0.495 1.11375 0.99 1.6875 1.5 C4.38162983 3.24754367 5.85375007 3.26218749 9 3 C8.34 4.65 7.68 6.3 7 8 C4.69 7.67 2.38 7.34 0 7 C0 4.69 0 2.38 0 0 Z " fill="#F3F1F4" transform="translate(101,17)"/>
<path d="M0 0 C6.93 0.495 6.93 0.495 14 1 C14 1.66 14 2.32 14 3 C9.05 3 4.1 3 -1 3 C-0.67 2.01 -0.34 1.02 0 0 Z " fill="#E8F6FC" transform="translate(171,194)"/>
<path d="M0 0 C2.475 0.99 2.475 0.99 5 2 C4.01 2.495 4.01 2.495 3 3 C2.34444881 5.52733235 2.34444881 5.52733235 2 8 C-1.3 8 -4.6 8 -8 8 C-8 7.01 -8 6.02 -8 5 C-5.36 5.66 -2.72 6.32 0 7 C0 4.69 0 2.38 0 0 Z " fill="#BBB394" transform="translate(84,154)"/>
<path d="M0 0 C-0.61875 0.28875 -1.2375 0.5775 -1.875 0.875 C-4.13325765 1.93720042 -4.13325765 1.93720042 -6 4 C-6.39764263 5.98821313 -6.73775349 7.98944339 -7 10 C-7.33 10 -7.66 10 -8 10 C-8 7.36 -8 4.72 -8 2 C-8.94875 2.763125 -9.8975 3.52625 -10.875 4.3125 C-11.40867187 4.74175781 -11.94234375 5.17101562 -12.4921875 5.61328125 C-14.25292107 7.12270545 -14.25292107 7.12270545 -16 10 C-15.66142425 6.95281822 -15.16892978 5.2252397 -13.3125 2.75 C-9.28976466 -0.29423215 -4.89222255 -0.1438889 0 0 Z " fill="#8E5C79" transform="translate(108,13)"/>
<path d="M0 0 C1.91635217 -0.05423638 3.83314925 -0.09289963 5.75 -0.125 C7.35101563 -0.15980469 7.35101563 -0.15980469 8.984375 -0.1953125 C11.92470106 -0.00487687 13.52361878 0.47329896 16 2 C16 2.66 16 3.32 16 4 C11.92956503 4.18501977 9.55947131 3.89096914 6 2 C4.00889599 1.61709538 2.00899487 1.27395385 0 1 C0 0.67 0 0.34 0 0 Z " fill="#A14B7C" transform="translate(66,171)"/>
<path d="M0 0 C3.29456702 1.09818901 4.45501927 1.91003854 6 5 C6.66 5.33 7.32 5.66 8 6 C6.35 7.65 4.7 9.3 3 11 C2.34 10.67 1.68 10.34 1 10 C1.66 9.01 2.32 8.02 3 7 C2.505 6.5875 2.01 6.175 1.5 5.75 C0 4 0 4 0 0 Z " fill="#BCBEED" transform="translate(156,82)"/>
<path d="M0 0 C2.97 0.495 2.97 0.495 6 1 C5.67 2.65 5.34 4.3 5 6 C3.35 5.67 1.7 5.34 0 5 C0 3.35 0 1.7 0 0 Z " fill="#EDE8EB" transform="translate(113,170)"/>
<path d="M0 0 C1.98 0.99 3.96 1.98 6 3 C6 3.99 6 4.98 6 6 C4.68 5.01 3.36 4.02 2 3 C2 4.98 2 6.96 2 9 C1.01 8.67 0.02 8.34 -1 8 C-0.67 5.36 -0.34 2.72 0 0 Z " fill="#8EB5E1" transform="translate(93,151)"/>
<path d="M0 0 C4.08378283 0.74250597 8.01939223 1.82923301 12 3 C12 3.66 12 4.32 12 5 C6.72209903 5.50265724 4.13774748 4.25108731 0 1 C0 0.67 0 0.34 0 0 Z " fill="#E7E9EF" transform="translate(125,187)"/>
<path d="M0 0 C-0.66 1.32 -1.32 2.64 -2 4 C-0.68 4.33 0.64 4.66 2 5 C-2.75 8 -2.75 8 -5 8 C-5.36625971 3.48279689 -5.36625971 3.48279689 -3.625 1.1875 C-2 0 -2 0 0 0 Z " fill="#31355A" transform="translate(124,123)"/>
<path d="M0 0 C-1.125 1.5 -1.125 1.5 -3 3 C-6.1875 3.1875 -6.1875 3.1875 -9 3 C-9 2.34 -9 1.68 -9 1 C-9.66 0.67 -10.32 0.34 -11 0 C-9.54263913 -0.19491452 -8.08405407 -0.38069358 -6.625 -0.5625 C-5.81289063 -0.66691406 -5.00078125 -0.77132812 -4.1640625 -0.87890625 C-2 -1 -2 -1 0 0 Z " fill="#DEEAE7" transform="translate(43,53)"/>
<path d="M0 0 C3.3502463 3.81234923 5.16974789 7.33285711 7 12 C6.01 12.495 6.01 12.495 5 13 C3.02 9.04 1.04 5.08 -1 1 C-0.67 0.67 -0.34 0.34 0 0 Z " fill="#848DCC" transform="translate(45,40)"/>
<path d="M0 0 C1.32 0.66 2.64 1.32 4 2 C3.01 3.32 2.02 4.64 1 6 C-0.65 5.67 -2.3 5.34 -4 5 C-2.68 3.35 -1.36 1.7 0 0 Z " fill="#EFDCE1" transform="translate(145,45)"/>
<path d="M0 0 C0.33 0.66 0.66 1.32 1 2 C0.0625 4.125 0.0625 4.125 -1 6 C-1.66 5.67 -2.32 5.34 -3 5 C-2.67 6.65 -2.34 8.3 -2 10 C-2.99 10.495 -2.99 10.495 -4 11 C-4.33 8.36 -4.66 5.72 -5 3 C-4.01 3 -3.02 3 -2 3 C-1.34 2.01 -0.68 1.02 0 0 Z " fill="#F3CDE3" transform="translate(150,34)"/>
<path d="M0 0 C-1.125 1.5 -1.125 1.5 -3 3 C-6.1875 3.1875 -6.1875 3.1875 -9 3 C-9.33 2.34 -9.66 1.68 -10 1 C-6.52674819 -0.1577506 -3.63932552 -0.06866652 0 0 Z " fill="#ECDFC9" transform="translate(40,45)"/>
<path d="M0 0 C3.3 1.65 6.6 3.3 10 5 C9.67 5.99 9.34 6.98 9 8 C7.49460339 7.05016642 5.99579653 6.08988109 4.5 5.125 C3.6646875 4.59132813 2.829375 4.05765625 1.96875 3.5078125 C1.3190625 3.01023437 0.669375 2.51265625 0 2 C0 1.34 0 0.68 0 0 Z " fill="#B9BEEE" transform="translate(144,70)"/>
<path d="M0 0 C0.66 0.66 1.32 1.32 2 2 C2.66 1.67 3.32 1.34 4 1 C3.67 2.65 3.34 4.3 3 6 C1.68 6.33 0.36 6.66 -1 7 C-0.67 4.69 -0.34 2.38 0 0 Z " fill="#9A586F" transform="translate(91,23)"/>
<path d="M0 0 C1.98 0.66 3.96 1.32 6 2 C6 2.99 6 3.98 6 5 C4.125 4.75 4.125 4.75 2 4 C0.75 1.9375 0.75 1.9375 0 0 Z " fill="#91CCCB" transform="translate(161,151)"/>
<path d="M0 0 C1.98 0 3.96 0 6 0 C5.67 0.99 5.34 1.98 5 3 C3.02 3 1.04 3 -1 3 C-0.67 2.01 -0.34 1.02 0 0 Z " fill="#D5EBFA" transform="translate(171,194)"/>
<path d="M0 0 C0.33 0.66 0.66 1.32 1 2 C3.02463255 2.65213292 3.02463255 2.65213292 5 3 C3.02253397 3.73080266 1.01927511 4.39421747 -1 5 C-1.66 4.67 -2.32 4.34 -3 4 C-3 3.34 -3 2.68 -3 2 C-2.01 2 -1.02 2 0 2 C0 1.34 0 0.68 0 0 Z " fill="#F3E1DB" transform="translate(137,58)"/>
<path d="M0 0 C-0.99 1.485 -0.99 1.485 -2 3 C-4.97 2.67 -7.94 2.34 -11 2 C-11 1.67 -11 1.34 -11 1 C-7.26562152 0.12132271 -3.83225427 -0.08912219 0 0 Z " fill="#8894C4" transform="translate(37,35)"/>
</svg>
