<?xml version="1.0" encoding="UTF-8"?>
<svg version="1.1" xmlns="http://www.w3.org/2000/svg" width="48" height="48">
<path d="M0 0 C2.6875 1.625 2.6875 1.625 4.6875 3.625 C4.875 6.6875 4.875 6.6875 4.6875 9.625 C2.32794489 11.98455511 -3.58002826 10.81042405 -6.75 10.8125 C-7.73033203 10.82474609 -8.71066406 10.83699219 -9.72070312 10.84960938 C-10.65720703 10.85154297 -11.59371094 10.85347656 -12.55859375 10.85546875 C-13.42154053 10.85957764 -14.2844873 10.86368652 -15.17358398 10.86791992 C-17.3125 10.625 -17.3125 10.625 -19.3125 8.625 C-19.25 6.25 -19.25 6.25 -18.3125 3.625 C-12.81610437 -1.58211165 -7.13616321 -2.96218095 0 0 Z " fill="#000000" transform="translate(31.3125,29.375)"/>
<path d="M0 0 C1.875 1 1.875 1 3 3 C3.36095911 5.80173027 3.22716238 8.13775402 3 11 C1 13 1 13 -0.875 13.265625 C-1.57625 13.26046875 -2.2775 13.2553125 -3 13.25 C-3.70125 13.25515625 -4.4025 13.2603125 -5.125 13.265625 C-7 13 -7 13 -9 11 C-9.55641422 3.98918083 -9.55641422 3.98918083 -7.875 1 C-5.10184376 -0.47901666 -3.08815875 -0.38601984 0 0 Z " fill="#000000" transform="translate(27,14)"/>
<path d="M0 0 C0.99 0.66 1.98 1.32 3 2 C3 4 3 4 0.5625 6.625 C-2.89525292 9.4375263 -5.8093953 9.46223739 -10.14453125 9.2734375 C-12 9 -12 9 -13 8 C-13.3125 5.625 -13.3125 5.625 -13 3 C-9.80641752 -1.02669096 -4.72591962 -0.67015803 0 0 Z " fill="#000000" transform="translate(15,24)"/>
<path d="M0 0 C2.16796875 0.3515625 2.16796875 0.3515625 4.79296875 2.0390625 C6.16796875 4.3515625 6.16796875 4.3515625 5.91796875 7.1015625 C5.67046875 7.8440625 5.42296875 8.5865625 5.16796875 9.3515625 C-1.70095303 10.0746069 -1.70095303 10.0746069 -4.921875 8.015625 C-6.63701004 6.52145828 -8.26363198 4.99838173 -9.83203125 3.3515625 C-6.8439551 -0.24749408 -4.47368934 -0.16055655 0 0 Z " fill="#000000" transform="translate(39.83203125,23.6484375)"/>
<path d="M0 0 C2.375 0.6875 2.375 0.6875 3.375 1.6875 C3.5625 5.125 3.5625 5.125 3.375 8.6875 C1.375 10.6875 1.375 10.6875 -1.125 10.9375 C-3.625 10.6875 -3.625 10.6875 -5.625 8.6875 C-5.9375 5.1875 -5.9375 5.1875 -5.625 1.6875 C-2.625 -0.3125 -2.625 -0.3125 0 0 Z " fill="#000000" transform="translate(38.625,12.3125)"/>
<path d="M0 0 C2.375 0.6875 2.375 0.6875 3.375 1.6875 C3.5625 5.125 3.5625 5.125 3.375 8.6875 C1.375 10.6875 1.375 10.6875 -1.125 10.9375 C-3.625 10.6875 -3.625 10.6875 -5.625 8.6875 C-5.9375 5.1875 -5.9375 5.1875 -5.625 1.6875 C-2.625 -0.3125 -2.625 -0.3125 0 0 Z " fill="#000000" transform="translate(11.625,12.3125)"/>
</svg>
