<?xml version="1.0" encoding="UTF-8"?>
<svg version="1.1" xmlns="http://www.w3.org/2000/svg" width="64" height="64">
<path d="M0 0 C2.5625 0.0625 2.5625 0.0625 5 1 C5.44859375 1.52078125 5.8971875 2.0415625 6.359375 2.578125 C7.92336873 4.23514358 7.92336873 4.23514358 10.26171875 4.07421875 C11.06222656 3.94660156 11.86273438 3.81898437 12.6875 3.6875 C13.89986328 3.50767578 13.89986328 3.50767578 15.13671875 3.32421875 C15.75160156 3.21722656 16.36648437 3.11023438 17 3 C17.20302734 3.83144531 17.20302734 3.83144531 17.41015625 4.6796875 C18.09399921 6.98100333 18.77508175 8.93031054 20 11 C23.54863159 12.61135346 23.54863159 12.61135346 27 13 C26.88140625 13.60328125 26.7628125 14.2065625 26.640625 14.828125 C26.24750769 17.26545233 25.94853308 19.52958808 26 22 C27.91666921 24.25065102 27.91666921 24.25065102 30 26 C29.9375 28.5625 29.9375 28.5625 29 31 C28.47921875 31.44859375 27.9584375 31.8971875 27.421875 32.359375 C25.76485642 33.92336873 25.76485642 33.92336873 25.92578125 36.26171875 C26.05339844 37.06222656 26.18101563 37.86273438 26.3125 38.6875 C26.43238281 39.49574219 26.55226562 40.30398437 26.67578125 41.13671875 C26.78277344 41.75160156 26.88976563 42.36648437 27 43 C26.16855469 43.20302734 26.16855469 43.20302734 25.3203125 43.41015625 C23.01899667 44.09399921 21.06968946 44.77508175 19 46 C17.38864654 49.54863159 17.38864654 49.54863159 17 53 C16.39671875 52.88140625 15.7934375 52.7628125 15.171875 52.640625 C12.73454767 52.24750769 10.47041192 51.94853308 8 52 C5.74934898 53.91666921 5.74934898 53.91666921 4 56 C1.4375 55.9375 1.4375 55.9375 -1 55 C-1.44859375 54.47921875 -1.8971875 53.9584375 -2.359375 53.421875 C-3.92336873 51.76485642 -3.92336873 51.76485642 -6.26171875 51.92578125 C-7.46248047 52.11720703 -7.46248047 52.11720703 -8.6875 52.3125 C-9.49574219 52.43238281 -10.30398437 52.55226562 -11.13671875 52.67578125 C-11.75160156 52.78277344 -12.36648437 52.88976563 -13 53 C-13.13535156 52.44570313 -13.27070313 51.89140625 -13.41015625 51.3203125 C-14.09399921 49.01899667 -14.77508175 47.06968946 -16 45 C-19.54863159 43.38864654 -19.54863159 43.38864654 -23 43 C-22.88140625 42.39671875 -22.7628125 41.7934375 -22.640625 41.171875 C-22.24750769 38.73454767 -21.94853308 36.47041192 -22 34 C-23.91666921 31.74934898 -23.91666921 31.74934898 -26 30 C-25.9375 27.4375 -25.9375 27.4375 -25 25 C-24.47921875 24.55140625 -23.9584375 24.1028125 -23.421875 23.640625 C-21.76485642 22.07663127 -21.76485642 22.07663127 -21.92578125 19.73828125 C-22.11720703 18.53751953 -22.11720703 18.53751953 -22.3125 17.3125 C-22.43238281 16.50425781 -22.55226563 15.69601563 -22.67578125 14.86328125 C-22.78277344 14.24839844 -22.88976562 13.63351563 -23 13 C-22.44570313 12.86464844 -21.89140625 12.72929687 -21.3203125 12.58984375 C-19.01899667 11.90600079 -17.06968946 11.22491825 -15 10 C-13.38864654 6.45136841 -13.38864654 6.45136841 -13 3 C-12.09507813 3.17789062 -12.09507813 3.17789062 -11.171875 3.359375 C-8.73454767 3.75249231 -6.47041192 4.05146692 -4 4 C-1.74934898 2.08333079 -1.74934898 2.08333079 0 0 Z M11 20 C7.37 23.96 3.74 27.92 0 32 C-3.23475448 30.38262276 -4.70572021 29.52370777 -7 27 C-7.99 27.33 -8.98 27.66 -10 28 C-9.278125 28.928125 -8.55625 29.85625 -7.8125 30.8125 C-7.20341797 31.59560547 -7.20341797 31.59560547 -6.58203125 32.39453125 C-4.64001333 34.49894258 -4.64001333 34.49894258 0 37 C4.62 32.38 9.24 27.76 14 23 C13.01 22.01 12.02 21.02 11 20 Z " fill="#000000" transform="translate(30,4)"/>
</svg>
