<?xml version="1.0" encoding="UTF-8"?>
<svg version="1.1" xmlns="http://www.w3.org/2000/svg" width="512" height="512">
<path d="M0 0 C1.65738668 -0.00302314 3.31477196 -0.00691344 4.9721548 -0.01159257 C9.51211012 -0.02186036 14.05198637 -0.01969384 18.59194815 -0.01541197 C23.49391441 -0.01294253 28.39586174 -0.02196165 33.29782104 -0.02944946 C42.8959291 -0.04219258 52.49400917 -0.04399062 62.09212426 -0.0416492 C69.89501398 -0.03986538 77.69789521 -0.04161705 85.50078392 -0.04587364 C86.61179505 -0.04646883 87.72280619 -0.04706402 88.86748433 -0.04767724 C91.12459575 -0.04888901 93.38170717 -0.05010315 95.63881858 -0.05131962 C116.80183092 -0.06219376 137.96482731 -0.06003332 159.12784054 -0.05393478 C178.47996189 -0.04876623 197.8320329 -0.06001966 217.1841443 -0.07903299 C237.06367008 -0.0984145 256.94317206 -0.10666681 276.82270736 -0.10290974 C287.98000507 -0.10099811 299.13725994 -0.10348155 310.29454994 -0.11762428 C319.7933369 -0.12954304 329.29205465 -0.13093742 338.79084257 -0.11883412 C343.63484913 -0.11294883 348.47872911 -0.11183635 353.3227272 -0.12383652 C357.76224157 -0.13470659 362.20152385 -0.13157858 366.64102741 -0.11757483 C368.24190333 -0.114931 369.84279749 -0.11728453 371.44365547 -0.1253107 C392.16946696 -0.22196086 408.85583901 5.54841522 423.73698425 20.26069641 C437.37267051 35.40912444 441.0487186 51.78676736 440.99768066 71.52371216 C441.00070381 73.18109884 441.00459411 74.83848412 441.00927323 76.49586695 C441.01954102 81.03582228 441.01737451 85.57569853 441.01309264 90.11566031 C441.01062319 95.01762657 441.01964232 99.9195739 441.02713013 104.8215332 C441.03987325 114.41964126 441.04167128 124.01772133 441.03932986 133.61583642 C441.03754605 141.41872614 441.03929772 149.22160737 441.04355431 157.02449608 C441.0441495 158.13550721 441.04474468 159.24651835 441.04535791 160.39119649 C441.04656968 162.64830791 441.04778381 164.90541932 441.04900029 167.16253074 C441.05987442 188.32554307 441.05771398 209.48853947 441.05161544 230.6515527 C441.04644689 250.00367405 441.05770032 269.35574506 441.07671366 288.70785645 C441.09609516 308.58738224 441.10434748 328.46688422 441.10059041 348.34641951 C441.09867878 359.50371723 441.10116221 370.6609721 441.11530495 381.8182621 C441.1272237 391.31704906 441.12861808 400.81576681 441.11651478 410.31455473 C441.11062949 415.15856129 441.10951702 420.00244126 441.12151718 424.84643936 C441.13238726 429.28595373 441.12925924 433.72523601 441.1152555 438.16473957 C441.11261166 439.76561548 441.1149652 441.36650965 441.12299136 442.96736763 C441.21964152 463.69317911 435.44926544 480.37955116 420.73698425 495.26069641 C405.58855622 508.89638267 389.2109133 512.57243076 369.47396851 512.52139282 C367.81658183 512.52441597 366.15919654 512.52830627 364.50181371 512.53298539 C359.96185838 512.54325318 355.42198213 512.54108667 350.88202035 512.5368048 C345.98005409 512.53433535 341.07810676 512.54335447 336.17614746 512.55084229 C326.57803941 512.56358541 316.97995933 512.56538344 307.38184424 512.56304202 C299.57895452 512.5612582 291.77607329 512.56300988 283.97318459 512.56726646 C282.86217345 512.56786165 281.75116232 512.56845684 280.60648418 512.56907007 C278.34937276 512.57028183 276.09226134 512.57149597 273.83514992 512.57271244 C252.67213759 512.58358658 231.50914119 512.58142614 210.34612796 512.5753276 C190.99400661 512.57015905 171.6419356 512.58141248 152.28982421 512.60042582 C132.41029842 512.61980732 112.53079645 512.62805963 92.65126115 512.62430257 C81.49396344 512.62239093 70.33670857 512.62487437 59.17941856 512.63901711 C49.6806316 512.65093586 40.18191386 512.65233024 30.68312594 512.64022694 C25.83911938 512.63434165 20.9952394 512.63322918 16.1512413 512.64522934 C11.71172693 512.65609942 7.27244466 512.6529714 2.83294109 512.63896766 C1.23206518 512.63632382 -0.36882899 512.63867736 -1.96968696 512.64670352 C-22.69549845 512.74335368 -39.3818705 506.9729776 -54.26301575 492.26069641 C-67.89870201 477.11226838 -71.5747501 460.73462546 -71.52371216 440.99768066 C-71.5267353 439.34029398 -71.5306256 437.6829087 -71.53530473 436.02552587 C-71.54557252 431.48557054 -71.543406 426.94569429 -71.53912413 422.40573251 C-71.53665469 417.50376625 -71.54567381 412.60181892 -71.55316162 407.69985962 C-71.56590474 398.10175157 -71.56770278 388.50367149 -71.56536136 378.9055564 C-71.56357754 371.10266668 -71.56532921 363.29978545 -71.5695858 355.49689674 C-71.57018099 354.38588561 -71.57077618 353.27487448 -71.5713894 352.13019634 C-71.57260117 349.87308492 -71.5738153 347.6159735 -71.57503178 345.35886208 C-71.58590591 324.19584975 -71.58374547 303.03285335 -71.57764693 281.86984012 C-71.57247839 262.51771877 -71.58373182 243.16564776 -71.60274515 223.81353637 C-71.62212665 203.93401058 -71.63037897 184.05450861 -71.6266219 164.17497331 C-71.62471027 153.01767559 -71.62719371 141.86042072 -71.64133644 130.70313072 C-71.6532552 121.20434376 -71.65464957 111.70562602 -71.64254627 102.20683809 C-71.63666099 97.36283154 -71.63554851 92.51895156 -71.64754868 87.67495346 C-71.65841875 83.23543909 -71.65529073 78.79615682 -71.64128699 74.35665325 C-71.63864316 72.75577734 -71.64099669 71.15488317 -71.64902285 69.5540252 C-71.74567302 48.82821371 -65.97529693 32.14184166 -51.26301575 17.26069641 C-36.11458771 3.62501015 -19.7369448 -0.05103794 0 0 Z " fill="#6D86F4" transform="translate(71.26301574707031,-0.2606964111328125)"/>
<path d="M0 0 C1.68125977 -0.01836914 1.68125977 -0.01836914 3.39648438 -0.03710938 C25.43290935 -0.07547808 43.34957721 7.33756381 59.46875 22.171875 C69.86763281 32.81835026 75.93531438 47.88239737 78.9375 62.25 C79.17726563 63.37535156 79.41703125 64.50070313 79.6640625 65.66015625 C81.34808327 74.82082345 81.47355284 83.78509716 81.48950195 93.07104492 C81.49577529 94.67985681 81.50242285 96.28866727 81.50941467 97.8974762 C81.53033416 103.15429701 81.54079788 108.41111775 81.55078125 113.66796875 C81.55483176 115.4818708 81.55894877 117.2957727 81.56313133 119.10967445 C81.58214738 127.62433153 81.59639226 136.13898008 81.6047433 144.65365428 C81.61453686 154.47518329 81.64092635 164.29648822 81.68124419 174.11793822 C81.71137605 181.71896595 81.72620893 189.31992925 81.72952431 196.92101556 C81.73187585 201.45785872 81.74085162 205.99446145 81.76598549 210.53124046 C81.78922353 214.79376853 81.79351685 219.05589697 81.78322411 223.31847191 C81.78272778 224.88218514 81.78907665 226.44591781 81.80278015 228.00957108 C81.82044715 230.14485693 81.81342085 232.27869984 81.80024719 234.41398621 C81.80263555 235.60837909 81.8050239 236.80277197 81.80748463 238.03335857 C81.20958622 241.84328726 80.02879958 243.49369179 77.3125 246.1875 C73.76837383 247.36887539 70.90835988 247.34365438 67.16650391 247.38037109 C66.4425795 247.38854858 65.71865509 247.39672607 64.97279358 247.40515137 C62.5782249 247.42995505 60.18371523 247.44650669 57.7890625 247.4609375 C56.5613872 247.46892302 56.5613872 247.46892302 55.30891037 247.47706985 C50.97841072 247.50377713 46.64793968 247.52316141 42.31738281 247.53759766 C38.73411598 247.55094831 35.15141708 247.57882424 31.56835938 247.61962891 C27.24006422 247.66891848 22.912285 247.69371364 18.58372116 247.70082474 C16.93547304 247.70754 15.28723656 247.72276938 13.63914871 247.74671555 C11.33124995 247.77834064 9.02534375 247.77840934 6.71728516 247.77099609 C5.40506989 247.77908295 4.09285461 247.7871698 2.74087524 247.79550171 C-1.54478758 247.03546521 -2.98534014 245.51874866 -5.6875 242.1875 C-7.00758468 239.54733065 -6.81219178 237.58115372 -6.81207275 234.62341309 C-6.81463577 233.44030548 -6.81719879 232.25719788 -6.81983948 231.03823853 C-6.81773972 229.73333466 -6.81563995 228.42843079 -6.81347656 227.08398438 C-6.81487103 225.70091698 -6.81677015 224.31785001 -6.81913757 222.93478394 C-6.82363998 219.95114295 -6.82549078 216.96751575 -6.82559967 213.98387146 C-6.82673963 209.25943516 -6.83957705 204.5350771 -6.85516357 199.81066895 C-6.85773643 199.01321872 -6.86030928 198.2157685 -6.8629601 197.39415312 C-6.86822707 195.76305129 -6.87351255 194.13194952 -6.87881613 192.50084782 C-6.91390462 181.50087899 -6.94048383 170.50100599 -6.93798828 159.50097656 C-6.936396 152.08377538 -6.95252505 144.66683998 -6.98869491 137.24972391 C-7.00710349 133.32684307 -7.01654334 129.4044056 -7.00421906 125.48149109 C-6.99271791 121.78436062 -7.00463436 118.08802086 -7.03385353 114.39099503 C-7.04357957 112.40100503 -7.0287914 110.41094147 -7.01304626 108.42098999 C-7.10157377 100.71024067 -8.07388585 94.54136405 -12.6875 88.1875 C-19.91339989 81.53632382 -25.76467527 80.65808152 -35.3359375 80.8515625 C-42.9994387 81.25005139 -48.30144537 84.42605056 -53.5625 89.875 C-60.26570952 98.56168939 -61.27100582 106.98886837 -61.18579102 117.7277832 C-61.19130981 119.0476976 -61.19682861 120.367612 -61.20251465 121.7275238 C-61.21438863 124.5780101 -61.21403644 127.42812754 -61.20392036 130.27861977 C-61.18826196 134.78818977 -61.20210239 139.29738617 -61.21995544 143.80693054 C-61.25066172 152.55857979 -61.25227976 161.31011255 -61.25030518 170.06180573 C-61.2489086 181.21968149 -61.2592631 192.37746875 -61.2988829 203.53527898 C-61.31379909 208.01651314 -61.31356089 212.49741245 -61.30140507 216.97865164 C-61.29782824 219.09281645 -61.3010083 221.20684205 -61.30718994 223.32099915 C-61.31458674 225.89590718 -61.31126663 228.47087724 -61.29521179 231.04574585 C-61.3019693 232.18249252 -61.30872681 233.3192392 -61.31568909 234.49043274 C-61.31510278 235.47574636 -61.31451647 236.46105997 -61.31391239 237.47623158 C-61.75999686 240.71363752 -62.76299682 242.56377259 -64.6875 245.1875 C-68.322357 247.610738 -70.99990416 247.47661113 -75.20068359 247.4621582 C-75.96362228 247.46726913 -76.72656097 247.47238007 -77.51261902 247.47764587 C-80.03713811 247.49155664 -82.56138461 247.49058381 -85.0859375 247.48828125 C-86.84087221 247.4921678 -88.59580598 247.49650238 -90.35073853 247.50126648 C-94.0310572 247.50873219 -97.71127996 247.50843519 -101.39160156 247.50317383 C-106.1049928 247.4973833 -110.81799056 247.51429831 -115.53131676 247.5375185 C-119.15675142 247.55226126 -122.78209149 247.55312673 -126.40755081 247.55000877 C-128.14506432 247.55052186 -129.88258315 247.55575734 -131.6200676 247.56582069 C-134.05214619 247.57817636 -136.4834607 247.57139869 -138.91552734 247.55981445 C-139.98955559 247.57128006 -139.98955559 247.57128006 -141.08528137 247.58297729 C-145.45935807 247.53699623 -148.21948143 246.88544421 -151.6875 244.1875 C-154.34621084 240.19943373 -153.97426843 236.72167273 -153.96165466 232.09072876 C-153.96689134 231.14839272 -153.97212802 230.20605668 -153.97752339 229.235165 C-153.99257737 226.06379806 -153.99322972 222.89259169 -153.99389648 219.72119141 C-154.00151431 217.45302557 -154.00994115 215.18486233 -154.01911926 212.91670227 C-154.0411076 206.74524847 -154.04986893 200.57384422 -154.05494571 194.40235567 C-154.05858399 190.54940353 -154.06482125 186.69646447 -154.0719471 182.8435173 C-154.09140717 172.17707476 -154.10791757 161.5106468 -154.11082363 150.84418678 C-154.1110112 150.16153176 -154.11119877 149.47887673 -154.11139202 148.77553519 C-154.11175828 147.39161293 -154.11212198 146.00769067 -154.11248314 144.6237684 C-154.11266595 143.93678225 -154.11284876 143.2497961 -154.11303711 142.54199219 C-154.11321766 141.85416823 -154.11339821 141.16634428 -154.11358423 140.45767717 C-154.11712673 129.30963417 -154.14415366 118.16178423 -154.181535 107.01380821 C-154.21960138 95.57003182 -154.23853973 84.12639286 -154.23928314 72.68254411 C-154.24007761 66.25649811 -154.2488942 59.83070113 -154.27728081 53.40471268 C-154.30337664 47.3619635 -154.3057139 41.31967131 -154.28962517 35.27689171 C-154.28780395 33.0568753 -154.29456159 30.83683313 -154.31044388 28.61687279 C-154.33078102 25.59011476 -154.32042493 22.5649743 -154.30223083 19.53823853 C-154.3154308 18.65604004 -154.32863077 17.77384155 -154.34223074 16.86490977 C-154.28223965 12.5070143 -154.08999537 10.71744628 -151.37437534 7.14192009 C-147.88161166 4.60130073 -145.01885066 4.49580779 -140.85546875 4.57226562 C-139.69599228 4.56394211 -139.69599228 4.56394211 -138.51309204 4.55545044 C-135.96642408 4.54367157 -133.4215426 4.56790949 -130.875 4.59375 C-129.10050538 4.59546167 -127.32600824 4.59539485 -125.55151367 4.59362793 C-121.83585355 4.59528017 -118.12079749 4.61396006 -114.40527344 4.64550781 C-109.64703344 4.68518525 -104.88958436 4.68955248 -100.13121033 4.68204498 C-96.46798481 4.67897266 -92.80493648 4.69110513 -89.14175415 4.70817566 C-87.38751334 4.71519749 -85.63325246 4.71833118 -83.8789978 4.71748352 C-81.42547446 4.7192851 -78.97289156 4.7406968 -76.51953125 4.76757812 C-75.79730377 4.76464752 -75.07507629 4.76171692 -74.33096313 4.75869751 C-69.95149178 4.83257917 -67.16119748 5.48522785 -63.6875 8.1875 C-61.41795369 11.59181947 -61.32200051 13.35274202 -61.0625 17.375 C-60.95035156 19.00501953 -60.95035156 19.00501953 -60.8359375 20.66796875 C-60.78695312 21.49941406 -60.73796875 22.33085937 -60.6875 23.1875 C-59.99785156 22.59582031 -59.30820312 22.00414062 -58.59765625 21.39453125 C-52.89190167 16.59668823 -47.39684944 12.43982871 -40.6875 9.1875 C-39.82382812 8.75695312 -38.96015625 8.32640625 -38.0703125 7.8828125 C-25.60906631 1.91694676 -13.70723094 0.00774858 0 0 Z " fill="#020203" transform="translate(351.6875,185.8125)"/>
<path d="M0 0 C1.65738668 -0.00302314 3.31477196 -0.00691344 4.9721548 -0.01159257 C9.51211012 -0.02186036 14.05198637 -0.01969384 18.59194815 -0.01541197 C23.49391441 -0.01294253 28.39586174 -0.02196165 33.29782104 -0.02944946 C42.8959291 -0.04219258 52.49400917 -0.04399062 62.09212426 -0.0416492 C69.89501398 -0.03986538 77.69789521 -0.04161705 85.50078392 -0.04587364 C86.61179505 -0.04646883 87.72280619 -0.04706402 88.86748433 -0.04767724 C91.12459575 -0.04888901 93.38170717 -0.05010315 95.63881858 -0.05131962 C116.80183092 -0.06219376 137.96482731 -0.06003332 159.12784054 -0.05393478 C178.47996189 -0.04876623 197.8320329 -0.06001966 217.1841443 -0.07903299 C237.06367008 -0.0984145 256.94317206 -0.10666681 276.82270736 -0.10290974 C287.98000507 -0.10099811 299.13725994 -0.10348155 310.29454994 -0.11762428 C319.7933369 -0.12954304 329.29205465 -0.13093742 338.79084257 -0.11883412 C343.63484913 -0.11294883 348.47872911 -0.11183635 353.3227272 -0.12383652 C357.76224157 -0.13470659 362.20152385 -0.13157858 366.64102741 -0.11757483 C368.24190333 -0.114931 369.84279749 -0.11728453 371.44365547 -0.1253107 C392.16946696 -0.22196086 408.85583901 5.54841522 423.73698425 20.26069641 C437.37267051 35.40912444 441.0487186 51.78676736 440.99768066 71.52371216 C441.00070381 73.18109884 441.00459411 74.83848412 441.00927323 76.49586695 C441.01954102 81.03582228 441.01737451 85.57569853 441.01309264 90.11566031 C441.01062319 95.01762657 441.01964232 99.9195739 441.02713013 104.8215332 C441.03987325 114.41964126 441.04167128 124.01772133 441.03932986 133.61583642 C441.03754605 141.41872614 441.03929772 149.22160737 441.04355431 157.02449608 C441.0441495 158.13550721 441.04474468 159.24651835 441.04535791 160.39119649 C441.04656968 162.64830791 441.04778381 164.90541932 441.04900029 167.16253074 C441.05987442 188.32554307 441.05771398 209.48853947 441.05161544 230.6515527 C441.04644689 250.00367405 441.05770032 269.35574506 441.07671366 288.70785645 C441.09609516 308.58738224 441.10434748 328.46688422 441.10059041 348.34641951 C441.09867878 359.50371723 441.10116221 370.6609721 441.11530495 381.8182621 C441.1272237 391.31704906 441.12861808 400.81576681 441.11651478 410.31455473 C441.11062949 415.15856129 441.10951702 420.00244126 441.12151718 424.84643936 C441.13238726 429.28595373 441.12925924 433.72523601 441.1152555 438.16473957 C441.11261166 439.76561548 441.1149652 441.36650965 441.12299136 442.96736763 C441.21964152 463.69317911 435.44926544 480.37955116 420.73698425 495.26069641 C405.58855622 508.89638267 389.2109133 512.57243076 369.47396851 512.52139282 C367.81658183 512.52441597 366.15919654 512.52830627 364.50181371 512.53298539 C359.96185838 512.54325318 355.42198213 512.54108667 350.88202035 512.5368048 C345.98005409 512.53433535 341.07810676 512.54335447 336.17614746 512.55084229 C326.57803941 512.56358541 316.97995933 512.56538344 307.38184424 512.56304202 C299.57895452 512.5612582 291.77607329 512.56300988 283.97318459 512.56726646 C282.86217345 512.56786165 281.75116232 512.56845684 280.60648418 512.56907007 C278.34937276 512.57028183 276.09226134 512.57149597 273.83514992 512.57271244 C252.67213759 512.58358658 231.50914119 512.58142614 210.34612796 512.5753276 C190.99400661 512.57015905 171.6419356 512.58141248 152.28982421 512.60042582 C132.41029842 512.61980732 112.53079645 512.62805963 92.65126115 512.62430257 C81.49396344 512.62239093 70.33670857 512.62487437 59.17941856 512.63901711 C49.6806316 512.65093586 40.18191386 512.65233024 30.68312594 512.64022694 C25.83911938 512.63434165 20.9952394 512.63322918 16.1512413 512.64522934 C11.71172693 512.65609942 7.27244466 512.6529714 2.83294109 512.63896766 C1.23206518 512.63632382 -0.36882899 512.63867736 -1.96968696 512.64670352 C-22.69549845 512.74335368 -39.3818705 506.9729776 -54.26301575 492.26069641 C-67.89870201 477.11226838 -71.5747501 460.73462546 -71.52371216 440.99768066 C-71.5267353 439.34029398 -71.5306256 437.6829087 -71.53530473 436.02552587 C-71.54557252 431.48557054 -71.543406 426.94569429 -71.53912413 422.40573251 C-71.53665469 417.50376625 -71.54567381 412.60181892 -71.55316162 407.69985962 C-71.56590474 398.10175157 -71.56770278 388.50367149 -71.56536136 378.9055564 C-71.56357754 371.10266668 -71.56532921 363.29978545 -71.5695858 355.49689674 C-71.57018099 354.38588561 -71.57077618 353.27487448 -71.5713894 352.13019634 C-71.57260117 349.87308492 -71.5738153 347.6159735 -71.57503178 345.35886208 C-71.58590591 324.19584975 -71.58374547 303.03285335 -71.57764693 281.86984012 C-71.57247839 262.51771877 -71.58373182 243.16564776 -71.60274515 223.81353637 C-71.62212665 203.93401058 -71.63037897 184.05450861 -71.6266219 164.17497331 C-71.62471027 153.01767559 -71.62719371 141.86042072 -71.64133644 130.70313072 C-71.6532552 121.20434376 -71.65464957 111.70562602 -71.64254627 102.20683809 C-71.63666099 97.36283154 -71.63554851 92.51895156 -71.64754868 87.67495346 C-71.65841875 83.23543909 -71.65529073 78.79615682 -71.64128699 74.35665325 C-71.63864316 72.75577734 -71.64099669 71.15488317 -71.64902285 69.5540252 C-71.74567302 48.82821371 -65.97529693 32.14184166 -51.26301575 17.26069641 C-36.11458771 3.62501015 -19.7369448 -0.05103794 0 0 Z M-40.26301575 36.26069641 C-51.19221985 49.53187282 -51.41615892 62.35334906 -51.38999939 78.93647766 C-51.3911527 80.53000423 -51.39274163 82.12353053 -51.39472663 83.71705627 C-51.39889114 88.08036135 -51.39684228 92.44364448 -51.39374042 96.80694962 C-51.39147481 101.51866553 -51.39497172 106.23037772 -51.39772034 110.9420929 C-51.40216457 120.16620611 -51.40120754 129.39031118 -51.3983077 138.61442471 C-51.39604839 146.11175033 -51.39574343 153.60907367 -51.39683151 161.10639954 C-51.39698475 162.17387106 -51.39713798 163.24134258 -51.39729585 164.34116173 C-51.39761558 166.50977834 -51.3979398 168.67839495 -51.39826845 170.84701157 C-51.40111929 191.17727455 -51.3978424 211.50753302 -51.39246808 231.83779526 C-51.3880004 249.27824373 -51.38877644 266.71868555 -51.39338684 284.15913391 C-51.39873957 304.41716115 -51.40084464 324.67518443 -51.39777458 344.93321228 C-51.39745603 347.09380595 -51.39714166 349.25439962 -51.39683151 351.41499329 C-51.39667724 352.47801855 -51.39652296 353.54104382 -51.39636401 354.63628197 C-51.39550096 362.12371796 -51.39695719 369.61115144 -51.39931107 377.09858704 C-51.402117 386.22450862 -51.40135401 395.3504216 -51.39603032 404.4763422 C-51.39340406 409.13158707 -51.39237007 413.78681761 -51.39567947 418.44206238 C-51.39866452 422.70555863 -51.39701282 426.9690273 -51.39170192 431.23252106 C-51.39058717 432.77277855 -51.39114799 434.31303839 -51.39357771 435.85329437 C-51.60368864 451.5582619 -51.60368864 451.5582619 -46.76301575 466.26069641 C-46.4077179 466.95276184 -46.05242004 467.64482727 -45.68635559 468.35786438 C-39.9435737 479.04881364 -31.27304472 485.82782685 -20.20051575 490.57319641 C-11.12123709 492.69813397 -1.85031234 492.40229236 7.4127655 492.38768005 C9.00629207 492.38883336 10.59981837 492.39042229 12.19334412 492.3924073 C16.55664919 492.3965718 20.91993232 492.39452294 25.28323746 492.39142108 C29.99495338 492.38915547 34.70666556 492.39265238 39.41838074 492.395401 C48.64249395 492.39984524 57.86659902 492.3988882 67.09071255 492.39598836 C74.58803817 492.39372905 82.08536151 492.3934241 89.58268738 492.39451218 C91.18389466 492.39474203 91.18389466 492.39474203 92.81744957 492.39497652 C94.98606618 492.39529625 97.1546828 492.39562046 99.32329941 492.39594911 C119.65356239 492.39879996 139.98382086 492.39552307 160.3140831 492.39014874 C177.75453158 492.38568106 195.1949734 492.38645711 212.63542175 492.3910675 C232.89344899 492.39642023 253.15147228 492.3985253 273.40950012 492.39545524 C275.57009379 492.3951367 277.73068746 492.39482232 279.89128113 492.39451218 C280.95430639 492.3943579 282.01733166 492.39420363 283.11256981 492.39404467 C290.6000058 492.39318162 298.08743928 492.39463786 305.57487488 492.39699173 C314.70079646 492.39979767 323.82670944 492.39903467 332.95263004 492.39371099 C337.60787492 492.39108472 342.26310546 492.39005073 346.91835022 492.39336014 C351.18184647 492.39634519 355.44531514 492.39469348 359.7088089 492.38938259 C361.24906639 492.38826783 362.78932623 492.38882865 364.32958221 492.39125837 C380.0350343 492.60336821 380.0350343 492.60336821 394.73698425 487.76069641 C395.43049988 487.40104797 396.1240155 487.04139954 396.83854675 486.67085266 C406.05366731 481.68364322 411.45495459 475.4819579 416.23698425 466.26069641 C416.57600769 465.60843079 416.91503113 464.95616516 417.264328 464.28413391 C421.8467345 454.73903822 420.8822423 443.95042071 420.87069702 433.60510254 C420.87256714 432.01371387 420.87486865 430.42232565 420.87756234 428.83093816 C420.8836618 424.47342691 420.88354894 420.11593489 420.88236797 415.75842035 C420.88216349 411.05278058 420.88768714 406.34714692 420.89242554 401.64151001 C420.90072226 392.42842343 420.90347993 383.21534326 420.90403792 374.00225326 C420.9045135 366.5121042 420.90657036 359.02195725 420.90973854 351.53180885 C420.91854212 330.28548311 420.92315833 309.03916242 420.92240807 287.79283484 C420.92236811 286.64809586 420.92232815 285.50335688 420.92228699 284.32392883 C420.92224611 283.17778877 420.92220523 282.03164871 420.92216311 280.85077713 C420.92175663 262.27465034 420.93132746 243.69854382 420.94542535 225.1224229 C420.95979418 206.03842916 420.96669527 186.95444531 420.96583158 167.87044603 C420.9654998 157.16028729 420.96823837 146.45014981 420.97900963 135.73999596 C420.98812123 126.62183945 420.99028441 117.50371384 420.9835002 108.38555475 C420.98023847 103.73599716 420.98016584 99.08649881 420.98885345 94.43694687 C420.99673455 90.17511786 420.99527063 85.91339492 420.98656932 81.65156845 C420.98503789 80.11529449 420.98683697 78.57901254 420.9924294 77.042748 C421.05121099 59.74009767 419.38077032 46.46141745 407.12760925 33.51850891 C393.77496543 20.90767863 379.60065639 20.1074323 362.08139038 20.12698364 C360.49000171 20.12511352 358.89861349 20.12281202 357.307226 20.12011832 C352.94971475 20.11401887 348.59222273 20.11413172 344.23470819 20.1153127 C339.52906842 20.11551717 334.82343476 20.10999352 330.11779785 20.10525513 C320.90471128 20.0969584 311.6916311 20.09420074 302.4785411 20.09364275 C294.98839204 20.09316716 287.49824509 20.0911103 280.00809669 20.08794212 C258.76177095 20.07913855 237.51545026 20.07452233 216.26912268 20.0752726 C214.55201421 20.07533253 214.55201421 20.07533253 212.80021667 20.07539368 C211.65407661 20.07543456 210.50793655 20.07547544 209.32706497 20.07551756 C190.75093818 20.07592404 172.17483166 20.06635321 153.59871074 20.05225531 C134.514717 20.03788649 115.43073315 20.03098539 96.34673387 20.03184909 C85.63657513 20.03218086 74.92643765 20.02944229 64.2162838 20.01867104 C55.09812729 20.00955943 45.98000168 20.00739626 36.8618426 20.01418046 C32.212285 20.01744219 27.56278665 20.01751482 22.91323471 20.00882721 C18.6514057 20.00094612 14.38968277 20.00241003 10.12785629 20.01111134 C8.59158233 20.01264278 7.05530039 20.0108437 5.51903584 20.00525127 C-13.18791595 19.9416989 -26.98393707 22.2240864 -40.26301575 36.26069641 Z " fill="#000000" transform="translate(71.26301574707031,-0.2606964111328125)"/>
<path d="M0 0 C14.72651689 12.63281081 19.47106969 30.55557185 21.625 49.1875 C21.87938433 54.17876527 21.87978967 59.16133702 21.85205078 64.1574707 C21.85148504 65.60764559 21.8518064 67.05782105 21.85293579 68.50799561 C21.85350395 72.40178135 21.84183776 76.29544104 21.82778788 80.18919778 C21.8151899 84.27441516 21.81410293 88.35963619 21.81173706 92.44487 C21.80554871 100.16160386 21.78917412 107.8782803 21.76903808 115.594989 C21.74659621 124.3883436 21.73566491 133.18170111 21.72564721 141.97507727 C21.70480521 160.04592391 21.66816249 178.11669194 21.625 196.1875 C5.785 196.1875 -10.055 196.1875 -26.375 196.1875 C-26.39481934 192.36236816 -26.41463867 188.53723633 -26.43505859 184.59619141 C-26.50203137 171.94348103 -26.57957206 159.2908538 -26.66252708 146.63823891 C-26.71255468 138.9686442 -26.75899835 131.29905966 -26.796875 123.62939453 C-26.82991452 116.94107372 -26.8698109 110.25283413 -26.91779006 103.56460321 C-26.94293675 100.02636563 -26.96475224 96.4881811 -26.97834396 92.94987869 C-26.99368116 88.99073972 -27.0243334 85.03179631 -27.05615234 81.07275391 C-27.05831253 79.91181213 -27.06047272 78.75087036 -27.06269836 77.55474854 C-27.2091962 63.24078006 -30.43735204 51.67581983 -40.3984375 40.96875 C-49.3134668 32.93465245 -59.81274316 29.6015729 -71.625 29.6875 C-72.5437793 29.69322021 -73.46255859 29.69894043 -74.40917969 29.70483398 C-89.06888207 30.08742903 -99.12791263 36.56223333 -109.125 46.9375 C-119.15891337 58.51239832 -120.66478755 71.82093992 -120.69384766 86.63549805 C-120.70891609 88.4228109 -120.70891609 88.4228109 -120.72428894 90.24623108 C-120.74967628 93.47689002 -120.76665481 96.70745473 -120.77971697 99.93818259 C-120.79547045 103.3281259 -120.82222088 106.71798312 -120.8477478 110.10786438 C-120.8943213 116.51067223 -120.93116826 122.91349666 -120.96442068 129.31638604 C-121.00279461 136.61280737 -121.05216413 143.90914176 -121.10240483 151.20548952 C-121.20540551 166.19943437 -121.29331735 181.19342101 -121.375 196.1875 C-138.535 196.1875 -155.695 196.1875 -173.375 196.1875 C-173.375 129.5275 -173.375 62.8675 -173.375 -5.8125 C-156.215 -5.8125 -139.055 -5.8125 -121.375 -5.8125 C-121.125 8.375 -121.125 8.375 -121.07714844 12.82495117 C-121.03122559 14.57255737 -121.03122559 14.57255737 -120.984375 16.35546875 C-120.96342773 17.54422607 -120.94248047 18.7329834 -120.92089844 19.95776367 C-120.27622647 23.77188062 -119.05284054 25.44731853 -116.375 28.1875 C-113.55498673 29.59750664 -111.50492745 29.43298451 -108.375 29.1875 C-104.46379069 27.23810362 -102.17731652 25.03057244 -99.5625 21.5625 C-87.16655699 5.62154899 -72.4394262 -7.98851649 -51.52148438 -10.62207031 C-33.44210598 -12.22601881 -14.95395667 -11.4287747 0 0 Z " fill="#FEFEFE" transform="translate(391.375,216.8125)"/>
<path d="M0 0 C17.49 0 34.98 0 53 0 C53 66.66 53 133.32 53 202 C35.51 202 18.02 202 0 202 C-0.25 178.25 -0.25 178.25 -0.29785156 170.76660156 C-0.3272176 168.80791872 -0.35804272 166.84925698 -0.390625 164.890625 C-0.39175293 163.87468262 -0.39288086 162.85874023 -0.39404297 161.81201172 C-0.42907534 156.29948907 -0.42907534 156.29948907 -2.72558594 151.44433594 C-5.34073737 149.68562625 -5.34073737 149.68562625 -10 148 C-10 141.4 -10 134.8 -10 128 C-4 125 -4 125 -2 125 C-0.9609283 117.97217958 -0.9609283 117.97217958 -2 111 C-3.423125 110.5359375 -3.423125 110.5359375 -4.875 110.0625 C-8 109 -8 109 -10 108 C-10 99.75 -10 91.5 -10 83 C-7.69 82.01 -5.38 81.02 -3 80 C-0.59747382 76.39621073 -0.69384002 73.7566158 -0.68115234 69.59106445 C-0.67110672 68.83960144 -0.6610611 68.08813843 -0.65071106 67.31390381 C-0.61982343 64.83037073 -0.60282861 62.34694572 -0.5859375 59.86328125 C-0.56723032 58.14120042 -0.54765725 56.4191288 -0.5272522 54.69706726 C-0.47587737 50.16467716 -0.43628034 45.63225732 -0.39910889 41.09973145 C-0.35206885 35.66142703 -0.29044813 30.22327077 -0.23126221 24.78508759 C-0.14298472 16.52345135 -0.07326723 8.26184445 0 0 Z " fill="#FEFEFE" transform="translate(103,211)"/>
<path d="M0 0 C0.78244583 -0.00832352 1.56489166 -0.01664703 2.37104797 -0.02522278 C4.96046916 -0.0493396 7.54963853 -0.05809686 10.13916016 -0.06469727 C11.9389351 -0.07366232 13.73870928 -0.08278414 15.53848267 -0.09205627 C19.31294568 -0.10855339 23.08731991 -0.1162477 26.86181641 -0.11914062 C31.69648017 -0.12452523 36.5303087 -0.16220499 41.36473656 -0.20788479 C45.08282512 -0.23763955 48.80071217 -0.24486383 52.51890945 -0.24586678 C54.30111135 -0.25007224 56.08331368 -0.26251967 57.86539841 -0.28338432 C60.3601075 -0.31026702 62.85287587 -0.30548381 65.34765625 -0.29296875 C66.08237656 -0.30780304 66.81709686 -0.32263733 67.57408142 -0.33792114 C71.47595602 -0.28223136 73.15393863 0.18685827 76.23794556 2.65635681 C79.84244853 7.28143878 79.44924892 11.63720851 79.44366455 17.25131226 C79.44663567 18.17731409 79.4496068 19.10331592 79.45266795 20.05737841 C79.461369 23.17343385 79.46286438 26.28945094 79.46435547 29.40551758 C79.4689826 31.6342731 79.47400711 33.86302782 79.47940063 36.09178162 C79.49253561 42.15579558 79.49897158 48.21979847 79.50341129 54.28382444 C79.50633987 58.06976821 79.51044424 61.85570892 79.51491547 65.64165115 C79.52702493 76.12280047 79.53740711 86.60394799 79.54079056 97.08510399 C79.54111991 98.09128086 79.54111991 98.09128086 79.54145591 99.11778454 C79.54178333 100.12637193 79.54178333 100.12637193 79.54211736 101.15533483 C79.54256082 102.5178632 79.54300739 103.88039156 79.54345703 105.24291992 C79.54367846 105.91878142 79.54389989 106.59464291 79.54412803 107.29098506 C79.54807696 118.24497632 79.56553424 129.19890108 79.58881655 140.15286665 C79.61252441 151.39774026 79.62473408 162.64258165 79.62615848 173.88748419 C79.62720824 180.20168428 79.63315261 186.51579058 79.65097809 192.8299675 C79.66741421 198.76756523 79.66963596 204.70499823 79.66083908 210.64261055 C79.66006635 212.82391996 79.66444234 215.00523806 79.67429733 217.18652534 C79.68694705 220.16038613 79.68117797 223.13365728 79.67071533 226.10751343 C79.68279994 227.40746547 79.68279994 227.40746547 79.69512868 228.73367918 C79.65656089 233.40895427 79.36891451 236.53063044 76.30322266 240.30639648 C72.63237558 242.75362787 69.85380037 242.60897161 65.60644531 242.61279297 C64.43277657 242.62527824 64.43277657 242.62527824 63.23539734 242.63801575 C60.64597615 242.66213257 58.05680678 242.67088983 55.46728516 242.67749023 C53.66751021 242.68645529 51.86773604 242.69557711 50.06796265 242.70484924 C46.29349963 242.72134636 42.5191254 242.72904066 38.74462891 242.73193359 C33.90996515 242.7373182 29.07613662 242.77499796 24.24170876 242.82067776 C20.52362019 242.85043252 16.80573314 242.8576568 13.08753586 242.85865974 C11.30533396 242.86286521 9.52313163 242.87531264 7.74104691 242.89617729 C5.24633781 242.92305999 2.75356944 242.91827678 0.25878906 242.90576172 C-0.8432914 242.92801315 -0.8432914 242.92801315 -1.96763611 242.95071411 C-5.91368265 242.89439389 -7.54105637 242.43440539 -10.63150024 239.89393616 C-13.5999063 236.17488633 -13.83171519 234.36682663 -13.88964844 229.66674805 C-13.91374283 227.89415619 -13.91374283 227.89415619 -13.93832397 226.08575439 C-13.98270535 220.67394477 -14.02428594 215.26228125 -14.046875 209.8503418 C-14.0602001 206.99454616 -14.08802416 204.13946751 -14.12890625 201.28393555 C-14.18778062 197.17150846 -14.2055448 193.05984815 -14.22021484 188.94702148 C-14.24288422 187.67183655 -14.26555359 186.39665161 -14.28890991 185.08282471 C-14.26533693 175.2043308 -14.26533693 175.2043308 -11.37890625 171.52026367 C-7.99935546 168.73073458 -6.06541628 168.2297537 -1.69677734 168.30639648 C2.31841329 169.82156276 3.90690619 170.71192178 6.30322266 174.30639648 C6.54373169 176.48942566 6.54373169 176.48942566 6.53027344 179.05322266 C6.53003174 180.02739136 6.52979004 181.00156006 6.52954102 182.00524902 C6.51419312 183.53683655 6.51419312 183.53683655 6.49853516 185.09936523 C6.496521 186.03993774 6.49450684 186.98051025 6.49243164 187.94958496 C6.48196455 191.46440505 6.45404198 194.97915564 6.42822266 198.49389648 C6.38697266 206.35202148 6.34572266 214.21014648 6.30322266 222.30639648 C23.79322266 222.30639648 41.28322266 222.30639648 59.30322266 222.30639648 C59.30322266 155.64639648 59.30322266 88.98639648 59.30322266 20.30639648 C41.81322266 20.30639648 24.32322266 20.30639648 6.30322266 20.30639648 C6.36123047 25.80682617 6.41923828 31.30725586 6.47900391 36.97436523 C6.50455421 40.46072288 6.5286238 43.94696496 6.54736328 47.43334961 C6.57724374 52.96622718 6.61257701 58.49869072 6.68041992 64.03125 C6.73477955 68.49221136 6.76465147 72.95272871 6.77760887 77.41399574 C6.78684173 79.11528831 6.80487179 80.8165568 6.83187294 82.51766014 C6.8682177 84.90244264 6.87316603 87.2853949 6.87084961 89.67041016 C6.88882599 90.37244064 6.90680237 91.07447113 6.92532349 91.79777527 C6.88533362 95.60727124 6.38605035 97.20218827 3.98649597 100.22114563 C0.62805286 102.83109085 -1.46093067 103.30639648 -5.69677734 103.30639648 C-9.42296213 101.69736214 -11.68600879 99.81458646 -13.69677734 96.30639648 C-13.98744356 93.42113318 -14.10688066 90.75362735 -14.08496094 87.86938477 C-14.0902179 87.02012421 -14.09547485 86.17086365 -14.10089111 85.29586792 C-14.11409114 82.48929431 -14.10535147 79.68328835 -14.09521484 76.87670898 C-14.09723595 74.92381685 -14.1001477 72.97092544 -14.10391235 71.01803589 C-14.10833603 66.92414162 -14.10190461 62.83044371 -14.08789062 58.73657227 C-14.07082142 53.49530922 -14.08062535 48.2545078 -14.09860802 43.0132618 C-14.10946398 38.97944684 -14.10599079 34.94574075 -14.09822464 30.91192245 C-14.09622647 28.97986674 -14.09866842 27.04780107 -14.1056633 25.11575699 C-14.11330502 22.41097208 -14.10163452 19.70692725 -14.08496094 17.00219727 C-14.09103363 16.20718811 -14.09710632 15.41217896 -14.10336304 14.59307861 C-14.04862038 9.7855651 -13.37309601 6.46031058 -10.69677734 2.30639648 C-7.02593027 -0.1408349 -4.24735506 0.00382136 0 0 Z " fill="#010102" transform="translate(96.69677734375,190.693603515625)"/>
<path d="M0 0 C9.46244029 7.87332818 16.75626982 18.69141888 18.37109375 31.06640625 C19.35100186 47.35537063 16.30280971 61.29286798 5.49609375 74.06640625 C-4.71824177 84.65324153 -17.59898648 90.10357758 -32.19140625 90.37890625 C-46.17720013 90.39341601 -58.10413248 85.33769661 -68.37890625 75.81640625 C-79.04878312 64.3770671 -82.9648605 51.73323413 -82.7734375 36.3671875 C-82.1882818 23.00349641 -76.69929831 12.25033728 -67.484375 2.6171875 C-47.92192658 -14.85788612 -20.98909 -15.43774079 0 0 Z " fill="#010102" transform="translate(161.62890625,89.93359375)"/>
<path d="M0 0 C6.86693936 4.38606905 11.44082942 11.32248826 14 19 C14.84028773 29.59313553 13.93181728 38.30504958 7.25 46.8125 C1.72180013 52.73158269 -5.22132326 56.46211577 -13.296875 57.37109375 C-21.4815985 57.52849228 -27.16084101 56.57629493 -34 52 C-34.58394531 51.61585938 -35.16789062 51.23171875 -35.76953125 50.8359375 C-41.7062028 46.41725032 -45.03197548 39.98303438 -47 33 C-48.25302686 23.04807511 -46.75747428 15.26179145 -41 7 C-30.51447397 -5.15617588 -14.06375404 -8.07971507 0 0 Z " fill="#FCFCFC" transform="translate(146,103)"/>
<path d="M0 0 C0.84096725 -0.0065712 1.68193451 -0.0131424 2.54838562 -0.01991272 C5.33255095 -0.03963081 8.11666243 -0.05130377 10.90087891 -0.0612793 C11.85171986 -0.06535482 12.80256081 -0.06943035 13.78221512 -0.07362938 C18.81297844 -0.09448177 23.84371454 -0.10878822 28.87451172 -0.11816406 C34.07221605 -0.12923879 39.26949349 -0.16365332 44.46704674 -0.20333576 C48.46305137 -0.22946579 52.4589536 -0.23785258 56.45503616 -0.24144554 C58.37120071 -0.24631929 60.28736045 -0.25795564 62.20344162 -0.27648354 C64.88467155 -0.30080273 67.56478756 -0.29992355 70.24609375 -0.29296875 C71.03691849 -0.30577881 71.82774323 -0.31858887 72.64253235 -0.33178711 C76.39334087 -0.29633105 78.53270486 0.03606571 81.72158813 2.08137512 C84.8587416 5.31858732 85.0863746 7.63185111 85.04541016 12.13793945 C84.58989174 15.30834762 82.99928483 16.99624215 80.75244141 19.17700195 C77.56643358 20.77000587 74.11804307 20.33323526 70.6184082 20.33813477 C69.35717636 20.34558212 69.35717636 20.34558212 68.07046509 20.35317993 C65.2808552 20.36781905 62.49130219 20.3746068 59.70166016 20.38012695 C57.76593524 20.38587739 55.83021035 20.39163514 53.89448547 20.3973999 C49.83159113 20.40791516 45.76871659 20.41375425 41.70581055 20.41723633 C36.50030848 20.42271922 31.29506823 20.4467407 26.08964825 20.47520828 C22.08935279 20.49383559 18.08912034 20.49904033 14.08878517 20.5005722 C12.16984439 20.50359954 10.25090473 20.51163078 8.33200645 20.52475739 C5.6460215 20.54181822 2.96067541 20.53993747 0.2746582 20.53344727 C-0.51773758 20.54266205 -1.31013336 20.55187683 -2.12654114 20.56137085 C-6.69006946 20.52684029 -9.61621881 19.99620582 -13.24755859 17.17700195 C-15.81355816 14.09780248 -16.25601844 12.65921317 -16.18505859 8.61450195 C-15.16811775 4.88571887 -14.28187404 3.49736082 -11.24755859 1.17700195 C-7.47306778 -0.08116165 -3.93325033 0.01330543 0 0 Z " fill="#000001" transform="translate(313.24755859375,47.822998046875)"/>
<path d="M0 0 C3.76706991 0.37053147 5.91316716 0.98883694 8.69921875 3.6171875 C10.61798103 6.64681216 10.61981469 9.48195722 10.39453125 12.9921875 C9.76466115 15.57085032 9.16542868 16.69299181 7.25 18.5 C3.25771601 20.67760945 1.28408412 21.1880153 -3.1875 20.375 C-6.0625 17.9375 -6.0625 17.9375 -8.1875 15.375 C-8.5175 15.045 -8.8475 14.715 -9.1875 14.375 C-9.48072866 11.44271337 -9.68754247 9.23008117 -9.1875 6.375 C-6.75 3.4375 -6.75 3.4375 -4.1875 1.375 C-3.1875 0.375 -3.1875 0.375 0 0 Z " fill="#030407" transform="translate(261.1875,47.625)"/>
<path d="M0 0 C3.2594483 2.23014883 3.89543801 3.58922074 4.875 7.4375 C5.00403402 11.11496954 4.97186957 12.91359546 3 16 C-0.43533841 18.39674773 -2.42251401 19.00995665 -6.625 18.9375 C-10.42888011 17.88086664 -11.81607902 17.27588147 -14 14 C-14.95352838 11.25641222 -15.33883901 8.89401841 -15 6 C-11.50058009 -0.64175616 -6.98602732 -1.59330448 0 0 Z " fill="#030405" transform="translate(98,320)"/>
</svg>
