<?xml version="1.0" encoding="UTF-8"?>
<svg version="1.1" xmlns="http://www.w3.org/2000/svg" width="512" height="512">
<path d="M0 0 C0.88450836 0.00054382 1.76901672 0.00108765 2.68032837 0.00164795 C16.67598777 0.04116987 30.0125135 0.89145879 43.625 4.375 C44.52686035 4.59994141 45.4287207 4.82488281 46.35791016 5.05664062 C70.06482627 11.08825832 92.80925505 20.87360605 112.625 35.375 C113.64207031 36.10847656 114.65914063 36.84195313 115.70703125 37.59765625 C121.96845082 42.20847647 127.80132588 47.21146042 133.5 52.5 C134.40939331 53.34232178 134.40939331 53.34232178 135.3371582 54.20166016 C164.62300712 81.86074062 183.48926066 119.99144381 190.625 159.375 C190.80232666 160.29466553 190.97965332 161.21433105 191.16235352 162.16186523 C192.82533002 171.60612122 192.98164305 180.88046828 192.9375 190.4375 C192.93476578 191.66447098 192.93476578 191.66447098 192.93197632 192.91622925 C192.88553005 205.29801817 192.34754836 217.25483638 189.625 229.375 C189.45871094 230.15407715 189.29242188 230.9331543 189.12109375 231.73583984 C180.45884205 271.68646549 162.32300496 310.81891803 140.625 345.375 C139.67445947 346.90884196 138.72393966 348.44269676 137.7734375 349.9765625 C127.27853401 366.81797685 116.22203676 383.2737411 104.625 399.375 C103.79331299 400.52983887 103.79331299 400.52983887 102.94482422 401.70800781 C95.28448922 412.30664234 87.3434004 422.60479208 79.01464844 432.68554688 C77.11058405 435.00039676 75.24108867 437.34198144 73.375 439.6875 C62.72795125 453.01849229 51.79149113 466.05949025 40.203125 478.58203125 C37.8421481 481.13975623 35.50931152 483.71925368 33.1875 486.3125 C31.66781733 488.0010363 30.14688681 489.68845003 28.625 491.375 C28.15416992 491.89771484 27.68333984 492.42042969 27.19824219 492.95898438 C9.93842645 512.07242663 9.93842645 512.07242663 4.015625 512.61328125 C2.97921875 512.63777344 1.9428125 512.66226563 0.875 512.6875 C-0.15109375 512.72488281 -1.1771875 512.76226563 -2.234375 512.80078125 C-8.68895521 511.92572 -12.95134934 507.10039492 -17.3125 502.625 C-17.84117676 502.08915283 -18.36985352 501.55330566 -18.91455078 501.0012207 C-22.18353043 497.66445116 -25.31802926 494.24717146 -28.34375 490.6875 C-31.23018614 487.40140347 -34.24858929 484.24338789 -37.25 481.0625 C-42.16425506 475.83920882 -46.82011661 470.52611328 -51.296875 464.921875 C-53.43218453 462.3049167 -55.66030363 459.80657221 -57.9375 457.3125 C-61.49264182 453.4024559 -64.83717026 449.38582317 -68.10546875 445.234375 C-69.79803628 443.10191471 -71.50649742 440.99078894 -73.23828125 438.890625 C-81.95896812 428.30083142 -90.23431 417.41538488 -98.375 406.375 C-99.20233643 405.25786621 -99.20233643 405.25786621 -100.04638672 404.11816406 C-109.61202547 391.17590427 -118.57126944 377.84466183 -127.375 364.375 C-127.92575195 363.53291992 -128.47650391 362.69083984 -129.04394531 361.82324219 C-148.2675653 332.28274526 -165.58444159 300.65946932 -177.375 267.375 C-177.69259277 266.49875977 -178.01018555 265.62251953 -178.33740234 264.71972656 C-181.86305539 254.94446166 -184.84912731 245.12796682 -187.1875 235 C-187.3824707 234.15751709 -187.57744141 233.31503418 -187.77832031 232.44702148 C-190.76885996 218.76675302 -191.78557382 205.32712443 -191.75 191.375 C-191.74945618 190.56651611 -191.74891235 189.75803223 -191.74835205 188.92504883 C-191.70672419 175.40565187 -190.67907213 162.5317557 -187.375 149.375 C-187.15005859 148.46878906 -186.92511719 147.56257812 -186.69335938 146.62890625 C-180.66012037 122.92808306 -170.87286557 100.18592352 -156.375 80.375 C-155.64152344 79.35792969 -154.90804687 78.34085937 -154.15234375 77.29296875 C-149.54152353 71.03154918 -144.53853958 65.19867412 -139.25 59.5 C-138.40767822 58.59060669 -138.40767822 58.59060669 -137.54833984 57.6628418 C-109.88371352 28.37112083 -71.7612925 9.52273092 -32.375 2.375 C-31.47056152 2.19839844 -30.56612305 2.02179687 -29.63427734 1.83984375 C-19.76251048 0.08681079 -9.99408911 -0.02310934 0 0 Z " fill="#2196F3" transform="translate(255.375,-0.375)"/>
<path d="M0 0 C7.56049177 4.18458458 14.03265337 10.03280461 20.625 15.5625 C24.35522189 18.6893645 28.14570915 21.72380832 31.98828125 24.7109375 C37.01824119 28.62947587 41.98632733 32.61641107 46.92578125 36.6484375 C51.88812349 40.69827433 56.87794489 44.70567192 61.92578125 48.6484375 C67.15677145 52.74521473 72.36932047 56.86413762 77.55078125 61.0234375 C78.56398438 61.8268457 78.56398438 61.8268457 79.59765625 62.64648438 C89.40424123 70.55726193 89.40424123 70.55726193 90.19921875 76.03125 C90.43978152 81.34213583 89.53963599 84.78799059 86.80078125 89.32421875 C82.62657308 93.38537545 77.79699602 95.38204055 71.98828125 95.5390625 C70.30033319 95.51289276 68.6125874 95.4658061 66.92578125 95.3984375 C66.05566406 95.38039063 65.18554688 95.36234375 64.2890625 95.34375 C62.16748218 95.29712186 60.0464779 95.22539827 57.92578125 95.1484375 C57.935774 96.70698959 57.935774 96.70698959 57.94596863 98.29702759 C58.00682307 108.09607728 58.05177473 117.89508855 58.08121777 127.69428444 C58.09686367 132.73197947 58.11808243 137.76952177 58.15209961 142.80712891 C58.18473123 147.670063 58.20264236 152.53285032 58.21041298 157.39588547 C58.21594965 159.24981369 58.22676144 161.10373402 58.24297142 162.95759964 C58.26479626 165.55735796 58.26774607 168.15651224 58.26635742 170.75634766 C58.27714325 171.52023804 58.28792908 172.28412842 58.29904175 173.07116699 C58.26746542 178.54601653 57.16131184 182.69750423 53.42578125 186.79296875 C49.43176395 189.90289368 46.68349986 191.26911179 41.65715027 191.28887939 C40.78662521 191.29458954 39.91610016 191.30029968 39.01919556 191.30618286 C37.59079849 191.30785965 37.59079849 191.30785965 36.13354492 191.30957031 C35.12837326 191.31453522 34.1232016 191.31950012 33.08757019 191.32461548 C29.75628987 191.33924194 26.42505718 191.34603998 23.09375 191.3515625 C20.78070575 191.35731361 18.46766152 191.36307134 16.15461731 191.36883545 C11.30156227 191.37934685 6.44852381 191.3851886 1.59545898 191.38867188 C-4.62216271 191.39415649 -10.83956541 191.41818343 -17.05711842 191.44664383 C-21.83636616 191.46527046 -26.61556117 191.47047583 -31.39484215 191.47200775 C-33.68695968 191.4750348 -35.97907628 191.48306507 -38.27115822 191.49619293 C-41.47887441 191.51325335 -44.68605564 191.51137295 -47.89379883 191.50488281 C-48.83999084 191.5140976 -49.78618286 191.52331238 -50.76104736 191.5328064 C-56.67936861 191.49530854 -61.16124564 190.8054011 -65.71875 186.6484375 C-69.83087484 181.36731397 -70.217894 177.5933318 -70.18774414 171.09692383 C-70.18789017 170.27718582 -70.18803619 169.45744781 -70.18818665 168.61286926 C-70.18748971 165.90204222 -70.17970753 163.1912838 -70.171875 160.48046875 C-70.17001004 158.60145607 -70.16858651 156.7224429 -70.16758728 154.84342957 C-70.16376823 149.89668435 -70.15394313 144.94996848 -70.1428833 140.00323486 C-70.13265605 134.95593665 -70.12808684 129.90863371 -70.12304688 124.86132812 C-70.11232034 114.95701836 -70.09525123 105.05273037 -70.07421875 95.1484375 C-70.66847656 95.1798584 -71.26273438 95.2112793 -71.875 95.24365234 C-74.60767438 95.36955511 -77.33973751 95.4467698 -80.07421875 95.5234375 C-81.00878906 95.57371094 -81.94335938 95.62398438 -82.90625 95.67578125 C-89.18283809 95.80745792 -92.68647422 94.77912466 -97.515625 90.72241211 C-101.7458082 86.45048368 -102.41401973 82.24376147 -102.5703125 76.4921875 C-101.30541278 70.51628329 -96.75245014 66.65393806 -92.19921875 62.9609375 C-91.63114502 62.49026855 -91.06307129 62.01959961 -90.4777832 61.53466797 C-85.88541827 57.75183237 -81.21173476 54.07124471 -76.51806641 50.4152832 C-71.98806823 46.88482408 -67.52267967 43.28094649 -63.07421875 39.6484375 C-57.55338337 35.14263174 -51.98884476 30.70174485 -46.36987305 26.3190918 C-42.52610903 23.31265887 -38.73333366 20.24964987 -34.95825195 17.1574707 C-9.33083185 -3.83073699 -9.33083185 -3.83073699 0 0 Z " fill="#F9F9F9" transform="translate(262.07421875,96.8515625)"/>
</svg>
