<?xml version="1.0" encoding="UTF-8"?>
<svg version="1.1" xmlns="http://www.w3.org/2000/svg" width="512" height="512">
<path d="M0 0 C1.88428711 0.01353516 1.88428711 0.01353516 3.80664062 0.02734375 C6.89212522 0.05080751 9.97721205 0.08363799 13.0625 0.125 C13.0625 2.765 13.0625 5.405 13.0625 8.125 C18.3425 8.125 23.6225 8.125 29.0625 8.125 C29.0625 5.485 29.0625 2.845 29.0625 0.125 C34.3425 0.125 39.6225 0.125 45.0625 0.125 C45.0625 2.765 45.0625 5.405 45.0625 8.125 C50.3425 8.125 55.6225 8.125 61.0625 8.125 C61.0625 5.485 61.0625 2.845 61.0625 0.125 C104.93657164 0.03340797 148.81063314 -0.03705727 192.68478157 -0.07926132 C197.86667745 -0.08426403 203.04857315 -0.08944133 208.23046875 -0.09472656 C209.26207374 -0.0957758 210.29367872 -0.09682505 211.35654446 -0.09790608 C228.05150482 -0.11530262 244.74640998 -0.14683619 261.44133762 -0.18361118 C278.57690016 -0.22104148 295.71243383 -0.24324027 312.84803557 -0.25135398 C323.41826672 -0.25683741 333.98834183 -0.27414499 344.55852494 -0.30666587 C351.81077764 -0.32783952 359.06294988 -0.33419359 366.31523123 -0.32900551 C370.49697506 -0.32644817 374.67844657 -0.33031776 378.86014175 -0.3518219 C382.69498993 -0.37139758 386.52938466 -0.37219938 390.36425444 -0.35859558 C392.39540629 -0.35612573 394.42655341 -0.37327862 396.45762658 -0.39132524 C409.93995962 -0.30396719 420.73636175 3.48036298 430.75 12.5625 C431.513125 13.408125 432.27625 14.25375 433.0625 15.125 C433.52011719 15.57875 433.97773438 16.0325 434.44921875 16.5 C454.9558178 38.02923785 453.51439548 71.84847243 453.41069686 99.39602852 C453.39761237 103.76385023 453.40213463 108.13166063 453.40440369 112.49949646 C453.40596866 120.04739219 453.39664121 127.59520948 453.37969017 135.14308548 C453.35519862 146.05572695 453.34748457 156.9683309 453.3437262 167.88099687 C453.33717755 185.59060789 453.31725969 203.30017721 453.28881836 221.00976562 C453.26123655 238.20214633 453.24002319 255.39451567 453.22729492 272.58691406 C453.22650675 273.64854246 453.22571858 274.71017086 453.22490653 275.80396982 C453.22099111 281.13041176 453.21720006 286.45685379 453.21347082 291.78329587 C453.18242439 335.89722611 453.1296321 380.01111089 453.0625 424.125 C450.4225 424.125 447.7825 424.125 445.0625 424.125 C445.0625 429.405 445.0625 434.685 445.0625 440.125 C447.7025 440.125 450.3425 440.125 453.0625 440.125 C453.18039773 444.37475959 453.25031321 448.62408905 453.3125 452.875 C453.34601562 454.06222656 453.37953125 455.24945313 453.4140625 456.47265625 C453.56964907 470.708827 448.65447103 484.82151193 438.875 495.44140625 C428.33996566 505.22718169 415.23788622 512.3661149 400.64415455 512.38226891 C399.9271791 512.38577498 399.21020365 512.38928105 398.47150168 512.39289337 C396.07449494 512.40218034 393.67773261 512.3972911 391.28071594 512.39242554 C389.54255911 512.39616317 387.80440395 512.40076514 386.06625146 512.40615618 C381.29375082 512.41838777 376.52132028 512.41812552 371.74880755 512.41576743 C366.60003938 512.4153593 361.4512937 512.42639808 356.30253601 512.43588257 C346.21620353 512.45249473 336.12989442 512.45799223 326.0435494 512.45910732 C317.84396777 512.46005775 309.64439386 512.4641678 301.44481468 512.47050858 C278.19451878 512.48812205 254.94424133 512.49734735 231.69393871 512.49584763 C229.81383627 512.49572776 229.81383627 512.49572776 227.89575195 512.49560547 C226.64081876 512.49552371 225.38588556 512.49544195 224.09292408 512.49535771 C203.75775182 512.49454491 183.42265365 512.51368065 163.08750281 512.5418822 C142.20458881 512.57061472 121.32171094 512.58442227 100.43877667 512.58269465 C88.71581372 512.58203085 76.99292843 512.58751886 65.26998329 512.60905075 C55.28804514 512.62726741 45.30621984 512.63160589 35.32427225 512.6180319 C30.23316306 512.61150459 25.14227035 512.61137663 20.05118179 512.6287384 C15.38578459 512.64448455 10.72077524 512.64158966 6.0553874 512.62417014 C4.37235081 512.62110364 2.68928516 512.62471938 1.00628284 512.63589029 C-14.94651625 512.73471954 -30.15592764 509.07808462 -42.25390625 497.9375 C-52.03968169 487.40246566 -59.1786149 474.30038622 -59.19476891 459.70665455 C-59.19827498 458.9896791 -59.20178105 458.27270365 -59.20539337 457.53400168 C-59.21468034 455.13699494 -59.2097911 452.74023261 -59.20492554 450.34321594 C-59.20866317 448.60505911 -59.21326514 446.86690395 -59.21865618 445.12875146 C-59.23088777 440.35625082 -59.23062552 435.58382028 -59.22826743 430.81130755 C-59.2278593 425.66253938 -59.23889808 420.5137937 -59.24838257 415.36503601 C-59.26499473 405.27870353 -59.27049223 395.19239442 -59.27160732 385.1060494 C-59.27255775 376.90646777 -59.2766678 368.70689386 -59.28300858 360.50731468 C-59.30062205 337.25701878 -59.30984735 314.00674133 -59.30834763 290.75643871 C-59.30826772 289.50303708 -59.3081878 288.24963545 -59.30810547 286.95825195 C-59.30802371 285.70331876 -59.30794195 284.44838556 -59.30785771 283.15542408 C-59.30704491 262.82025182 -59.32618065 242.48515365 -59.3543822 222.15000281 C-59.38311472 201.26708881 -59.39692227 180.38421094 -59.39519465 159.50127667 C-59.39453085 147.77831372 -59.40001886 136.05542843 -59.42155075 124.33248329 C-59.43976741 114.35054514 -59.44410589 104.36871984 -59.4305319 94.38677225 C-59.42400459 89.29566306 -59.42387663 84.20477035 -59.4412384 79.11368179 C-59.45698455 74.44828459 -59.45408966 69.78327524 -59.43667014 65.1178874 C-59.43360364 63.43485081 -59.43721938 61.75178516 -59.44839029 60.06878284 C-59.54721954 44.11598375 -55.89058462 28.90657236 -44.75 16.80859375 C-37.74637481 10.30307121 -29.88397372 5.460535 -20.9375 2.125 C-19.96167969 1.75375 -18.98585937 1.3825 -17.98046875 1 C-12.16299284 -0.60673144 -5.97712184 -0.08149196 0 0 Z " fill="#5BD6F8" transform="translate(58.9375,-0.125)"/>
<path d="M0 0 C6.37786124 5.76460535 11.32760162 12.68985001 16.4140625 19.578125 C18.01636873 21.84959644 18.01636873 21.84959644 19.234375 23.01953125 C24.8819839 23.69309928 28.53758955 21.72986705 33.359375 19.14453125 C34.06191406 18.77972656 34.76445312 18.41492188 35.48828125 18.0390625 C36.82837852 17.34241458 38.1661085 16.64118637 39.50097656 15.93457031 C41.3977791 14.9332723 43.31001913 13.96675305 45.234375 13.01953125 C44.21180548 16.88257164 42.69006861 18.59827796 39.609375 20.95703125 C36.6089162 23.36881847 36.6089162 23.36881847 35.609375 27.14453125 C36.30999083 30.36736407 36.90302743 31.70272431 39.234375 34.01953125 C42.42034162 34.72077899 42.42034162 34.72077899 45.921875 34.76953125 C47.69111328 34.85460937 47.69111328 34.85460937 49.49609375 34.94140625 C50.39972656 34.9671875 51.30335938 34.99296875 52.234375 35.01953125 C47.34414544 46.01691386 41.41738329 52.56739206 31.4921875 59.35546875 C29.14343086 60.82252616 29.14343086 60.82252616 28.234375 63.01953125 C28.05839783 64.93523675 27.9360142 66.85597789 27.83984375 68.77734375 C27.09861772 81.97551121 26.29601121 94.38165204 22.234375 107.01953125 C21.7226295 108.70832523 21.21091269 110.3971279 20.69921875 112.0859375 C17.20239667 123.32950281 12.87919688 133.70000537 7.234375 144.01953125 C6.60108407 145.22110213 5.96826527 146.42292198 5.3359375 147.625 C-15.33390705 186.11880246 -54.96101345 214.67328272 -96.26953125 227.32714844 C-142.76440531 240.22420075 -191.57412545 235.25074821 -234.03759766 212.15258789 C-235.765625 211.01953125 -235.765625 211.01953125 -236.765625 209.01953125 C-235.15107422 208.11074219 -235.15107422 208.11074219 -233.50390625 207.18359375 C-213.03126707 196.31091608 -213.03126707 196.31091608 -197.765625 180.01953125 C-197.09731729 176.68956415 -197.09731729 176.68956415 -197.765625 173.01953125 C-199.71177706 170.51733575 -202.18844613 168.83608441 -204.765625 167.01953125 C-219.82721942 156.22844988 -219.82721942 156.22844988 -225.765625 150.01953125 C-225.765625 149.35953125 -225.765625 148.69953125 -225.765625 148.01953125 C-224.79625 147.29765625 -223.826875 146.57578125 -222.828125 145.83203125 C-220.10391348 143.65007984 -219.7708713 143.03712179 -218.703125 139.45703125 C-218.77399606 135.55912306 -219.04310494 134.69796192 -221.765625 132.01953125 C-224.9907929 130.91487568 -224.9907929 130.91487568 -228.703125 130.20703125 C-239.67261803 127.60815427 -249.41613703 122.62554817 -255.765625 113.01953125 C-263.765625 99.57483185 -263.765625 99.57483185 -263.765625 96.01953125 C-261.75390625 94.6875 -261.75390625 94.6875 -259.078125 93.20703125 C-253.96449577 90.21563058 -249.79783612 87.77209425 -247.640625 82.01953125 C-247.51308181 78.8889188 -247.51308181 78.8889188 -249.578125 76.26953125 C-253.21431462 73.70280916 -255.75052784 73.28500367 -260.05859375 72.61328125 C-265.40413516 71.44081041 -270.87779145 68.9073648 -274.765625 65.01953125 C-275.36577573 62.83142189 -275.87354557 60.61744848 -276.328125 58.39453125 C-276.57691406 57.20601563 -276.82570313 56.0175 -277.08203125 54.79296875 C-278.56711384 46.59531286 -278.89282197 38.84055638 -278.828125 30.51953125 C-278.82361328 29.4109375 -278.81910156 28.30234375 -278.81445312 27.16015625 C-278.80275658 24.44655726 -278.78636586 21.73307364 -278.765625 19.01953125 C-278.31904541 19.40334961 -277.87246582 19.78716797 -277.41235352 20.18261719 C-243.3569936 49.41835101 -205.03161969 70.02737272 -159.078125 70.33203125 C-158.37743896 70.33759033 -157.67675293 70.34314941 -156.95483398 70.34887695 C-153.34530618 70.29602815 -151.85351969 70.07812771 -148.765625 68.01953125 C-148.02728083 65.58365726 -148.02728083 65.58365726 -147.703125 62.70703125 C-147.46335938 61.08474609 -147.46335938 61.08474609 -147.21875 59.4296875 C-146.92654521 57.23059454 -146.64452119 55.03011315 -146.375 52.828125 C-143.46488087 30.86750381 -131.92020325 10.32380707 -114.66796875 -3.68359375 C-79.56525464 -29.70296781 -33.53117484 -27.92484784 0 0 Z " fill="#FCFDF8" transform="translate(366.765625,149.98046875)"/>
<path d="M0 0 C7.63689108 6.06954015 15.53526147 12.8252189 21.1484375 20.87890625 C21.1484375 21.53890625 21.1484375 22.19890625 21.1484375 22.87890625 C31.96897866 19.31117901 40.67748407 13.35484073 47.80859375 4.4453125 C50.09970843 1.76677901 51.39618882 1.85493032 55.0234375 1.50390625 C58.30069718 1.56349279 58.96531345 1.73240701 61.6484375 3.87890625 C65.63809683 11.8582249 61.96407482 21.57884993 60.1484375 29.87890625 C60.91542969 29.83636719 61.68242187 29.79382813 62.47265625 29.75 C65.1484375 29.87890625 65.1484375 29.87890625 67.9609375 31.94140625 C70.74888861 35.68522631 70.50323367 37.26655609 70.1484375 41.87890625 C69.48824156 44.84715002 68.57583016 47.69298066 67.5859375 50.56640625 C67.31563721 51.35660156 67.04533691 52.14679688 66.7668457 52.9609375 C62.79513262 64.13130948 56.48337772 76.2536226 46.37011719 83.07910156 C43.3076218 85.24448639 41.47322912 86.81593368 40.35546875 90.47412109 C39.88869806 93.6119148 39.61091293 96.71381977 39.3984375 99.87890625 C39.18668711 102.13973891 38.97057439 104.40016743 38.75 106.66015625 C38.65106445 107.74039063 38.55212891 108.820625 38.45019531 109.93359375 C37.85821026 115.71167438 36.61809977 121.26078821 35.1484375 126.87890625 C34.91350586 127.81114014 34.91350586 127.81114014 34.67382812 128.76220703 C27.02655974 158.69935826 11.5156388 185.63456204 -9.8515625 207.87890625 C-10.30547363 208.36391602 -10.75938477 208.84892578 -11.22705078 209.34863281 C-41.8386435 241.98069218 -83.80454766 261.21432341 -127.8515625 266.87890625 C-129.11613281 267.0696875 -130.38070312 267.26046875 -131.68359375 267.45703125 C-177.00705097 272.95842446 -225.18613024 259.57432475 -262.19921875 233.25390625 C-264.79138394 231.09683262 -264.84738248 229.92405047 -265.1640625 226.50390625 C-264.8515625 222.87890625 -264.8515625 222.87890625 -263.31640625 220.87890625 C-260.17948203 218.33357313 -256.77661124 216.84384446 -253.1015625 215.25390625 C-246.86312737 212.43853272 -240.9607519 209.33312649 -235.1640625 205.69140625 C-234.51791992 205.28776855 -233.87177734 204.88413086 -233.20605469 204.46826172 C-229.15397113 201.87395286 -225.49068901 199.02610783 -221.8515625 195.87890625 C-225.599156 192.01839091 -229.54628282 188.52507306 -233.6640625 185.06640625 C-248.7360921 172.25794153 -248.7360921 172.25794153 -250.8515625 166.87890625 C-250.55403754 163.90365664 -250.19035653 161.5564943 -248.8515625 158.87890625 C-249.625 158.45480469 -250.3984375 158.03070313 -251.1953125 157.59375 C-264.77387628 149.9474053 -270.90086403 142.53027807 -277.8515625 128.87890625 C-278.38523437 127.85410156 -278.38523437 127.85410156 -278.9296875 126.80859375 C-285.58291458 113.94899813 -285.58291458 113.94899813 -284.8515625 105.87890625 C-282.3515625 102.87890625 -282.3515625 102.87890625 -279.8515625 100.87890625 C-280.59921875 100.52441406 -281.346875 100.16992188 -282.1171875 99.8046875 C-287.70023299 96.78662757 -291.34407894 94.37318102 -293.3515625 88.19140625 C-293.90927285 85.76645977 -294.40426354 83.32662557 -294.8515625 80.87890625 C-295.0671582 79.88093018 -295.0671582 79.88093018 -295.28710938 78.86279297 C-297.77821692 67.29731836 -298.13969547 55.72780601 -298.1640625 43.94140625 C-298.16944031 42.89212952 -298.16944031 42.89212952 -298.17492676 41.82165527 C-298.24484572 16.46785007 -298.24484572 16.46785007 -291.8515625 9.87890625 C-288.4140625 8.81640625 -288.4140625 8.81640625 -284.8515625 8.87890625 C-281.30872101 11.31842152 -278.78963644 14.01456511 -276.2265625 17.44140625 C-248.65280058 52.53997049 -207.73570323 67.49168351 -164.8515625 72.87890625 C-164.87476563 72.25129395 -164.89796875 71.62368164 -164.921875 70.97705078 C-165.04369601 65.2068683 -164.57180299 60.25600877 -162.8515625 54.75390625 C-162.63081055 54.03235352 -162.41005859 53.31080078 -162.18261719 52.56738281 C-153.55306082 25.7445263 -135.29743983 4.60595006 -110.8515625 -9.12109375 C-101.23852362 -14.03127252 -91.35118083 -16.89563117 -80.8515625 -19.12109375 C-79.94148437 -19.31574219 -79.03140625 -19.51039062 -78.09375 -19.7109375 C-50.41610801 -23.21232594 -22.49649408 -16.73369354 0 0 Z M-128.2109375 24 C-141.12622542 38.79107973 -148.57293419 57.35978279 -150.16943359 76.78857422 C-150.77856946 83.90559872 -150.77856946 83.90559872 -152.8515625 86.87890625 C-167.7819443 94.34409715 -197.25729028 84.60020474 -211.8828125 79.95703125 C-237.52733605 71.31412468 -259.22650454 57.09045701 -278.83984375 38.6796875 C-280.52574954 36.76774558 -280.52574954 36.76774558 -281.8515625 36.87890625 C-282.6245364 60.81936633 -282.6245364 60.81936633 -276.8515625 83.87890625 C-272.43143023 87.98047043 -266.44223474 90.21648913 -260.5859375 91.296875 C-254.34176389 92.47521099 -254.34176389 92.47521099 -251.7265625 94.62890625 C-250.46985738 97.8604337 -250.77788058 99.59075538 -251.8515625 102.87890625 C-255.77469104 107.94100759 -261.35931097 110.77551752 -266.8515625 113.87890625 C-263.24187062 125.85652023 -256.91772077 136.06670956 -246.1015625 142.51953125 C-239.99280022 145.79662768 -234.16306681 147.79392937 -227.34765625 149.04296875 C-224.29834604 150.06417749 -223.38059214 151.08252655 -221.8515625 153.87890625 C-221.78827406 157.3597706 -221.8569855 159.77992614 -224.265625 162.44140625 C-225.73267773 163.665109 -227.28805256 164.78112267 -228.8515625 165.87890625 C-224.92247895 175.20002998 -213.82134944 181.21596216 -205.7578125 186.8125 C-202.8515625 188.87890625 -202.8515625 188.87890625 -200.8515625 190.87890625 C-200.2758671 195.15550065 -200.34672168 197.17618327 -202.89453125 200.72265625 C-206.08716312 204.33814953 -209.76313662 207.2299275 -213.6015625 210.12890625 C-214.33366943 210.68666748 -215.06577637 211.24442871 -215.82006836 211.8190918 C-223.44284598 217.51040868 -231.54174331 222.27158472 -239.8515625 226.87890625 C-236.24832888 231.19885937 -231.79106206 233.08354858 -226.7890625 235.37890625 C-225.99306641 235.75660156 -225.19707031 236.13429688 -224.37695312 236.5234375 C-184.23838806 255.25691373 -135.54787201 257.84907017 -93.8515625 242.87890625 C-91.97404297 242.25242187 -91.97404297 242.25242187 -90.05859375 241.61328125 C-68.80539552 234.32700638 -49.81033188 222.49436989 -32.8515625 207.87890625 C-31.40136719 206.63173828 -31.40136719 206.63173828 -29.921875 205.359375 C-16.87268601 193.90092808 -6.74563459 180.75061392 2.1484375 165.87890625 C2.51952637 165.26466797 2.89061523 164.65042969 3.27294922 164.01757812 C15.24282858 143.90773931 23.66856799 118.48160855 24.3125 95.0234375 C24.33932861 94.17370361 24.36615723 93.32396973 24.39379883 92.44848633 C24.43764474 90.77038359 24.45930051 89.09151362 24.45581055 87.4128418 C24.55538403 83.23379908 24.71994787 81.42106155 27.38671875 78.046875 C29.91266474 76.06398953 32.43767361 74.09561896 35.0234375 72.19140625 C41.62873543 66.98603714 46.23197353 60.77298901 49.1484375 52.87890625 C48.24480469 52.853125 47.34117187 52.82734375 46.41015625 52.80078125 C44.64091797 52.71570313 44.64091797 52.71570313 42.8359375 52.62890625 C41.66417969 52.5825 40.49242187 52.53609375 39.28515625 52.48828125 C36.1484375 51.87890625 36.1484375 51.87890625 34.2734375 50.0078125 C32.61306231 46.86578306 32.3900859 45.39490002 33.1484375 41.87890625 C35.07672879 39.90347895 37.09439555 38.24755153 39.30078125 36.58984375 C41.39567281 34.64996531 41.59548362 33.60119473 42.1484375 30.87890625 C40.48554687 31.71035156 40.48554687 31.71035156 38.7890625 32.55859375 C34.57552083 34.66536458 30.36197917 36.77213542 26.1484375 38.87890625 C25.47014893 39.24064941 24.79186035 39.60239258 24.09301758 39.97509766 C21.25228931 41.29542108 19.2378626 41.29781135 16.1484375 40.87890625 C14.05859375 38.97265625 14.05859375 38.97265625 12.2109375 36.37890625 C11.19773437 35.01185547 11.19773437 35.01185547 10.1640625 33.6171875 C9.16632813 32.26173828 9.16632813 32.26173828 8.1484375 30.87890625 C4.36464756 26.33679477 0.43624051 21.95231911 -3.8515625 17.87890625 C-4.30402344 17.43160156 -4.75648438 16.98429687 -5.22265625 16.5234375 C-13.34760738 8.96581463 -24.3434103 3.26570638 -34.8515625 -0.12109375 C-35.98464844 -0.49234375 -37.11773437 -0.86359375 -38.28515625 -1.24609375 C-70.49641165 -10.9447306 -105.24971526 0.01947117 -128.2109375 24 Z " fill="#020303" transform="translate(369.8515625,132.12109375)"/>
<path d="M0 0 C1.88428711 0.01353516 1.88428711 0.01353516 3.80664062 0.02734375 C6.89200959 0.05080663 9.97727986 0.08667428 13.0625 0.125 C13.0625 5.405 13.0625 10.685 13.0625 16.125 C11.46921875 16.13917969 9.8759375 16.15335938 8.234375 16.16796875 C-8.05731379 16.23028152 -8.05731379 16.23028152 -22.9375 22.125 C-23.68773437 22.58132812 -24.43796875 23.03765625 -25.2109375 23.5078125 C-33.91688009 29.43044259 -38.98003912 38.14682046 -41.9375 48.125 C-42.62765946 53.81333168 -42.61062047 59.43697938 -42.56568909 65.15965271 C-42.57074188 66.86429449 -42.57797634 68.56893095 -42.58718723 70.27355534 C-42.60603251 74.93037588 -42.59391952 79.58666782 -42.5764643 84.2434746 C-42.56305182 89.27630678 -42.57854134 94.30906357 -42.59028625 99.34188843 C-42.60863866 109.19064332 -42.60016634 119.03919944 -42.58219803 128.88794809 C-42.56815583 136.89481128 -42.56428272 144.90162062 -42.5676403 152.90849495 C-42.56811775 154.04933986 -42.56859519 155.19018478 -42.5690871 156.36560075 C-42.57011346 158.68342885 -42.57116882 161.00125694 -42.57225286 163.31908501 C-42.58081518 183.80236264 -42.56416054 204.2855445 -42.53442383 224.76879883 C-42.50559141 244.62951684 -42.49850173 264.49009688 -42.51391602 284.35083008 C-42.5306905 305.993669 -42.53469935 327.63644246 -42.51720566 349.27928311 C-42.51536133 351.58875182 -42.5135266 353.89822055 -42.51170158 356.20768929 C-42.51078949 357.34389772 -42.5098774 358.48010615 -42.50893768 359.65074513 C-42.50333976 367.6443001 -42.50663256 375.63782304 -42.51324654 383.63137627 C-42.52099126 393.37822656 -42.5141862 403.12494121 -42.4890715 412.87176424 C-42.47660252 417.84150473 -42.47039833 422.81103433 -42.48161316 427.7807827 C-42.49169875 432.33626529 -42.48310438 436.89132849 -42.46003198 441.4467603 C-42.45489867 443.08860693 -42.45638725 444.73049153 -42.46542663 446.3723213 C-42.53784423 460.727527 -40.56449305 474.071732 -30.27734375 484.8671875 C-22.86158442 491.65792839 -13.82653932 495.37248871 -3.7799654 495.37947559 C-3.07903956 495.38268207 -2.37811373 495.38588855 -1.65594772 495.38919219 C0.69247975 495.39749274 3.04065222 495.39156775 5.38908386 495.38569641 C7.08996683 495.38871709 8.79084844 495.39260615 10.49172765 495.39728898 C15.16580816 495.40758887 19.83981213 495.40538207 24.51389897 495.40110838 C29.55495925 495.39864472 34.59600094 495.40765096 39.63705444 495.41514587 C49.5139731 495.42790576 59.39086459 495.42968489 69.2677901 495.42734561 C77.29673266 495.42556341 85.32566696 495.42730999 93.35460854 495.43157005 C94.49684384 495.43216524 95.63907914 495.43276043 96.81592763 495.43337366 C99.13633638 495.4345854 101.45674514 495.43579953 103.77715389 495.43701603 C125.54720731 495.44789694 147.31724526 495.44572671 169.08729956 495.43963119 C188.99964119 495.43446386 208.91193386 495.44571164 228.8242658 495.46472941 C249.26982787 495.4841067 269.71536678 495.49236385 290.16093808 495.48860615 C301.63962337 495.48669365 313.11826701 495.48918633 324.59694481 495.50332069 C334.37104792 495.5152342 344.14508377 495.51663984 353.91918781 495.50453053 C358.90481699 495.49864112 363.89032314 495.49754412 368.87594414 495.50953293 C373.44381968 495.52038934 378.01146944 495.51729115 382.57933442 495.50327124 C384.22806116 495.50062362 385.87680559 495.50299292 387.52551498 495.51100711 C401.66490888 495.5749429 414.01710989 494.00665571 425.06640625 484.37890625 C432.39553804 476.76484061 435.93088631 466.47543296 436.37890625 456.04296875 C436.42080078 455.11162109 436.46269531 454.18027344 436.50585938 453.22070312 C436.56483398 451.78114258 436.56483398 451.78114258 436.625 450.3125 C436.66818359 449.33345703 436.71136719 448.35441406 436.75585938 447.34570312 C436.86152166 444.93895102 436.96247465 442.53199297 437.0625 440.125 C442.3425 440.125 447.6225 440.125 453.0625 440.125 C453.17149248 444.37570653 453.25030541 448.6235556 453.3125 452.875 C453.34601562 454.06222656 453.37953125 455.24945313 453.4140625 456.47265625 C453.56964907 470.708827 448.65447103 484.82151193 438.875 495.44140625 C428.33996566 505.22718169 415.23788622 512.3661149 400.64415455 512.38226891 C399.9271791 512.38577498 399.21020365 512.38928105 398.47150168 512.39289337 C396.07449494 512.40218034 393.67773261 512.3972911 391.28071594 512.39242554 C389.54255911 512.39616317 387.80440395 512.40076514 386.06625146 512.40615618 C381.29375082 512.41838777 376.52132028 512.41812552 371.74880755 512.41576743 C366.60003938 512.4153593 361.4512937 512.42639808 356.30253601 512.43588257 C346.21620353 512.45249473 336.12989442 512.45799223 326.0435494 512.45910732 C317.84396777 512.46005775 309.64439386 512.4641678 301.44481468 512.47050858 C278.19451878 512.48812205 254.94424133 512.49734735 231.69393871 512.49584763 C229.81383627 512.49572776 229.81383627 512.49572776 227.89575195 512.49560547 C226.64081876 512.49552371 225.38588556 512.49544195 224.09292408 512.49535771 C203.75775182 512.49454491 183.42265365 512.51368065 163.08750281 512.5418822 C142.20458881 512.57061472 121.32171094 512.58442227 100.43877667 512.58269465 C88.71581372 512.58203085 76.99292843 512.58751886 65.26998329 512.60905075 C55.28804514 512.62726741 45.30621984 512.63160589 35.32427225 512.6180319 C30.23316306 512.61150459 25.14227035 512.61137663 20.05118179 512.6287384 C15.38578459 512.64448455 10.72077524 512.64158966 6.0553874 512.62417014 C4.37235081 512.62110364 2.68928516 512.62471938 1.00628284 512.63589029 C-14.94651625 512.73471954 -30.15592764 509.07808462 -42.25390625 497.9375 C-52.03968169 487.40246566 -59.1786149 474.30038622 -59.19476891 459.70665455 C-59.19827498 458.9896791 -59.20178105 458.27270365 -59.20539337 457.53400168 C-59.21468034 455.13699494 -59.2097911 452.74023261 -59.20492554 450.34321594 C-59.20866317 448.60505911 -59.21326514 446.86690395 -59.21865618 445.12875146 C-59.23088777 440.35625082 -59.23062552 435.58382028 -59.22826743 430.81130755 C-59.2278593 425.66253938 -59.23889808 420.5137937 -59.24838257 415.36503601 C-59.26499473 405.27870353 -59.27049223 395.19239442 -59.27160732 385.1060494 C-59.27255775 376.90646777 -59.2766678 368.70689386 -59.28300858 360.50731468 C-59.30062205 337.25701878 -59.30984735 314.00674133 -59.30834763 290.75643871 C-59.30826772 289.50303708 -59.3081878 288.24963545 -59.30810547 286.95825195 C-59.30802371 285.70331876 -59.30794195 284.44838556 -59.30785771 283.15542408 C-59.30704491 262.82025182 -59.32618065 242.48515365 -59.3543822 222.15000281 C-59.38311472 201.26708881 -59.39692227 180.38421094 -59.39519465 159.50127667 C-59.39453085 147.77831372 -59.40001886 136.05542843 -59.42155075 124.33248329 C-59.43976741 114.35054514 -59.44410589 104.36871984 -59.4305319 94.38677225 C-59.42400459 89.29566306 -59.42387663 84.20477035 -59.4412384 79.11368179 C-59.45698455 74.44828459 -59.45408966 69.78327524 -59.43667014 65.1178874 C-59.43360364 63.43485081 -59.43721938 61.75178516 -59.44839029 60.06878284 C-59.54721954 44.11598375 -55.89058462 28.90657236 -44.75 16.80859375 C-37.74637481 10.30307121 -29.88397372 5.460535 -20.9375 2.125 C-19.96167969 1.75375 -18.98585937 1.3825 -17.98046875 1 C-12.16299284 -0.60673144 -5.97712184 -0.08149196 0 0 Z " fill="#000000" transform="translate(58.9375,-0.125)"/>
<path d="M0 0 C43.87407259 -0.09128634 87.74813263 -0.16205727 131.62228157 -0.20426132 C136.80417745 -0.20926403 141.98607315 -0.21444133 147.16796875 -0.21972656 C148.19957374 -0.2207758 149.23117872 -0.22182505 150.29404446 -0.22290608 C166.98900482 -0.24030262 183.68390998 -0.27183619 200.37883762 -0.30861118 C217.51440016 -0.34604148 234.64993383 -0.36824027 251.78553557 -0.37635398 C262.35576672 -0.38183741 272.92584183 -0.39914499 283.49602494 -0.43166587 C290.74827764 -0.45283952 298.00044988 -0.45919359 305.25273123 -0.45400551 C309.43447506 -0.45144817 313.61594657 -0.45531776 317.79764175 -0.4768219 C321.63248993 -0.49639758 325.46688466 -0.49719938 329.30175444 -0.48359558 C331.33290629 -0.48112573 333.36405341 -0.49827862 335.39512658 -0.51632524 C348.87745962 -0.42896719 359.67386175 3.35536298 369.6875 12.4375 C370.450625 13.283125 371.21375 14.12875 372 15 C372.45761719 15.45375 372.91523438 15.9075 373.38671875 16.375 C393.8933178 37.90423785 392.45189548 71.72347243 392.34819686 99.27102852 C392.33511237 103.63885023 392.33963463 108.00666063 392.34190369 112.37449646 C392.34346866 119.92239219 392.33414121 127.47020948 392.31719017 135.01808548 C392.29269862 145.93072695 392.28498457 156.8433309 392.2812262 167.75599687 C392.27467755 185.46560789 392.25475969 203.17517721 392.22631836 220.88476562 C392.19873655 238.07714633 392.17752319 255.26951567 392.16479492 272.46191406 C392.16400675 273.52354246 392.16321858 274.58517086 392.16240653 275.67896982 C392.15849111 281.00541176 392.15470006 286.33185379 392.15097082 291.65829587 C392.11992439 335.77222639 392.06690741 379.88611038 392 424 C386.72 424 381.44 424 376 424 C375.99503478 421.35424942 375.99503478 421.35424942 375.98996925 418.65504932 C375.91082563 376.71577511 375.82155835 334.77653248 375.71994839 292.8373064 C375.70743062 287.66700978 375.69499768 282.49671296 375.68261719 277.32641602 C375.6789182 275.78254973 375.6789182 275.78254973 375.67514448 274.20749422 C375.63550059 257.57685074 375.60271636 240.94620053 375.57250018 224.31553755 C375.54130499 207.23075857 375.50266158 190.14600794 375.45720994 173.06126088 C375.4294314 162.5325837 375.40735268 152.00392708 375.39273749 141.47522327 C375.3821352 134.23971916 375.36425019 127.00425503 375.34083296 119.76878116 C375.32756367 115.60424549 375.31731806 111.43976545 375.31578636 107.27520752 C376.63907148 64.03736872 376.63907148 64.03736872 359.16015625 25.8515625 C350.31450188 17.27724722 339.4612828 16.4106977 327.69355774 16.48101807 C326.27337439 16.47513195 324.85319741 16.46749927 323.43303174 16.458287 C319.55843292 16.43814193 315.68420264 16.44255021 311.80957568 16.45119452 C307.62086781 16.45615877 303.43225023 16.43803045 299.24357605 16.42277527 C291.99568387 16.39950691 284.74789162 16.39071278 277.49996376 16.39188385 C267.02083487 16.39355586 256.54183886 16.37319017 246.06274547 16.34752855 C229.05917078 16.30648427 212.05562005 16.28314396 195.05200195 16.27099609 C178.53928322 16.25916089 162.02660958 16.23895119 145.51391602 16.20751953 C143.98592222 16.20461538 143.98592222 16.20461538 142.42705987 16.20165256 C137.31648421 16.19188771 132.20590888 16.18195865 127.0953337 16.17194796 C84.73024395 16.08917468 42.36515379 16.03545409 0 16 C0 10.72 0 5.44 0 0 Z " fill="#000000" transform="translate(120,0)"/>
<path d="M0 0 C5.28 0 10.56 0 16 0 C16 2.64 16 5.28 16 8 C21.28 8 26.56 8 32 8 C32 10.64 32 13.28 32 16 C33.07922705 15.99772168 33.07922705 15.99772168 34.18025666 15.99539733 C76.83502207 15.90585984 119.48977724 15.83724103 162.14461781 15.79573868 C167.26771737 15.79073593 172.39081674 15.78555864 177.51391602 15.78027344 C178.53382085 15.7792242 179.55372569 15.77817495 180.60453673 15.77709392 C197.11264371 15.75969484 213.62069489 15.72815987 230.12876878 15.69138882 C247.07109434 15.65396559 264.0133907 15.63176122 280.95575589 15.62364602 C291.40775923 15.61816113 301.85960485 15.60084558 312.31155964 15.56833413 C319.48157505 15.5471692 326.65150908 15.54080444 333.82155345 15.54599449 C337.95659341 15.54855319 342.09135803 15.5446667 346.22634888 15.5231781 C350.01735314 15.50362163 353.80789855 15.50278834 357.59892454 15.51640442 C359.60894456 15.51887781 361.6189597 15.50170758 363.62890035 15.48367476 C374.70553811 15.55638729 383.81828533 17.7915219 391.9296875 25.59765625 C399.24641522 34.08782143 404.72566137 44.63130516 404 56 C403.27296875 55.43732422 403.27296875 55.43732422 402.53125 54.86328125 C400.37286054 53.21543391 398.19268596 51.60191047 396 50 C395.38769531 49.54753906 394.77539062 49.09507813 394.14453125 48.62890625 C383.07332222 41.05138365 370.7503655 40.4153187 357.80712891 40.49206543 C356.09750146 40.4874483 354.38787799 40.48108996 352.67826271 40.47315645 C348.01237105 40.4565515 343.34680919 40.46466904 338.68091679 40.47710133 C333.63651933 40.48618587 328.5921769 40.47216526 323.54779053 40.46118164 C313.67848065 40.44342809 303.8092927 40.4472223 293.93997812 40.4588322 C285.9164572 40.46787871 277.89297036 40.46908526 269.8694458 40.46473694 C268.15421862 40.46381754 268.15421862 40.46381754 266.40434039 40.46287957 C264.08111683 40.46160062 261.75789327 40.46030377 259.43466973 40.4589892 C237.66784172 40.44759267 215.90108118 40.46068258 194.13426423 40.48219067 C175.47163717 40.50006079 156.80910964 40.49695642 138.14648438 40.47851562 C116.4556661 40.45709256 94.7649069 40.44869122 73.07407951 40.46096468 C70.75957108 40.46223883 68.44506265 40.46349631 66.1305542 40.46473694 C64.99187665 40.46535404 63.85319909 40.46597114 62.68001616 40.46660694 C54.66941444 40.47005553 46.6588503 40.4642421 38.64825439 40.45481873 C28.88130612 40.44358142 19.11448639 40.44667524 9.34755278 40.4679417 C4.36767474 40.47842875 -0.61198926 40.48261399 -5.59186554 40.46934509 C-10.15655296 40.45736673 -14.7208293 40.46407294 -19.28547978 40.4852553 C-20.93066418 40.48969839 -22.57588378 40.48750711 -24.22104526 40.47775215 C-38.68486551 40.39861359 -51.40059088 42.7204727 -63 52 C-65.31419636 54.34028231 -67.45571548 56.73055831 -69.5390625 59.27734375 C-70.02117187 59.84582031 -70.50328125 60.41429687 -71 61 C-71.33 61 -71.66 61 -72 61 C-72.87841091 48.8974497 -70.31883845 39.2408932 -62.59375 29.7421875 C-57.76768535 24.46663644 -52.62468284 20.72416865 -46 18 C-45.18402344 17.63648437 -44.36804688 17.27296875 -43.52734375 16.8984375 C-38.23774816 15.55114294 -33.05803793 15.79180861 -27.625 15.875 C-25.94857422 15.88853516 -25.94857422 15.88853516 -24.23828125 15.90234375 C-21.49196538 15.92581654 -18.74609528 15.95865272 -16 16 C-16 13.36 -16 10.72 -16 8 C-10.72 8 -5.44 8 0 8 C0 5.36 0 2.72 0 0 Z " fill="#9BE9FE" transform="translate(88,0)"/>
<path d="M0 0 C0.99 1.0209375 0.99 1.0209375 2 2.0625 C2.99655361 3.04517404 3.99696553 4.02394201 5 5 C5.55816406 5.55429687 6.11632812 6.10859375 6.69140625 6.6796875 C16.06767231 15.48828818 27.54956257 20.24272377 40.39804363 20.25726891 C41.45199513 20.26252802 41.45199513 20.26252802 42.52723858 20.26789337 C44.86945103 20.27715877 47.21141218 20.27229675 49.55363464 20.26742554 C51.25481868 20.27116426 52.956001 20.27576666 54.65718061 20.28115618 C59.32287759 20.29337428 63.9885028 20.29312711 68.65421212 20.29076743 C73.6898249 20.29035896 78.72541477 20.30140132 83.76101685 20.31088257 C93.62362398 20.32748724 103.4862072 20.33299188 113.34882715 20.33410732 C121.36721688 20.33505809 129.38559874 20.33916982 137.40398598 20.34550858 C160.1452704 20.36311986 182.88653596 20.37234767 205.62782725 20.37084763 C206.85351779 20.37076772 208.07920834 20.3706878 209.34204102 20.37060547 C211.1828258 20.37048283 211.1828258 20.37048283 213.06079815 20.37035771 C232.9458084 20.36954494 252.83074288 20.3886807 272.71573123 20.4168822 C293.14102681 20.44562103 313.56628545 20.45942193 333.99160177 20.45769465 C345.45580547 20.45703107 356.91992974 20.46250916 368.38411522 20.48405075 C378.14568255 20.5022757 387.90713445 20.50659907 397.66871145 20.4930319 C402.64653837 20.48650882 407.62414393 20.48636129 412.60194969 20.5037384 C417.16497209 20.5195033 421.72759825 20.51657066 426.29061119 20.49917014 C427.93527797 20.49610775 429.57997459 20.49970374 431.22460618 20.51089029 C446.02223859 20.60482036 461.63854836 18.23812639 472.6484375 7.390625 C474.23861343 5.61484494 475.79909867 3.81176352 477.3203125 1.9765625 C477.87460937 1.32429688 478.42890625 0.67203125 479 0 C479.33 0 479.66 0 480 0 C480.95226284 11.71812328 477.65044511 22.99221786 470 32 C461.48223397 40.88887201 451.85289602 44.93438577 439.53241534 45.23339074 C435.79457559 45.28187282 432.05746741 45.28032293 428.31938171 45.27415466 C426.61662159 45.278611 424.91386354 45.28392635 423.21110851 45.29002339 C418.54574395 45.30416581 413.88044613 45.30586739 409.21506321 45.30542648 C404.17812107 45.30707796 399.14120615 45.32015049 394.10427856 45.33161926 C383.09815882 45.35444064 372.09205839 45.36238646 361.08591819 45.36744571 C354.21134196 45.37070536 347.33677132 45.37722938 340.46219826 45.3844471 C321.42047525 45.4040075 302.37875743 45.42041558 283.33702374 45.42332363 C281.51034081 45.42360499 281.51034081 45.42360499 279.64675521 45.42389202 C277.17813162 45.42425827 274.70950803 45.42462197 272.24088445 45.42498314 C271.01549658 45.42516595 269.79010872 45.42534876 268.52758789 45.42553711 C267.30070123 45.42571766 266.07381457 45.42589821 264.80974952 45.42608423 C244.92411125 45.42962687 225.0385812 45.45665743 205.15298047 45.494035 C184.72652764 45.53212142 164.30012853 45.55148112 143.8736394 45.55178314 C132.40890194 45.55236755 120.94429366 45.56084948 109.47958946 45.58978081 C99.71909968 45.61429884 89.95878624 45.62157448 80.19827398 45.60653328 C75.22051575 45.5993668 70.24310572 45.60021092 65.26538658 45.62294388 C60.70361817 45.64357735 56.14246471 45.64089282 51.58070264 45.62006903 C49.93540775 45.61658255 48.29006808 45.62144833 46.64483186 45.63577347 C32.19772886 45.75340237 21.13067118 42.41496537 10.35546875 32.484375 C3.35021913 25.17763363 -0.19596909 14.69768138 -0.0625 4.6875 C-0.05347656 3.80449219 -0.04445313 2.92148437 -0.03515625 2.01171875 C-0.02355469 1.34785156 -0.01195312 0.68398438 0 0 Z " fill="#51AEF3" transform="translate(16,451)"/>
<path d="M0 0 C1.66119478 5.09296941 -0.04798937 9.46953177 -1.375 14.5 C-1.77948364 16.03346069 -1.77948364 16.03346069 -2.19213867 17.59790039 C-5.05573202 27.93514451 -9.14372367 37.45708999 -14 47 C-14.35964844 47.71236816 -14.71929687 48.42473633 -15.08984375 49.15869141 C-23.12197964 64.82209193 -33.81892256 78.36575748 -46 91 C-46.763125 91.82628906 -47.52625 92.65257812 -48.3125 93.50390625 C-71.47253932 117.8767179 -104.49938352 134.43803803 -137 142 C-137.85078125 142.19899902 -138.7015625 142.39799805 -139.578125 142.60302734 C-163.96019317 148.04354365 -191.57952651 148.51707854 -216 143 C-216.77617676 142.82839355 -217.55235352 142.65678711 -218.35205078 142.47998047 C-239.54155247 137.65968114 -259.56571151 129.70392163 -278 118.1875 C-278.60626221 117.81447754 -279.21252441 117.44145508 -279.8371582 117.05712891 C-281.5 115.98046875 -281.5 115.98046875 -284 114 C-284 113.01 -284 112.02 -284 111 C-281.41909233 109.68253667 -278.83549542 108.37090383 -276.25 107.0625 C-275.52039063 106.68931641 -274.79078125 106.31613281 -274.0390625 105.93164062 C-273.33007812 105.57392578 -272.62109375 105.21621094 -271.890625 104.84765625 C-271.24125977 104.51773682 -270.59189453 104.18781738 -269.92285156 103.84790039 C-266.78474901 102.46412307 -264.98396216 101.70921566 -261.60009766 102.70922852 C-260.71370605 103.09522217 -259.82731445 103.48121582 -258.9140625 103.87890625 C-257.91238037 104.30292725 -256.91069824 104.72694824 -255.87866211 105.16381836 C-254.26809937 105.85616577 -254.26809937 105.85616577 -252.625 106.5625 C-212.52767886 123.10991212 -167.83594856 126.44425785 -126 114 C-125.22398437 113.7736084 -124.44796875 113.5472168 -123.6484375 113.31396484 C-97.97886087 105.69456661 -74.3148999 93.5512121 -54 76 C-53.20851563 75.31808594 -52.41703125 74.63617188 -51.6015625 73.93359375 C-49.02663351 71.66326992 -46.506263 69.34589201 -44 67 C-43.05125 66.11699219 -42.1025 65.23398437 -41.125 64.32421875 C-22.73953211 46.81869786 -8.60629725 23.83891539 0 0 Z " fill="#51AEF2" transform="translate(398,278)"/>
<path d="M0 0 C0.79165892 1.11745702 1.5317598 2.27149612 2.25 3.4375 C6.08518592 8.81249872 11.29967994 11.67985798 16.85546875 15.01953125 C19.30643003 16.56318016 21.1250456 17.83868893 23 20 C22.34 20.99 21.68 21.98 21 23 C20.8765085 28.31013431 23.31478964 31.06927235 26.74609375 34.765625 C31.02099991 39.00348692 35.48760373 43.01799388 40 47 C35.06175844 48.90390036 31.09431992 46.47052675 26.4609375 44.5859375 C11.60890725 37.78015389 5.60221191 29.12937788 -1.11767578 14.87060547 C-1.87607456 13.2627329 -2.65305153 11.6636466 -3.43359375 10.06640625 C-6.12889566 4.38668699 -6.12889566 4.38668699 -5 1 C-2 0 -2 0 0 0 Z " fill="#51ADF1" transform="translate(99,272)"/>
<path d="M0 0 C0.66 0.33 1.32 0.66 2 1 C-2.39478735 15.63319305 -7.55434831 28.30080385 -19 39 C-20.485 39.495 -20.485 39.495 -22 40 C-22.07481128 18.80436227 -22.07481128 18.80436227 -17.37109375 13.19921875 C-14.5107667 10.43605685 -11.2763119 8.24589288 -8 6 C-7.10925781 5.10539063 -6.21851563 4.21078125 -5.30078125 3.2890625 C-3 1 -3 1 0 0 Z " fill="#50ABEE" transform="translate(430,203)"/>
<path d="M0 0 C5.28 0 10.56 0 16 0 C16 5.28 16 10.56 16 16 C10.72 16 5.44 16 0 16 C0 10.72 0 5.44 0 0 Z " fill="#000000" transform="translate(88,0)"/>
<path d="M0 0 C2.5724287 1.84673303 4.68210662 4.03792678 6.85546875 6.33203125 C5.27587222 7.62826504 3.69163462 8.91884452 2.10546875 10.20703125 C1.22375 10.92632812 0.34203125 11.645625 -0.56640625 12.38671875 C-3.14453125 14.33203125 -3.14453125 14.33203125 -7.14453125 16.33203125 C-9.78453125 13.69203125 -12.42453125 11.05203125 -15.14453125 8.33203125 C-12.54304559 5.73054559 -10.28938895 3.96164836 -7.20703125 2.01953125 C-6.35238281 1.46652344 -5.49773437 0.91351563 -4.6171875 0.34375 C-2.14453125 -0.66796875 -2.14453125 -0.66796875 0 0 Z " fill="#50ADEF" transform="translate(142.14453125,321.66796875)"/>
<path d="M0 0 C3.3 1.98 6.6 3.96 10 6 C9.01 6.99 8.02 7.98 7 9 C6.34 9 5.68 9 5 9 C4.77915376 15.09781001 4.98832325 20.21642935 7 26 C6.01 25.67 5.02 25.34 4 25 C0.81674763 17.10988728 0.4560634 8.39156664 0 0 Z " fill="#4FA9EA" transform="translate(81,227)"/>
<path d="M0 0 C1.35390985 4.34419996 0.75090827 7.83815522 -1 12 C-3.125 13.5 -3.125 13.5 -5 14 C-3.46527032 9.27775484 -1.76054874 4.64144669 0 0 Z " fill="#499DDA" transform="translate(398,278)"/>
<path d="M0 0 C0.33 0 0.66 0 1 0 C1 4.29 1 8.58 1 13 C0.01 13 -0.98 13 -2 13 C-1.34 8.71 -0.68 4.42 0 0 Z " fill="#52B8F3" transform="translate(503,427)"/>
<path d="M0 0 C0.33 0 0.66 0 1 0 C2.09845718 4.32059823 3.17812739 8.61667943 4 13 C3.01 12.67 2.02 12.34 1 12 C-0.61729417 8.32433144 -0.06546005 3.92760325 0 0 Z " fill="#4492CB" transform="translate(84,240)"/>
</svg>
