<?xml version="1.0" standalone="no"?>
<!DOCTYPE svg PUBLIC "-//W3C//DTD SVG 20010904//EN"
 "http://www.w3.org/TR/2001/REC-SVG-20010904/DTD/svg10.dtd">
<svg version="1.0" xmlns="http://www.w3.org/2000/svg"
 width="50.000000pt" height="50.000000pt" viewBox="0 0 50.000000 50.000000"
 preserveAspectRatio="xMidYMid meet">

<g transform="translate(0.000000,50.000000) scale(0.100000,-0.100000)"
fill="#000000" stroke="none">
<path d="M102 468 c-17 -17 -17 -419 0 -436 8 -8 59 -12 165 -12 204 0 204 19
1 22 -128 3 -153 5 -153 18 0 13 25 15 153 18 87 1 152 7 152 12 0 5 -65 11
-152 12 -128 3 -153 5 -153 18 0 13 25 15 153 18 l152 3 0 169 0 170 -153 0
c-106 0 -157 -4 -165 -12z m258 -73 l0 -25 -105 0 -105 0 0 25 0 25 105 0 105
0 0 -25z"/>
</g>
</svg>
