<?xml version="1.0" encoding="UTF-8"?>
<svg version="1.1" xmlns="http://www.w3.org/2000/svg" width="48" height="48">
<path d="M0 0 C2.31 0 4.62 0 7 0 C7 1.32 7 2.64 7 4 C6.01 4 5.02 4 4 4 C4 4.66 4 5.32 4 6 C9.61 6 15.22 6 21 6 C21 4.02 21 2.04 21 0 C23.31 0 25.62 0 28 0 C28 1.32 28 2.64 28 4 C27.01 4 26.02 4 25 4 C25 4.66 25 5.32 25 6 C26.11375 5.95875 27.2275 5.9175 28.375 5.875 C32 6 32 6 34 8 C34.25878906 10.85742187 34.25878906 10.85742187 34.265625 14.46875 C34.26949219 16.40814453 34.26949219 16.40814453 34.2734375 18.38671875 C34.26715332 19.39871338 34.26715332 19.39871338 34.26074219 20.43115234 C34.2500407 22.49216157 34.26063943 24.55229919 34.2734375 26.61328125 C34.27085938 27.90621094 34.26828125 29.19914062 34.265625 30.53125 C34.26336914 31.72298828 34.26111328 32.91472656 34.25878906 34.14257812 C34 37 34 37 32 39 C29.29864677 39.19973733 26.70202789 39.27981573 24 39.265625 C23.20851563 39.26753845 22.41703125 39.2694519 21.6015625 39.27142334 C19.9270801 39.27278518 18.25258715 39.26908882 16.578125 39.26074219 C14.01017619 39.2500424 11.44292697 39.26063725 8.875 39.2734375 C7.24999845 39.2721159 5.62499734 39.26955351 4 39.265625 C2.84371094 39.27169769 2.84371094 39.27169769 1.6640625 39.27789307 C-3.77007868 39.22992132 -3.77007868 39.22992132 -6 37 C-6.25878906 34.14257812 -6.25878906 34.14257812 -6.265625 30.53125 C-6.26820312 29.23832031 -6.27078125 27.94539063 -6.2734375 26.61328125 C-6.26924805 25.93861816 -6.26505859 25.26395508 -6.26074219 24.56884766 C-6.2500407 22.50783843 -6.26063943 20.44770081 -6.2734375 18.38671875 C-6.27085938 17.09378906 -6.26828125 15.80085938 -6.265625 14.46875 C-6.26336914 13.27701172 -6.26111328 12.08527344 -6.25878906 10.85742188 C-6 8 -6 8 -4 6 C-2.68 6 -1.36 6 0 6 C0 4.02 0 2.04 0 0 Z M2 19 C1.67 20.32 1.34 21.64 1 23 C3.475 23.495 3.475 23.495 6 24 C6.33 22.68 6.66 21.36 7 20 C5.35 19.67 3.7 19.34 2 19 Z M12 19 C11.67 20.32 11.34 21.64 11 23 C13.475 23.495 13.475 23.495 16 24 C16.33 22.68 16.66 21.36 17 20 C15.35 19.67 13.7 19.34 12 19 Z M22 19 C21.67 20.32 21.34 21.64 21 23 C23.475 23.495 23.475 23.495 26 24 C26.33 22.68 26.66 21.36 27 20 C25.35 19.67 23.7 19.34 22 19 Z M2 28 C1.67 29.32 1.34 30.64 1 32 C3.475 32.495 3.475 32.495 6 33 C6.33 31.68 6.66 30.36 7 29 C5.35 28.67 3.7 28.34 2 28 Z M12 28 C11.67 29.32 11.34 30.64 11 32 C13.475 32.495 13.475 32.495 16 33 C16.33 31.68 16.66 30.36 17 29 C15.35 28.67 13.7 28.34 12 28 Z M22 28 C21.67 29.32 21.34 30.64 21 32 C23.475 32.495 23.475 32.495 26 33 C26.33 31.68 26.66 30.36 27 29 C25.35 28.67 23.7 28.34 22 28 Z " fill="#000000" transform="translate(10,4)"/>
</svg>
