<?xml version="1.0" encoding="UTF-8"?>
<svg version="1.1" xmlns="http://www.w3.org/2000/svg" width="465" height="503">
<path d="M0 0 C1.48997372 0.01049598 1.48997372 0.01049598 3.01004791 0.02120399 C4.14588821 0.02679832 5.28172852 0.03239265 6.45198822 0.03815651 C8.33776329 0.05521896 8.33776329 0.05521896 10.26163483 0.07262611 C11.57690659 0.08062737 12.89217834 0.08862862 14.24730682 0.09687233 C17.86501253 0.11912566 21.48264188 0.14778626 25.1002903 0.17782736 C28.87813065 0.20840876 32.65600487 0.23408156 36.43387604 0.26052284 C42.77932572 0.30575888 49.12473212 0.35524346 55.47013092 0.40709877 C62.81652198 0.4670711 70.16293872 0.51984367 77.50941038 0.56886709 C83.8058142 0.61106848 90.10218115 0.65712332 96.39853334 0.70643198 C100.16394023 0.73591753 103.92934435 0.76405058 107.69478607 0.78873253 C111.89030482 0.81649113 116.08571604 0.85233091 120.28116608 0.88903236 C121.53834946 0.89635887 122.79553284 0.90368538 124.09081268 0.9112339 C125.22665298 0.92246788 126.36249329 0.93370186 127.53275299 0.94527626 C128.5260688 0.95302763 129.51938461 0.960779 130.5428009 0.96876526 C132.77140045 1.11022377 132.77140045 1.11022377 133.77140045 2.11022377 C133.87089779 4.11986193 133.89939706 6.13303666 133.90079498 8.14513588 C133.90394714 9.44257225 133.9070993 10.74000862 133.91034698 12.07676125 C133.90855254 13.513697 133.90650046 14.95063246 133.90421295 16.38756752 C133.90488763 17.87084913 133.90585902 19.35413064 133.90711212 20.83741188 C133.90859281 23.97075881 133.9064303 27.10407739 133.90177155 30.23742104 C133.89619591 34.17162816 133.89937395 38.10576591 133.90520382 42.0399704 C133.92358266 56.58087317 133.88236769 71.11239929 133.3456192 85.64538002 C133.30949524 86.6501992 133.27337128 87.65501839 133.23615265 88.69028664 C131.94396123 119.10937603 124.81871298 150.48155273 109.77140045 177.11022377 C109.41433014 177.75282143 109.05725983 178.39541908 108.6893692 179.0574894 C103.80892907 187.77502469 98.40025299 195.59675832 91.77140045 203.11022377 C90.64024811 204.40573158 90.64024811 204.40573158 89.4862442 205.72741127 C87.27889496 208.21872482 85.03497616 210.66999878 82.77140045 213.11022377 C82.19518951 213.7521769 81.61897858 214.39413002 81.0253067 215.05553627 C69.9534083 226.84254615 56.08309152 235.79824432 41.77140045 243.11022377 C40.80677887 243.61779213 40.80677887 243.61779213 39.82266998 244.1356144 C-6.36193095 268.28412355 -63.51208145 270.62965487 -114.22859955 263.11022377 C-115.10081146 262.98695717 -115.97302338 262.86369057 -116.87166595 262.73668861 C-138.56229648 259.5339013 -161.18968926 251.95023059 -180.22859955 241.11022377 C-181.22504486 240.58428627 -182.22149017 240.05834877 -183.2481308 239.51647377 C-221.72565361 218.50063802 -247.6089042 181.28052026 -259.90584564 139.8868351 C-269.00862218 107.52470879 -268.50095971 74.4110129 -268.35359955 41.11022377 C-268.31234955 27.91022377 -268.27109955 14.71022377 -268.22859955 1.11022377 C-222.35859955 1.11022377 -176.48859955 1.11022377 -129.22859955 1.11022377 C-128.20645324 5.19880899 -128.08380938 8.87837619 -128.08675385 13.0496769 C-128.08327942 13.84718864 -128.07980499 14.64470039 -128.07622528 15.46637917 C-128.06887802 17.19874311 -128.06352715 18.9311164 -128.05993462 20.6634922 C-128.05273088 23.42498657 -128.03702819 26.18630714 -128.01859283 28.94774818 C-127.96635821 36.80021986 -127.91833305 44.65260227 -127.90267181 52.5052433 C-127.89245375 57.3146838 -127.86277469 62.12369386 -127.82135201 66.93296242 C-127.8092166 68.74735152 -127.80388796 70.56180197 -127.80615044 72.37623024 C-127.82722446 94.82706838 -124.56159151 118.70689144 -109.3418808 136.28991127 C-104.86405147 140.67391941 -99.82122208 143.6402175 -94.29109955 146.48522377 C-93.6472934 146.81933266 -93.00348724 147.15344154 -92.34017181 147.49767494 C-83.87400394 151.61265833 -75.16776449 152.48305425 -65.85359955 152.42272377 C-64.93457855 152.41708412 -64.01555756 152.41144447 -63.06868744 152.40563393 C-47.73452532 152.1322205 -34.59576069 147.16161833 -23.41609955 136.46569252 C-4.97705589 116.61079372 -4.18546725 87.26960397 -3.96823883 61.69140816 C-3.94687037 59.19486455 -3.91989446 56.69843338 -3.89156342 54.20195961 C-3.82243394 48.01864862 -3.76203896 41.83525991 -3.70253754 35.65184975 C-3.65168422 30.38942103 -3.59697748 25.1270625 -3.53672028 19.86473274 C-3.51013549 17.40233354 -3.48934941 14.93992748 -3.46871185 12.47747231 C-3.45212448 10.98298247 -3.43525405 9.48849573 -3.41805267 7.99401283 C-3.4055246 6.68531227 -3.39299652 5.37661171 -3.38008881 4.02825356 C-3.17912525 0.15723559 -3.17912525 0.15723559 0 0 Z " fill="#FFFFFF" transform="translate(302.22859954833984,217.8897762298584)"/>
<path d="M0 0 C0.82405838 -0.00511093 1.64811676 -0.01022186 2.49714661 -0.01548767 C5.19226562 -0.0292663 7.88712557 -0.02843597 10.58227539 -0.02612305 C12.47359815 -0.0300161 14.36492005 -0.03435201 16.25624084 -0.03910828 C20.2092676 -0.04654504 24.16220499 -0.04629748 28.11523438 -0.04101562 C33.15976702 -0.03522093 38.20393251 -0.05216447 43.2484045 -0.0753603 C47.15110888 -0.0901506 51.05372588 -0.09096221 54.95645332 -0.08785057 C56.81543264 -0.08836101 58.67441721 -0.0935461 60.53336906 -0.10366249 C83.97764218 -0.21561581 83.97764218 -0.21561581 93.42211914 7.4699707 C100.04147159 14.03250467 103.43255254 21.46232706 103.53570557 30.74853516 C103.53434601 31.98301392 103.53434601 31.98301392 103.53295898 33.24243164 C103.53967621 34.12457336 103.54639343 35.00671509 103.55331421 35.91558838 C103.57225702 38.82179453 103.57621676 41.72776921 103.57836914 44.6340332 C103.58480044 46.66416517 103.59152905 48.69429622 103.59854126 50.72442627 C103.61050531 54.97784573 103.61422306 59.23118404 103.61303711 63.48461914 C103.61283416 68.91605767 103.64011605 74.34697159 103.67458153 79.77828598 C103.69689886 83.97180538 103.70087314 88.16519959 103.69981766 92.35877228 C103.70216711 94.36010798 103.71095342 96.36144747 103.72648239 98.3627243 C103.89693024 122.60131902 103.89693024 122.60131902 95.14047241 131.68681335 C84.34799592 140.71548042 73.00039413 140.14820747 59.64086914 140.03637695 C57.55205059 140.03788212 55.46323262 140.04131888 53.37442017 140.04658508 C49.01535672 140.05089802 44.65703784 140.03421559 40.2980957 140.00195312 C34.73207671 139.96212527 29.16744876 139.9715059 23.60138512 139.99618816 C19.29455303 140.0104185 14.98804192 140.00024784 10.68123245 139.98267555 C8.62968336 139.9768581 6.57810097 139.97807989 4.52656174 139.98670006 C-15.83158313 140.04378253 -15.83158313 140.04378253 -23.75756836 134.2746582 C-24.68569336 133.6765332 -25.61381836 133.0784082 -26.57006836 132.4621582 C-33.23837946 125.7938471 -35.94665333 118.03330509 -36.05084229 108.73982239 C-36.04993591 107.92978256 -36.04902954 107.11974274 -36.0480957 106.28515625 C-36.05481293 105.41262207 -36.06153015 104.54008789 -36.06845093 103.64111328 C-36.08736064 100.772809 -36.09135158 97.90473959 -36.09350586 95.03637695 C-36.0999387 93.03009446 -36.10666743 91.0238129 -36.11367798 89.01753235 C-36.12563321 84.81716742 -36.12936061 80.61688464 -36.12817383 76.41650391 C-36.12797075 71.05347282 -36.1552693 65.6909723 -36.18971825 60.32806683 C-36.21203527 56.18516149 -36.21600989 52.04238287 -36.21495438 47.8994236 C-36.21730323 45.92320745 -36.22608614 43.94698742 -36.24161911 41.97083092 C-36.33571029 28.7638952 -36.17399246 18.03882244 -26.60522461 7.9621582 C-19.09682925 1.10459627 -9.80427612 -0.03212462 0 0 Z " fill="#F6921D" transform="translate(69.757568359375,34.725341796875)"/>
<path d="M0 0 C1.22320953 -0.00503792 1.22320953 -0.00503792 2.47113037 -0.01017761 C5.15484154 -0.01964102 7.83849 -0.02162844 10.5222168 -0.02270508 C12.39780197 -0.02592101 14.2733869 -0.02928533 16.14897156 -0.03279114 C20.07702211 -0.03877098 24.00505069 -0.04063223 27.93310547 -0.04003906 C32.94971369 -0.03993754 37.96618006 -0.05358466 42.98275471 -0.07081127 C46.85624327 -0.08196712 50.72969793 -0.08395716 54.60320091 -0.08342934 C56.45183997 -0.08460424 58.30048004 -0.08899836 60.14910316 -0.0967617 C62.74273036 -0.10663361 65.33605472 -0.10365531 67.9296875 -0.09765625 C68.68271652 -0.10327576 69.43574554 -0.10889526 70.21159363 -0.11468506 C80.35880241 -0.05548057 87.99885931 2.3175217 95.65893555 9.14526367 C102.60176146 17.00425631 103.97224899 25.71450428 103.91772461 35.91870117 C103.92298157 37.15719818 103.92298157 37.15719818 103.92834473 38.42071533 C103.93706939 41.12065307 103.93134592 43.82032377 103.92456055 46.52026367 C103.92590986 48.41398163 103.92785261 50.30769924 103.93035889 52.20141602 C103.93329761 56.15864378 103.92905291 60.11578088 103.91967773 64.07299805 C103.908284 69.1265281 103.91485019 74.17984565 103.92682266 79.23336792 C103.93407514 83.14031555 103.93173781 87.04721341 103.92656708 90.9541626 C103.92523994 92.81675238 103.92684522 94.67934678 103.93152618 96.54193115 C103.93664738 99.15201664 103.92880334 101.76176553 103.91772461 104.37182617 C103.9237973 105.50832611 103.9237973 105.50832611 103.92999268 106.66778564 C103.84740031 117.25583212 101.34949585 124.25480078 93.9909668 131.87182617 C87.27385654 138.11243662 80.16681175 139.59724841 71.26464844 139.54931641 C70.36110123 139.55617966 69.45755402 139.56304291 68.52662659 139.57011414 C65.56145183 139.58830655 62.59680999 139.58455548 59.6315918 139.57885742 C57.5570814 139.58342278 55.48257251 139.5887294 53.4080658 139.59474182 C49.06820517 139.60365805 44.72852871 139.60126662 40.38867188 139.59130859 C34.84282607 139.57981978 29.29761708 139.60003701 23.7518549 139.62922573 C19.47000631 139.64762124 15.1883094 139.64728859 10.9064312 139.64158821 C8.86241195 139.64143541 6.81838215 139.6474452 4.77440071 139.65987968 C1.91007293 139.67485156 -0.95309007 139.66406725 -3.81738281 139.64697266 C-4.65142639 139.65664062 -5.48546997 139.66630859 -6.3447876 139.67626953 C-14.63891085 139.57324907 -21.64658296 136.51981304 -27.77075195 130.92260742 C-34.12841886 123.72674065 -35.48827552 116.61556478 -35.51806641 107.296875 C-35.5279232 105.9570607 -35.5279232 105.9570607 -35.53797913 104.59017944 C-35.55767939 101.6358837 -35.56936819 98.68163874 -35.5793457 95.72729492 C-35.58342123 94.71616827 -35.58749676 93.70504162 -35.59169579 92.66327477 C-35.61254376 87.31018657 -35.62685033 81.9571239 -35.63623047 76.60400391 C-35.64728508 71.08724697 -35.68167792 65.57089445 -35.72140217 60.05428028 C-35.74760355 55.80162326 -35.7559255 51.54906204 -35.75951195 47.29633141 C-35.76436969 45.26345784 -35.7759604 43.23058833 -35.79454994 41.19779396 C-35.81901355 38.34508251 -35.81796303 35.4934102 -35.81103516 32.640625 C-35.82384521 31.80964798 -35.83665527 30.97867096 -35.84985352 30.12251282 C-35.77288823 21.37604149 -32.30465594 14.30039127 -26.3996582 7.93823242 C-18.60967661 1.15340974 -9.9994776 -0.00596972 0 0 Z " fill="#F6921D" transform="translate(332.341064453125,34.854736328125)"/>
</svg>
