<?xml version="1.0" encoding="UTF-8"?>
<svg version="1.1" xmlns="http://www.w3.org/2000/svg" width="213" height="213">
<path d="M0 0 C70.29 0 140.58 0 213 0 C213 70.29 213 140.58 213 213 C142.71 213 72.42 213 0 213 C0 142.71 0 72.42 0 0 Z " fill="#FCFDFD" transform="translate(0,0)"/>
<path d="M0 0 C2.69105198 2.17574416 4.45532928 3.91065856 6 7 C6.18704404 9.69013339 6.08581391 12.29686177 6 15 C5.67 15.33 5.34 15.66 5 16 C5.020625 17.258125 5.04125 18.51625 5.0625 19.8125 C5.11520348 23.07426001 4.85699164 25.21451254 3 28 C6.60316171 29.58370437 10.19690791 31.10162077 13.90234375 32.4296875 C14.56556641 32.66816406 15.22878906 32.90664063 15.91210938 33.15234375 C17.25644403 33.63200028 18.60280482 34.10601758 19.95117188 34.57421875 C26.19134101 36.83786885 32.90994016 39.30845209 36.1796875 45.44140625 C36.77302183 46.8031489 37.33657207 48.17812865 37.875 49.5625 C38.18888672 50.31974365 38.50277344 51.0769873 38.82617188 51.85717773 C39.92282772 54.55771926 40.9644217 57.27545345 42 60 C42.65597168 61.69962891 42.65597168 61.69962891 43.32519531 63.43359375 C44.74208423 67.13429038 46.12726156 70.84521377 47.5 74.5625 C48.16878174 76.34539429 48.16878174 76.34539429 48.85107422 78.16430664 C51.20159594 84.71759815 52.64372273 90.02877539 52 97 C51 98 51 98 48.77514648 98.11352539 C47.33764038 98.10567017 47.33764038 98.10567017 45.87109375 98.09765625 C44.31938477 98.09282227 44.31938477 98.09282227 42.73632812 98.08789062 C41.64771484 98.07951172 40.55910156 98.07113281 39.4375 98.0625 C37.7987793 98.05573242 37.7987793 98.05573242 36.12695312 98.04882812 C33.41791505 98.03699826 30.70898401 98.02051543 28 98 C27.67 99.98 27.34 101.96 27 104 C28.093125 103.979375 29.18625 103.95875 30.3125 103.9375 C34 104 34 104 37 105 C37 105.66 37 106.32 37 107 C38.1446875 107.0928125 38.1446875 107.0928125 39.3125 107.1875 C42 108 42 108 43.8125 110.0625 C45.34134826 113.84438781 45.61822585 116.9733974 45 121 C42.86111111 125.56944444 42.86111111 125.56944444 40 127 C37.96767366 127.08527628 35.93252994 127.10716135 33.8984375 127.09765625 C32.68671875 127.09443359 31.475 127.09121094 30.2265625 127.08789062 C28.95554687 127.07951172 27.68453125 127.07113281 26.375 127.0625 C25.09625 127.05798828 23.8175 127.05347656 22.5 127.04882812 C19.33328708 127.03701203 16.16666644 127.02053815 13 127 C12.95464111 127.59063232 12.90928223 128.18126465 12.86254883 128.78979492 C12.28431199 135.42883446 11.1125971 141.80818321 9.6875 148.3125 C9.23805491 150.41243387 8.79017129 152.51270247 8.34375 154.61328125 C8.11945313 155.66854004 7.89515625 156.72379883 7.6640625 157.81103516 C5.98999779 165.85023856 4.50513256 173.92778067 3 182 C-0.3 182 -3.6 182 -7 182 C-7 163.85 -7 145.7 -7 127 C-21.97258769 127.1576535 -21.97258769 127.1576535 -36.94458008 127.36035156 C-38.84455457 127.37205198 -40.74453923 127.38224059 -42.64453125 127.390625 C-44.08233948 127.4213208 -44.08233948 127.4213208 -45.54919434 127.45263672 C-52.70968653 127.45626918 -58.43614873 125.81670775 -65 123 C-67.8178559 142.31262213 -70.40230732 161.65682486 -73 181 C-73.99 181.33 -74.98 181.66 -76 182 C-76.33 182.99 -76.66 183.98 -77 185 C-79.31 184.67 -81.62 184.34 -84 184 C-83.34 183.01 -82.68 182.02 -82 181 C-82.33 180.67 -82.66 180.34 -83 180 C-83.15128872 178.6558167 -83.23791782 177.30425506 -83.29711914 175.95288086 C-83.33704987 175.0886853 -83.37698059 174.22448975 -83.41812134 173.33410645 C-83.45674286 172.38724976 -83.49536438 171.44039307 -83.53515625 170.46484375 C-83.60009781 168.99778992 -83.60009781 168.99778992 -83.66635132 167.50109863 C-83.80489876 164.31346757 -83.93498352 161.12559061 -84.0625 157.9375 C-84.10569366 156.86388214 -84.14888733 155.79026428 -84.19338989 154.68411255 C-84.44437478 148.36998282 -84.67978161 142.0554234 -84.90246582 135.74023438 C-84.98814141 133.33316838 -85.07870161 130.92635377 -85.17089844 128.51953125 C-85.29018622 125.15857632 -85.37528942 121.79991254 -85.4375 118.4375 C-85.47174072 117.52669678 -85.50598145 116.61589355 -85.54125977 115.67749023 C-85.57040254 111.48462417 -85.29664689 108.82935896 -82.66015625 105.47265625 C-78.99933761 102.06986888 -76.13657263 101.83477657 -71.3125 101.4375 C-69.82169922 101.31181641 -69.82169922 101.31181641 -68.30078125 101.18359375 C-67.54152344 101.12300781 -66.78226563 101.06242187 -66 101 C-66.66 100.01 -67.32 99.02 -68 98 C-69.18401358 90.00790835 -65.5820469 83.99352014 -62 77 C-61.34 77 -60.68 77 -60 77 C-59.35312193 79.72892283 -58.70746282 82.45812447 -58.0625 85.1875 C-57.88009766 85.95642578 -57.69769531 86.72535156 -57.50976562 87.51757812 C-56.60879887 91.33440092 -55.73362003 95.14656426 -55 99 C-52.69 99 -50.38 99 -48 99 C-47.7525 98.113125 -47.505 97.22625 -47.25 96.3125 C-46 93 -46 93 -43.75 90.6875 C-41.68490095 87.51609788 -41.89062208 86.82585554 -42.625 83.25 C-43.15702268 80.93632307 -43.15702268 80.93632307 -44 79 C-44.99 78.505 -44.99 78.505 -46 78 C-45.67 78.99 -45.34 79.98 -45 81 C-46.875 80.6875 -46.875 80.6875 -49 80 C-51.44897847 76.32653229 -51.31537716 74.33643601 -51 70 C-50.34 69.34 -49.68 68.68 -49 68 C-51.31 67.67 -53.62 67.34 -56 67 C-53.78385227 60.8035343 -51.05846817 54.94190571 -48 49.125 C-47.66806641 48.48296631 -47.33613281 47.84093262 -46.99414062 47.17944336 C-43.2231828 40.12741884 -39.75445409 37.54019326 -32.37109375 35.015625 C-25.97865624 33.0897458 -19.49625042 31.53236522 -13 30 C-13.11455681 28.08268082 -13.24206258 26.1661325 -13.375 24.25 C-13.47941406 22.64898437 -13.47941406 22.64898437 -13.5859375 21.015625 C-13.97814774 18.15915046 -14.37629997 16.36375378 -16 14 C-16.99 13.67 -17.98 13.34 -19 13 C-17.68 12.67 -16.36 12.34 -15 12 C-15.495 10.8553125 -15.495 10.8553125 -16 9.6875 C-17 7 -17 7 -17 4 C-16.071875 3.71125 -15.14375 3.4225 -14.1875 3.125 C-3.42356621 -0.67403545 -3.42356621 -0.67403545 0 0 Z " fill="#3860AA" transform="translate(134,14)"/>
<path d="M0 0 C4.66396122 1.55465374 7.62956496 2.79766303 11.625 5.375 C12.54539062 5.96023437 13.46578125 6.54546875 14.4140625 7.1484375 C20.76634103 11.69674569 20.76634103 11.69674569 21.48101807 15.68292236 C21.47213562 16.70440369 21.46325317 17.72588501 21.45410156 18.77832031 C21.45364838 20.51967255 21.45364838 20.51967255 21.45318604 22.29620361 C21.43254089 23.54423767 21.41189575 24.79227173 21.390625 26.078125 C21.38496521 27.35983582 21.37930542 28.64154663 21.37347412 29.96209717 C21.35823468 33.36213628 21.31896916 36.76148694 21.2746582 40.16125488 C21.23366799 43.63345019 21.21545521 47.10575724 21.1953125 50.578125 C21.15247182 57.38572722 21.08213674 64.19275964 21 71 C28.59 71.33 36.18 71.66 44 72 C44 71.34 44 70.68 44 70 C48.29 70 52.58 70 57 70 C57 64.39 57 58.78 57 53 C53.04 53 49.08 53 45 53 C44.67 53.99 44.34 54.98 44 56 C45.0169224 44.08531217 46.65199772 32.30030176 48.5625 20.5 C48.67427582 19.80502411 48.78605164 19.11004822 48.9012146 18.39401245 C50.81039663 6.5688101 50.81039663 6.5688101 52 3 C52.66232132 3.21062576 53.32464264 3.42125153 54.0070343 3.63825989 C60.90584524 5.69497189 67.17794197 6.46496453 74.35546875 6.51171875 C75.72475525 6.53667419 75.72475525 6.53667419 77.1217041 6.56213379 C80.47674381 6.61923075 83.83216218 6.65200897 87.1875 6.6875 C94.715625 6.790625 102.24375 6.89375 110 7 C110 25.15 110 43.3 110 62 C113.3 62 116.6 62 120 62 C120.10570312 60.50210938 120.21140625 59.00421875 120.3203125 57.4609375 C120.93064773 50.76866523 122.16356422 44.22283642 123.47412109 37.63964844 C123.8728336 35.6358874 124.26328203 33.63065487 124.65234375 31.625 C126.26457744 23.37549714 128.05278586 15.17690727 130 7 C134.39534927 6.79981937 138.79127178 6.61725491 143.1875 6.4375 C145.02731445 6.35338867 145.02731445 6.35338867 146.90429688 6.26757812 C155.04006761 5.94558192 162.89278011 6.23302405 171 7 C171 11.29 171 15.58 171 20 C160.11 20 149.22 20 138 20 C138.474375 24.7025 138.94875 29.405 139.4375 34.25 C140.64810413 46.50381764 141.52296362 58.6924614 142 71 C154.87 71 167.74 71 181 71 C181.33 71.66 181.66 72.32 182 73 C119.63 73 57.26 73 -7 73 C-7 72.34 -7 71.68 -7 71 C-5.35 71 -3.7 71 -2 71 C-2 63.08 -2 55.16 -2 47 C4 49 4 49 8 51 C8 45.06 8 39.12 8 33 C6.02 32.34 4.04 31.68 2 31 C1.34 30.67 0.68 30.34 0 30 C0 20.1 0 10.2 0 0 Z " fill="#659FF9" transform="translate(17,134)"/>
<path d="M0 0 C5.28 0 10.56 0 16 0 C15.67 1.32 15.34 2.64 15 4 C15.86278564 3.99476318 16.72557129 3.98952637 17.61450195 3.98413086 C20.81811273 3.96708004 24.02170036 3.95454547 27.2253418 3.94506836 C28.61141725 3.94004223 29.99748741 3.93322034 31.38354492 3.92456055 C33.37676715 3.91241982 35.37002819 3.90728979 37.36328125 3.90234375 C38.56251221 3.89710693 39.76174316 3.89187012 40.99731445 3.88647461 C44 4 44 4 47 5 C47 5.66 47 6.32 47 7 C47.763125 7.061875 48.52625 7.12375 49.3125 7.1875 C52 8 52 8 53.8125 10.0625 C55.34134826 13.84438781 55.61822585 16.9733974 55 21 C52.86111111 25.56944444 52.86111111 25.56944444 50 27 C47.96767366 27.08527628 45.93252994 27.10716135 43.8984375 27.09765625 C42.68671875 27.09443359 41.475 27.09121094 40.2265625 27.08789062 C38.95554687 27.07951172 37.68453125 27.07113281 36.375 27.0625 C35.09625 27.05798828 33.8175 27.05347656 32.5 27.04882812 C29.33328708 27.03701203 26.16666644 27.02053815 23 27 C22.95464111 27.59063232 22.90928223 28.18126465 22.86254883 28.78979492 C22.28431199 35.42883446 21.1125971 41.80818321 19.6875 48.3125 C19.23805491 50.41243387 18.79017129 52.51270247 18.34375 54.61328125 C18.11945313 55.66854004 17.89515625 56.72379883 17.6640625 57.81103516 C15.98999779 65.85023856 14.50513256 73.92778067 13 82 C9.7 82 6.4 82 3 82 C3 63.85 3 45.7 3 27 C-11.97258769 27.1576535 -11.97258769 27.1576535 -26.94458008 27.36035156 C-28.84455457 27.37205198 -30.74453923 27.38224059 -32.64453125 27.390625 C-34.08233948 27.4213208 -34.08233948 27.4213208 -35.54919434 27.45263672 C-42.70968653 27.45626918 -48.43614873 25.81670775 -55 23 C-57.8178559 42.31262213 -60.40230732 61.65682486 -63 81 C-64.485 81.495 -64.485 81.495 -66 82 C-66.33 82.99 -66.66 83.98 -67 85 C-69.31 84.67 -71.62 84.34 -74 84 C-73.34 83.01 -72.68 82.02 -72 81 C-72.33 80.67 -72.66 80.34 -73 80 C-73.15128872 78.6558167 -73.23791782 77.30425506 -73.29711914 75.95288086 C-73.33704987 75.0886853 -73.37698059 74.22448975 -73.41812134 73.33410645 C-73.45674286 72.38724976 -73.49536438 71.44039307 -73.53515625 70.46484375 C-73.57845062 69.48680786 -73.621745 68.50877197 -73.66635132 67.50109863 C-73.80489876 64.31346757 -73.93498352 61.12559061 -74.0625 57.9375 C-74.1272905 56.32707321 -74.1272905 56.32707321 -74.19338989 54.68411255 C-74.44437478 48.36998282 -74.67978161 42.0554234 -74.90246582 35.74023438 C-74.98814141 33.33316838 -75.07870161 30.92635377 -75.17089844 28.51953125 C-75.29018622 25.15857632 -75.37528942 21.79991254 -75.4375 18.4375 C-75.47174072 17.52669678 -75.50598145 16.61589355 -75.54125977 15.67749023 C-75.54697998 14.85450439 -75.5527002 14.03151855 -75.55859375 13.18359375 C-75.57204834 12.50868896 -75.58550293 11.83378418 -75.59936523 11.13842773 C-74.63679574 7.70415229 -72.71996638 5.22162369 -70 3 C-66.76196289 2.19750977 -66.76196289 2.19750977 -62.91015625 2.12890625 C-62.18683609 2.1092128 -61.46351593 2.08951935 -60.71827698 2.06922913 C-58.14490167 2.01174798 -55.57400183 2.00434903 -53 2 C-50.88264659 1.98064715 -48.76529647 1.96093279 -46.64794922 1.94091797 C-39.57753086 1.89193972 -32.50797627 1.91233816 -25.4375 1.9375 C-22.96158945 1.94252739 -20.48567791 1.9470881 -18.00976562 1.95117188 C-12.00648836 1.96207382 -6.00324897 1.97871274 0 2 C0 1.34 0 0.68 0 0 Z " fill="#101844" transform="translate(124,114)"/>
<path d="M0 0 C7.49027039 1.40993325 14.42473455 3.74827379 21.4375 6.6875 C22.20626465 6.98978516 22.9750293 7.29207031 23.76708984 7.60351562 C31.61545066 11.02137791 34.07062849 16.58943502 37.24609375 24.21484375 C37.98618159 26.11868448 38.71632655 28.02641434 39.4375 29.9375 C39.82220459 30.94441895 40.20690918 31.95133789 40.60327148 32.98876953 C41.37788207 35.02606163 42.14789115 37.06510976 42.91308594 39.10595703 C43.89910689 41.73135964 44.90471424 44.3483519 45.9140625 46.96484375 C46.4653362 48.43422382 47.01493671 49.90423322 47.5625 51.375 C47.81378662 52.02073975 48.06507324 52.66647949 48.32397461 53.33178711 C50.09238083 58.21919201 50.52429928 62.85753863 50 68 C49 69 49 69 46.77514648 69.11352539 C45.33764038 69.10567017 45.33764038 69.10567017 43.87109375 69.09765625 C42.83662109 69.09443359 41.80214844 69.09121094 40.73632812 69.08789062 C39.64771484 69.07951172 38.55910156 69.07113281 37.4375 69.0625 C35.7987793 69.05573242 35.7987793 69.05573242 34.12695312 69.04882812 C31.41791505 69.03699826 28.70898401 69.02051543 26 69 C25.67 70.98 25.34 72.96 25 75 C17.41 75.33 9.82 75.66 2 76 C2.33 74.35 2.66 72.7 3 71 C2.67 70.34 2.34 69.68 2 69 C-0.54941373 68.68758629 -3.00361513 68.48696579 -5.5625 68.375 C-6.27341797 68.33632812 -6.98433594 68.29765625 -7.71679688 68.2578125 C-9.47742425 68.16328217 -11.23867728 68.08054183 -13 68 C-12.75878418 66.8847998 -12.75878418 66.8847998 -12.51269531 65.74707031 C-7.79057617 43.88790251 -3.11082569 22.15284963 0 0 Z " fill="#3C7BEE" transform="translate(136,43)"/>
<path d="M0 0 C2.97 0 5.94 0 9 0 C9.5744695 5.97692738 10.1439686 11.95430042 10.70898438 17.93212891 C10.90164829 19.96318156 11.09563984 21.99410876 11.29101562 24.02490234 C11.57255529 26.95377675 11.84922491 29.88307787 12.125 32.8125 C12.21249512 33.71178223 12.29999023 34.61106445 12.39013672 35.53759766 C12.47021973 36.39788574 12.55030273 37.25817383 12.6328125 38.14453125 C12.73940186 39.26371948 12.73940186 39.26371948 12.84814453 40.40551758 C13.0545115 43.93134029 13 47.46814311 13 51 C-23.63 50.505 -23.63 50.505 -61 50 C-61 47.69 -61 45.38 -61 43 C-61.78375 42.690625 -62.5675 42.38125 -63.375 42.0625 C-66 41 -66 41 -68 40 C-68 37.69 -68 35.38 -68 33 C-66.741875 32.95875 -65.48375 32.9175 -64.1875 32.875 C-63.47980469 32.85179687 -62.77210937 32.82859375 -62.04296875 32.8046875 C-60 33 -60 33 -57 35 C-57.33 34.34 -57.66 33.68 -58 33 C-44.8 33 -31.6 33 -18 33 C-18 36.63 -18 40.26 -18 44 C-19.32 44.66 -20.64 45.32 -22 46 C-21.37351563 45.84402344 -20.74703125 45.68804687 -20.1015625 45.52734375 C-19.28429687 45.33269531 -18.46703125 45.13804687 -17.625 44.9375 C-16.81289062 44.74027344 -16.00078125 44.54304688 -15.1640625 44.33984375 C-13 44 -13 44 -11 45 C-11 44.34 -11 43.68 -11 43 C-10.01 42.67 -9.02 42.34 -8 42 C-5.36 28.14 -2.72 14.28 0 0 Z " fill="#F9FBFC" transform="translate(144,154)"/>
<path d="M0 0 C0.66 0 1.32 0 2 0 C1.39305845 3.15330554 0.3583335 5.18888867 -1.5625 7.75 C-2.01753906 8.36359375 -2.47257812 8.9771875 -2.94140625 9.609375 C-3.46541016 10.29773438 -3.46541016 10.29773438 -4 11 C-3.54625 11.53625 -3.0925 12.0725 -2.625 12.625 C0.61895546 17.36616567 1.26043901 22.40046682 2 28 C2.495 29.485 2.495 29.485 3 31 C2.01 31 1.02 31 0 31 C-0.226875 31.845625 -0.45375 32.69125 -0.6875 33.5625 C-3.23077877 40.22346822 -6.75456034 44.83565957 -13.1953125 48.12109375 C-19.5920926 50.12565576 -27.94125828 50.58601422 -33.953125 47.46875 C-34.62859375 46.9840625 -35.3040625 46.499375 -36 46 C-36.28875 46.598125 -36.5775 47.19625 -36.875 47.8125 C-38 50 -38 50 -40 53 C-40.66 53 -41.32 53 -42 53 C-41.53289205 50.38419547 -41.08770959 49.1007036 -39.3125 47.0625 C-38.6628125 46.0415625 -38.6628125 46.0415625 -38 45 C-38.63921965 42.52372901 -38.63921965 42.52372901 -40 40 C-42.61606864 33.89583984 -43.15336886 27.19008686 -41.3828125 20.7578125 C-38.41760386 14.0139309 -32.94756054 9.75719955 -26.75 6.0625 C-20.45197575 4.27805979 -13.90894307 4.25954176 -7.5625 5.875 C-6.716875 5.91625 -5.87125 5.9575 -5 6 C-3.00267588 4.18170773 -1.6121761 2.1943508 0 0 Z " fill="#3BB585" transform="translate(65,62)"/>
<path d="M0 0 C15.84 0 31.68 0 48 0 C48 9.9 48 19.8 48 30 C31.83 30 15.66 30 -1 30 C-1 19.99444599 -0.58754636 9.98828816 0 0 Z " fill="#FCFDFD" transform="translate(78,154)"/>
<path d="M0 0 C7.55846434 6.61633281 8.77411453 20.56366639 11 30 C12.32 30.33 13.64 30.66 15 31 C15.66 33.97 16.32 36.94 17 40 C17.09087891 38.55367187 17.09087891 38.55367187 17.18359375 37.078125 C17.26738281 35.81484375 17.35117188 34.5515625 17.4375 33.25 C17.51871094 31.99703125 17.59992188 30.7440625 17.68359375 29.453125 C17.92515522 26.81682447 18.24283934 24.51962706 19 22 C21 23 23 24 25 25 C24.45118943 31.35219042 23.83488387 37.67873638 23 44 C21.35 44 19.7 44 18 44 C18.99 49.94 19.98 55.88 21 62 C18.36 62 15.72 62 13 62 C10.5625 59.25 10.5625 59.25 9.4296875 57.6015625 C6.71110371 54.55615443 2.75645551 53.39127982 -1 52 C-1.33 52.66 -1.66 53.32 -2 54 C-2.64757625 52.56328432 -3.29299453 51.12559584 -3.9375 49.6875 C-4.29714844 48.88699219 -4.65679687 48.08648437 -5.02734375 47.26171875 C-6 45 -6 45 -7 42 C-7.66 41.67 -8.32 41.34 -9 41 C-8.67 41.99 -8.34 42.98 -8 44 C-9.875 43.6875 -9.875 43.6875 -12 43 C-14.44897847 39.32653229 -14.31537716 37.33643601 -14 33 C-13.34 32.34 -12.68 31.68 -12 31 C-14.31 30.67 -16.62 30.34 -19 30 C-16.78385227 23.8035343 -14.05846817 17.94190571 -11 12.125 C-10.50209961 11.16194946 -10.50209961 11.16194946 -9.99414062 10.17944336 C-7.43687728 5.39713482 -5.26379619 1.75459873 0 0 Z " fill="#D1E3E3" transform="translate(97,51)"/>
<path d="M0 0 C4.66396122 1.55465374 7.62956496 2.79766303 11.625 5.375 C12.54539062 5.96023437 13.46578125 6.54546875 14.4140625 7.1484375 C20.76634103 11.69674569 20.76634103 11.69674569 21.48101807 15.68292236 C21.47213562 16.70440369 21.46325317 17.72588501 21.45410156 18.77832031 C21.45364838 20.51967255 21.45364838 20.51967255 21.45318604 22.29620361 C21.43254089 23.54423767 21.41189575 24.79227173 21.390625 26.078125 C21.38496521 27.35983582 21.37930542 28.64154663 21.37347412 29.96209717 C21.35823468 33.36213628 21.31896916 36.76148694 21.2746582 40.16125488 C21.23366799 43.63345019 21.21545521 47.10575724 21.1953125 50.578125 C21.15247182 57.38572722 21.08213674 64.19275964 21 71 C13.41 71 5.82 71 -2 71 C-2 63.08 -2 55.16 -2 47 C4 49 4 49 8 51 C8 45.06 8 39.12 8 33 C6.02 32.34 4.04 31.68 2 31 C1.34 30.67 0.68 30.34 0 30 C0 20.1 0 10.2 0 0 Z " fill="#3CB688" transform="translate(17,134)"/>
<path d="M0 0 C1.7734375 0.04296875 1.7734375 0.04296875 4 1 C5.43457899 3.44630173 6.54125208 5.7108828 7.625 8.3125 C7.95693359 9.08779053 8.28886719 9.86308105 8.63085938 10.66186523 C11.79420431 18.21398851 14.67400983 25.87892993 17.5 33.5625 C17.94553223 34.75077393 18.39106445 35.93904785 18.85009766 37.16333008 C21.2018399 43.71672253 22.64376079 49.0283633 22 56 C19.74918189 58.25081811 14.01262687 57.24651514 10.87524414 57.25976562 C4.28110301 57.1878572 -1.71741683 56.03366854 -8 54 C-8.33 51.03 -8.66 48.06 -9 45 C-5.7 45 -2.4 45 1 45 C0.6390625 44.27941406 0.278125 43.55882812 -0.09375 42.81640625 C-3.67639932 34.52655379 -4.52060399 27.02793484 -4.5625 18 C-4.57667969 16.91404541 -4.59085938 15.82809082 -4.60546875 14.70922852 C-4.52876121 8.52995674 -4.11742978 4.71498917 0 0 Z " fill="#1E419E" transform="translate(164,55)"/>
<path d="M0 0 C2.69105198 2.17574416 4.45532928 3.91065856 6 7 C6.18704404 9.69013339 6.08581391 12.29686177 6 15 C5.67 15.33 5.34 15.66 5 16 C5.03221811 17.9653048 5.06806384 19.93112096 5.16015625 21.89453125 C5 24 5 24 4.05688477 25.72436523 C2.70245786 28.64065379 2.36399698 31.3306888 1.9296875 34.515625 C1.66865234 36.39121094 1.66865234 36.39121094 1.40234375 38.3046875 C1.14130859 40.25761719 1.14130859 40.25761719 0.875 42.25 C0.69205297 43.58081823 0.50846608 44.91154867 0.32421875 46.2421875 C-0.12348504 49.49393083 -0.56256721 52.74685907 -1 56 C-6.28 56 -11.56 56 -17 56 C-17.45197395 49.78535813 -16.50400089 44.64864956 -14.9375 38.6875 C-12.94583383 30.93684012 -11.91752072 23.4313311 -14.8671875 15.73828125 C-15.9596989 13.66779449 -15.9596989 13.66779449 -19 13 C-17.68 12.67 -16.36 12.34 -15 12 C-15.495 10.8553125 -15.495 10.8553125 -16 9.6875 C-17 7 -17 7 -17 4 C-15.6078125 3.566875 -15.6078125 3.566875 -14.1875 3.125 C-3.42356621 -0.67403545 -3.42356621 -0.67403545 0 0 Z " fill="#E87048" transform="translate(134,14)"/>
<path d="M0 0 C3.03564402 3.45435354 3.46451 6.63246044 3.296875 11.06640625 C2.8633361 13.89011354 1.75180394 15.77655654 0 18 C-2.76617563 19.38308781 -5.01018 19.11210196 -8.1015625 19.09765625 C-9.31328125 19.09443359 -10.525 19.09121094 -11.7734375 19.08789062 C-13.04445312 19.07951172 -14.31546875 19.07113281 -15.625 19.0625 C-16.90375 19.05798828 -18.1825 19.05347656 -19.5 19.04882812 C-22.66671292 19.03701203 -25.83333356 19.02053815 -29 19 C-29.04535889 19.59063232 -29.09071777 20.18126465 -29.13745117 20.78979492 C-29.71568801 27.42883446 -30.8874029 33.80818321 -32.3125 40.3125 C-32.76194509 42.41243387 -33.20982871 44.51270247 -33.65625 46.61328125 C-33.99269531 48.19616943 -33.99269531 48.19616943 -34.3359375 49.81103516 C-36.01000221 57.85023856 -37.49486744 65.92778067 -39 74 C-40.65 74 -42.3 74 -44 74 C-44 71.69 -44 69.38 -44 67 C-43.34 67 -42.68 67 -42 67 C-41.94846268 66.29700272 -41.89692535 65.59400543 -41.84382629 64.8697052 C-41.35314923 58.23238076 -40.84048735 51.59716083 -40.30330372 44.96342945 C-40.02792229 41.55314859 -39.76097165 38.14264814 -39.51342773 34.73022461 C-39.22821307 30.803676 -38.90607361 26.88057409 -38.58203125 22.95703125 C-38.49846878 21.73603226 -38.41490631 20.51503326 -38.32881165 19.2570343 C-37.59474482 10.85976201 -37.59474482 10.85976201 -34.78979492 6.80493164 C-31.7372737 4.83002227 -29.33107032 3.9299922 -25.78125 3.1640625 C-24.60175781 2.90496094 -23.42226562 2.64585938 -22.20703125 2.37890625 C-20.98371094 2.13011719 -19.76039063 1.88132812 -18.5 1.625 C-16.66501953 1.21701172 -16.66501953 1.21701172 -14.79296875 0.80078125 C-4.47955939 -1.39715845 -4.47955939 -1.39715845 0 0 Z " fill="#0E1440" transform="translate(176,122)"/>
<path d="M0 0 C1.58079346 0.4844458 3.16158691 0.9688916 4.7902832 1.46801758 C10.71807218 3.07909163 16.23774569 3.47147162 22.35546875 3.51171875 C23.89694328 3.53864555 23.89694328 3.53864555 25.46955872 3.56611633 C28.70883237 3.61971988 31.94796303 3.65395343 35.1875 3.6875 C37.4017124 3.72071724 39.61590605 3.75521088 41.83007812 3.79101562 C47.21994799 3.87541706 52.60977913 3.94246447 58 4 C58 8.29 58 12.58 58 17 C41.83 17 25.66 17 9 17 C9 18.65 9 20.3 9 22 C8.67 22 8.34 22 8 22 C8 20.35 8 18.7 8 17 C4.37 17 0.74 17 -3 17 C-2.01 11.39 -1.02 5.78 0 0 Z " fill="#468AF6" transform="translate(69,137)"/>
<path d="M0 0 C0 4.29 0 8.58 0 13 C-11.22 13 -22.44 13 -34 13 C-34 14.65 -34 16.3 -34 18 C-34.33 18 -34.66 18 -35 18 C-35 16.35 -35 14.7 -35 13 C-37.64 13 -40.28 13 -43 13 C-42.34 8.71 -41.68 4.42 -41 0 C-12.58542141 -1.33257403 -12.58542141 -1.33257403 0 0 Z " fill="#498DF8" transform="translate(188,141)"/>
<path d="M0 0 C2.625 2 2.625 2 4 4 C3.34 4 2.68 4 2 4 C2 4.66 2 5.32 2 6 C2.93199219 5.98839844 3.86398438 5.97679687 4.82421875 5.96484375 C29.13432836 5.79278028 29.13432836 5.79278028 37 10 C37 10.33 37 10.66 37 11 C23.47 11 9.94 11 -4 11 C-1.35020853 15.41631911 0.16371133 16.99317915 4 20 C4 20.66 4 21.32 4 22 C-0.51677047 24.71006228 -4.7666228 26.26808755 -10 25 C-13.86903463 22.63393651 -16.55329581 20.34011257 -18 16 C-18.39308695 11.20433923 -18.48270142 8.93092416 -16.25 4.625 C-11.76705403 -0.60510363 -6.59883987 -0.94269141 0 0 Z " fill="#F6FBFD" transform="translate(41,30)"/>
<path d="M0 0 C-0.47377233 3.71121662 -1.04984667 7.30301393 -1.9375 10.9375 C-4.76513626 23.40864201 -5.4011163 36.26584124 -6 49 C-8.02350324 45.96474514 -8.32124018 44.80573798 -8.625 41.3125 C-8.69976562 40.50425781 -8.77453125 39.69601563 -8.8515625 38.86328125 C-8.90054688 38.24839844 -8.94953125 37.63351563 -9 37 C-9.91265625 36.98066406 -9.91265625 36.98066406 -10.84375 36.9609375 C-13 36 -13 36 -14.34375 32.7890625 C-14.74526644 31.40561305 -15.1297304 30.01713802 -15.5 28.625 C-15.91973187 27.16344533 -16.3416191 25.70250798 -16.765625 24.2421875 C-16.97123047 23.5212793 -17.17683594 22.80037109 -17.38867188 22.05761719 C-18.48018587 18.38378335 -19.84600701 14.81627657 -21.203125 11.234375 C-21.93990706 9.16849589 -22.48469859 7.12939085 -23 5 C-20.1062867 4.15862957 -17.21040603 3.3266964 -14.3125 2.5 C-13.49587891 2.26152344 -12.67925781 2.02304687 -11.83789062 1.77734375 C-7.80828875 0.63535132 -4.23495153 -0.34500623 0 0 Z " fill="#3E76D9" transform="translate(121,45)"/>
<path d="M0 0 C5.53851942 3.20053786 6.98317921 14.19050354 8.63598633 20.2019043 C9.41590324 23.16245191 10.15718812 26.13305801 10.90625 29.1015625 C1.33625 29.1015625 -8.23375 29.1015625 -18.09375 29.1015625 C-15.61087826 22.89438315 -13.23185536 17.06147714 -10.09375 11.2265625 C-9.76375 10.58976562 -9.43375 9.95296875 -9.09375 9.296875 C-4.24524387 0.20592601 -4.24524387 0.20592601 0 0 Z " fill="#244EAE" transform="translate(96.09375,51.8984375)"/>
<path d="M0 0 C2.69105198 2.17574416 4.45532928 3.91065856 6 7 C6.18704404 9.69013339 6.08581391 12.29686177 6 15 C5.67 15.33 5.34 15.66 5 16 C5.020625 17.258125 5.04125 18.51625 5.0625 19.8125 C5.09730137 23.0490271 5.02773342 25.33192971 3 28 C2.01 28.33 1.02 28.66 0 29 C-3.1875 27.375 -3.1875 27.375 -6 25 C-6.375 22.25 -6.375 22.25 -6 20 C-8.31 20 -10.62 20 -13 20 C-13.433125 19.030625 -13.86625 18.06125 -14.3125 17.0625 C-15.7014861 13.72268235 -15.7014861 13.72268235 -19 13 C-17.68 12.67 -16.36 12.34 -15 12 C-15.495 10.8553125 -15.495 10.8553125 -16 9.6875 C-17 7 -17 7 -17 4 C-15.6078125 3.566875 -15.6078125 3.566875 -14.1875 3.125 C-3.42356621 -0.67403545 -3.42356621 -0.67403545 0 0 Z " fill="#F06A44" transform="translate(134,14)"/>
<path d="M0 0 C4.29 0 8.58 0 13 0 C12.67 0.66 12.34 1.32 12 2 C11.65907959 7.32967208 11.65907959 7.32967208 14 12 C14.66 12 15.32 12 16 12 C16 11.34 16 10.68 16 10 C16.99 10.33 17.98 10.66 19 11 C20.41727428 13.90174691 20.97855647 16.77811017 21 20 C18.75 23.25 18.75 23.25 16 26 C14.6950516 28.7124618 14.6950516 28.7124618 14 31 C11.69 31 9.38 31 7 31 C0 9.2893401 0 9.2893401 0 0 Z " fill="#D2E5F0" transform="translate(72,82)"/>
<path d="M0 0 C4.95 0 9.9 0 15 0 C14.41123403 7.82113811 12.95225492 15.14566246 11.0625 22.75 C10.66514648 24.39548828 10.66514648 24.39548828 10.25976562 26.07421875 C9.02655734 31.12333455 7.77094652 36.10637 6 41 C3.03 41.495 3.03 41.495 0 42 C-2.29612756 30.47835991 -2.29612756 30.47835991 -2 25 C-0.35 25 1.3 25 3 25 C2.95875 23.906875 2.9175 22.81375 2.875 21.6875 C2.85579162 16.33796618 3.92496931 11.22157765 5 6 C4.360625 5.7525 3.72125 5.505 3.0625 5.25 C1 4 1 4 0 0 Z " fill="#3EB081" transform="translate(117,70)"/>
<path d="M0 0 C3.3 0 6.6 0 10 0 C10.113384 10.40613141 9.87392766 20.62210898 9 31 C4.71 31 0.42 31 -4 31 C-3.44415369 20.43892014 -1.99599007 10.36910565 0 0 Z " fill="#F3F6FA" transform="translate(66,154)"/>
<path d="M0 0 C0.33 0 0.66 0 1 0 C3.24752138 9.84628414 1.76547949 20.04876664 1 30 C17.17 30 33.34 30 50 30 C50 20.1 50 10.2 50 0 C50.33 0 50.66 0 51 0 C51 13.86 51 27.72 51 42 C53.97 42 56.94 42 60 42 C58.515 42.495 58.515 42.495 57 43 C57 43.66 57 44.32 57 45 C55.948125 45.144375 54.89625 45.28875 53.8125 45.4375 C50.84539451 45.87526966 47.93205634 46.37804866 45 47 C46 45 46 45 49 44 C49.33 40.37 49.66 36.74 50 33 C37.13 33.33 24.26 33.66 11 34 C11 34.99 11 35.98 11 37 C10.67 36.525625 10.34 36.05125 10 35.5625 C7.36085638 33.22521971 7.36085638 33.22521971 0 33 C-0.33 38.61 -0.66 44.22 -1 50 C-1.33 50 -1.66 50 -2 50 C-2 44.39 -2 38.78 -2 33 C-5.96 33 -9.92 33 -14 33 C-14.33 33.99 -14.66 34.98 -15 36 C-14.67 34.35 -14.34 32.7 -14 31 C-9.71 31 -5.42 31 -1 31 C-1.020625 29.040625 -1.04125 27.08125 -1.0625 25.0625 C-1.07107689 16.68287533 -0.56662633 8.35773831 0 0 Z " fill="#8AB3F2" transform="translate(76,154)"/>
<path d="M0 0 C2.475 0.99 2.475 0.99 5 2 C5 7.28 5 12.56 5 18 C6.32 18.66 7.64 19.32 9 20 C9 24 9 24 7.625 25.5625 C6.820625 26.2740625 6.820625 26.2740625 6 27 C5.34 27.99 4.68 28.98 4 30 C3.34 30 2.68 30 2 30 C1.88213135 30.70664795 1.7642627 31.4132959 1.64282227 32.14135742 C0.95584689 35.19634972 -0.06699602 37.85478804 -1.28515625 40.73828125 C-1.73310547 41.80498047 -2.18105469 42.87167969 -2.64257812 43.97070312 C-3.11115234 45.07349609 -3.57972656 46.17628906 -4.0625 47.3125 C-4.53494141 48.43462891 -5.00738281 49.55675781 -5.49414062 50.71289062 C-6.65861323 53.47704277 -7.82736272 56.239304 -9 59 C-9.33 59 -9.66 59 -10 59 C-9.81755478 51.91780824 -8.42222176 45.32909452 -6.6875 38.5 C-3.48669911 25.82089479 -1.73726358 12.94769728 0 0 Z " fill="#4381EB" transform="translate(136,43)"/>
<path d="M0 0 C1.42892578 0.00773437 1.42892578 0.00773437 2.88671875 0.015625 C4.30404297 0.00789063 4.30404297 0.00789063 5.75 0 C8.70031364 0.27748455 10.89341019 1.03508992 13.57421875 2.265625 C13.57421875 4.245625 13.57421875 6.225625 13.57421875 8.265625 C12.91421875 8.265625 12.25421875 8.265625 11.57421875 8.265625 C11.62642578 9.13574219 11.62642578 9.13574219 11.6796875 10.0234375 C11.86166399 15.274759 11.40799586 18.66073719 8.57421875 23.265625 C5.89431606 20.9515029 4.97549475 19.02210193 4.01171875 15.640625 C3.37286193 13.28156277 3.37286193 13.28156277 2.57421875 11.265625 C1.91421875 10.935625 1.25421875 10.605625 0.57421875 10.265625 C0.90421875 11.255625 1.23421875 12.245625 1.57421875 13.265625 C-0.30078125 12.953125 -0.30078125 12.953125 -2.42578125 12.265625 C-4.87475972 8.59215729 -4.74115841 6.60206101 -4.42578125 2.265625 C-2.42578125 0.265625 -2.42578125 0.265625 0 0 Z " fill="#DDA73C" transform="translate(87.42578125,81.734375)"/>
<path d="M0 0 C2 2 4 4 6 6 C8.67058851 6.14115161 11.32432238 6.04247107 14 6 C13.67 10.62 13.34 15.24 13 20 C7.72 20 2.44 20 -3 20 C-3.35482211 12.78528371 -2.1591338 6.87581298 0 0 Z " fill="#EFF4F7" transform="translate(120,50)"/>
<path d="M0 0 C1.85173325 0.00636726 1.85173325 0.00636726 3.74087524 0.01286316 C7.67382856 0.02962144 11.60626471 0.06726992 15.5390625 0.10546875 C18.20962792 0.12221135 20.88018849 0.13420692 23.55078125 0.14648438 C30.08871736 0.17951577 36.62635297 0.22968763 43.1640625 0.29296875 C43.1640625 0.95296875 43.1640625 1.61296875 43.1640625 2.29296875 C42.08744354 2.30176811 42.08744354 2.30176811 40.98907471 2.31074524 C34.2206894 2.36868022 27.45258619 2.44076151 20.68452835 2.52868366 C17.20507377 2.5733867 13.72573625 2.61264253 10.24609375 2.6394043 C6.24449076 2.67042014 2.24351882 2.72520872 -1.7578125 2.78125 C-3.00584656 2.78763992 -4.25388062 2.79402985 -5.53973389 2.8006134 C-6.70063538 2.82040756 -7.86153687 2.84020172 -9.05761719 2.8605957 C-10.58983917 2.87725029 -10.58983917 2.87725029 -12.15301514 2.89424133 C-15.23852054 3.35279937 -16.62107938 4.1224443 -18.8359375 6.29296875 C-19.67596066 9.24646784 -19.67596066 9.24646784 -19.91796875 12.80078125 C-19.98861038 13.4877005 -20.05925201 14.17461975 -20.1320343 14.88235474 C-20.29163119 16.45695781 -20.44266755 18.03244268 -20.5869751 19.60852051 C-20.86034986 22.55619614 -21.16350052 25.49994636 -21.47021484 28.44433594 C-22.06162813 34.16314161 -22.62523486 39.88427096 -23.17797852 45.60693359 C-23.52750622 49.20990959 -23.8857814 52.81195548 -24.24414062 56.4140625 C-24.46668028 58.70437522 -24.68870503 60.99473804 -24.91015625 63.28515625 C-25.01841232 64.36207733 -25.1266684 65.43899841 -25.23820496 66.54855347 C-25.37879082 68.03248093 -25.37879082 68.03248093 -25.5222168 69.54638672 C-25.60722946 70.41746063 -25.69224213 71.28853455 -25.77983093 72.18600464 C-26.00295757 74.35131568 -26.00295757 74.35131568 -24.8359375 76.29296875 C-25.4959375 76.29296875 -26.1559375 76.29296875 -26.8359375 76.29296875 C-27.1659375 77.28296875 -27.4959375 78.27296875 -27.8359375 79.29296875 C-30.1459375 78.96296875 -32.4559375 78.63296875 -34.8359375 78.29296875 C-33.5859375 76.79296875 -33.5859375 76.79296875 -31.8359375 75.29296875 C-30.5159375 75.29296875 -29.1959375 75.29296875 -27.8359375 75.29296875 C-27.72523926 74.04499512 -27.61454102 72.79702148 -27.50048828 71.51123047 C-27.07950396 66.76592924 -26.65820198 62.02065624 -26.23681641 57.27539062 C-26.05639468 55.24317145 -25.87605285 53.21094517 -25.69580078 51.17871094 C-25.60927246 50.20321289 -25.52274414 49.22771484 -25.43359375 48.22265625 C-25.34688416 47.24363342 -25.26017456 46.2646106 -25.1708374 45.25592041 C-24.99404077 43.27086332 -24.81552533 41.28595858 -24.63531494 39.3012085 C-24.17571819 34.2253603 -23.74364719 29.14975439 -23.36230469 24.06738281 C-23.28293671 23.06708038 -23.20356873 22.06677795 -23.12179565 21.03616333 C-22.97170293 19.13841674 -22.83141763 17.23985955 -22.70266724 15.34054565 C-22.01736808 6.93980699 -22.01736808 6.93980699 -18.8359375 3.29296875 C-13.24681436 -0.9111731 -6.67076386 -0.08650944 0 0 Z " fill="#315FA3" transform="translate(84.8359375,119.70703125)"/>
<path d="M0 0 C3.27132607 -0.08081043 6.54066421 -0.14040709 9.8125 -0.1875 C10.74126953 -0.21263672 11.67003906 -0.23777344 12.62695312 -0.26367188 C13.9659668 -0.27817383 13.9659668 -0.27817383 15.33203125 -0.29296875 C16.56530151 -0.31653442 16.56530151 -0.31653442 17.82348633 -0.34057617 C20.52800757 0.08262149 21.39269221 0.81484125 23 3 C23.42478586 7.07794425 23.31282587 8.53076119 21 12 C14.01211329 12.77643186 7.69950113 10.87586032 1 9 C0.67 6.03 0.34 3.06 0 0 Z " fill="#0D133F" transform="translate(155,100)"/>
<path d="M0 0 C1.61358398 -0.01836914 1.61358398 -0.01836914 3.25976562 -0.03710938 C4.28650391 -0.03904297 5.31324219 -0.04097656 6.37109375 -0.04296875 C7.79119751 -0.04913208 7.79119751 -0.04913208 9.23999023 -0.05541992 C11.5625 0.1875 11.5625 0.1875 13.5625 2.1875 C13.23278521 5.48464793 12.9398161 6.8101839 10.5625 9.1875 C6.91496333 9.6398235 3.23486739 9.51156287 -0.4375 9.5 C-1.97277344 9.52416992 -1.97277344 9.52416992 -3.5390625 9.54882812 C-5.00472656 9.54979492 -5.00472656 9.54979492 -6.5 9.55078125 C-7.39847656 9.55376221 -8.29695312 9.55674316 -9.22265625 9.55981445 C-10.31900391 9.3755188 -10.31900391 9.3755188 -11.4375 9.1875 C-13.4375 6.1875 -13.4375 6.1875 -13.125 3.5625 C-11.51112964 -2.0126885 -4.91639307 0.00293516 0 0 Z " fill="#5197FD" transform="translate(182.4375,35.8125)"/>
<path d="M0 0 C2.99245957 2.49064144 3.78495198 4.83690423 4.82421875 8.54296875 C5.13037109 9.61611328 5.43652344 10.68925781 5.75195312 11.79492188 C6.06068359 12.91447266 6.36941406 14.03402344 6.6875 15.1875 C7.00783203 16.31865234 7.32816406 17.44980469 7.65820312 18.61523438 C8.44762764 21.40767631 9.22497176 24.20352825 10 27 C5.05 27 0.1 27 -5 27 C-4.125 17.25 -4.125 17.25 -3 15 C-2.8219644 13.58701906 -2.68076947 12.16923364 -2.5625 10.75 C-2.18032476 6.9344117 -1.38350863 3.59712244 0 0 Z " fill="#3C7AEB" transform="translate(97,54)"/>
<path d="M0 0 C0.66 0 1.32 0 2 0 C2.67815954 2.66419818 3.34265777 5.33065758 4 8 C4.19078125 8.74378906 4.3815625 9.48757812 4.578125 10.25390625 C5.80747799 15.30303458 6.18894522 19.80400642 6 25 C-0.96779403 26.32719886 -7.92988911 26.08825381 -15 26 C-15 25.67 -15 25.34 -15 25 C-11.37 24.67 -7.74 24.34 -4 24 C-4.66 23.01 -5.32 22.02 -6 21 C-7.18401358 13.00790835 -3.5820469 6.99352014 0 0 Z " fill="#2C50AA" transform="translate(72,91)"/>
<path d="M0 0 C4.75 0.75 4.75 0.75 7 3 C7.26991906 5.68839385 7.08737357 8.29141936 7 11 C3.41653594 13.23373547 0.47545161 13.24250167 -3.69628906 13.22705078 C-4.69202942 13.22748886 -4.69202942 13.22748886 -5.70788574 13.22793579 C-7.89393351 13.22654658 -10.07963704 13.21100503 -12.265625 13.1953125 C-13.78448297 13.19158091 -15.30334335 13.18873463 -16.82220459 13.18673706 C-20.81382937 13.1791121 -24.80530789 13.15947344 -28.796875 13.1373291 C-32.87237571 13.11684614 -36.94790012 13.10773011 -41.0234375 13.09765625 C-49.01569201 13.07622641 -57.00782779 13.04210426 -65 13 C-65 12.34 -65 11.68 -65 11 C-47.96967869 10.89310826 -31.0024844 10.86784884 -14 12 C-14 11.34 -14 10.68 -14 10 C-9.38 10 -4.76 10 0 10 C0 6.7 0 3.4 0 0 Z " fill="#629DF9" transform="translate(75,194)"/>
<path d="M0 0 C-1.0681847 5.11365014 -2.23107476 10.07227969 -4 15 C-4.928125 15.144375 -5.85625 15.28875 -6.8125 15.4375 C-10.00725111 15.92100111 -10.00725111 15.92100111 -13 17 C-13.83790789 15.21046815 -14.67019396 13.41830305 -15.5 11.625 C-16.19609375 10.12839844 -16.19609375 10.12839844 -16.90625 8.6015625 C-18 6 -18 6 -18 4 C-15.37569876 3.3304744 -12.75063343 2.66426282 -10.125 2 C-9.00544922 1.71382812 -9.00544922 1.71382812 -7.86328125 1.421875 C-2.2265625 0 -2.2265625 0 0 0 Z " fill="#3D80EE" transform="translate(116,46)"/>
<path d="M0 0 C0.33 0 0.66 0 1 0 C2.74492858 16.99951117 4.33787698 33.91722615 5 51 C17.87 51 30.74 51 44 51 C44.33 51.66 44.66 52.32 45 53 C39.17928378 53.02464638 33.35859766 53.0428343 27.5378418 53.05493164 C25.55606559 53.05997267 23.57429311 53.06680538 21.5925293 53.07543945 C18.75047891 53.08751515 15.90847753 53.09323045 13.06640625 53.09765625 C11.72891075 53.10539818 11.72891075 53.10539818 10.36439514 53.11329651 C8.24259399 53.11349177 6.1208922 53.0621003 4 53 C1.79344969 50.79344969 2.28178299 45.88623183 1.9921875 42.8125 C1.90244659 41.88083008 1.81270569 40.94916016 1.72024536 39.98925781 C1.53131541 38.00885345 1.34485737 36.02821199 1.16064453 34.04736328 C0.87871623 31.03964611 0.58236801 28.03358385 0.28515625 25.02734375 C0.10327372 23.10164663 -0.07774249 21.17586745 -0.2578125 19.25 C-0.34733185 18.35901611 -0.4368512 17.46803223 -0.52908325 16.55004883 C-1.04094171 10.84811049 -0.80294534 5.67156389 0 0 Z " fill="#76AAF6" transform="translate(154,154)"/>
<path d="M0 0 C0.71162292 -0.00428513 1.42324585 -0.00857025 2.15643311 -0.01298523 C3.66270892 -0.01872533 5.16901246 -0.01923113 6.67529297 -0.01489258 C8.96240616 -0.01174895 11.24820451 -0.0351363 13.53515625 -0.06054688 C15.00260255 -0.06282178 16.4700523 -0.06352247 17.9375 -0.0625 C18.61379456 -0.07170975 19.29008911 -0.08091949 19.98687744 -0.09040833 C24.97830258 -0.04261151 28.33625352 1.14413351 32.734375 3.30078125 C32.734375 3.63078125 32.734375 3.96078125 32.734375 4.30078125 C19.204375 4.30078125 5.674375 4.30078125 -8.265625 4.30078125 C-7.275625 5.95078125 -6.285625 7.60078125 -5.265625 9.30078125 C-4.935625 9.96078125 -4.605625 10.62078125 -4.265625 11.30078125 C-6.740625 10.31078125 -6.740625 10.31078125 -9.265625 9.30078125 C-9.595625 6.99078125 -9.925625 4.68078125 -10.265625 2.30078125 C-6.69586921 -0.07905595 -4.12320375 -0.00549089 0 0 Z " fill="#D3E9F8" transform="translate(45.265625,36.69921875)"/>
<path d="M0 0 C3 2.125 3 2.125 5 5 C5.3125 8.3125 5.3125 8.3125 5 11 C3.02 11.99 3.02 11.99 1 13 C1.33 11.35 1.66 9.7 2 8 C0.35 8.33 -1.3 8.66 -3 9 C-2.67 9.99 -2.34 10.98 -2 12 C-4.97 11.505 -4.97 11.505 -8 11 C-8.33 10.01 -8.66 9.02 -9 8 C-11.31 8 -13.62 8 -16 8 C-16.33 6.68 -16.66 5.36 -17 4 C-15.6078125 3.566875 -15.6078125 3.566875 -14.1875 3.125 C-3.47517431 -0.65582083 -3.47517431 -0.65582083 0 0 Z " fill="#17133C" transform="translate(134,14)"/>
<path d="M0 0 C0.33 0.99 0.66 1.98 1 3 C11.23 3 21.46 3 32 3 C31.34 4.65 30.68 6.3 30 8 C19.44 8 8.88 8 -2 8 C-1.34 5.36 -0.68 2.72 0 0 Z " fill="#D2E8F6" transform="translate(139,33)"/>
<path d="M0 0 C0.99 0.33 1.98 0.66 3 1 C3.02712153 2.916588 3.04645097 4.8332873 3.0625 6.75 C3.07410156 7.81734375 3.08570312 8.8846875 3.09765625 9.984375 C3 13 3 13 2.51367188 14.93164062 C1.99212075 17.03172672 1.79804568 18.95113864 1.68359375 21.109375 C1.64169922 21.86347656 1.59980469 22.61757812 1.55664062 23.39453125 C1.49766602 24.56048828 1.49766602 24.56048828 1.4375 25.75 C1.39431641 26.54277344 1.35113281 27.33554688 1.30664062 28.15234375 C1.20097009 30.10137815 1.10002034 32.05066748 1 34 C-1.37826383 30.43260426 -1.38656475 28.12757458 -1.65625 23.9609375 C-1.82640625 22.99027344 -1.82640625 22.99027344 -2 22 C-2.66 21.67 -3.32 21.34 -4 21 C-4 15.06 -4 9.12 -4 3 C-2.68 3 -1.36 3 0 3 C0 2.01 0 1.02 0 0 Z " fill="#3D85E8" transform="translate(114,60)"/>
<path d="M0 0 C2.625 2 2.625 2 4 4 C3.34 3.835 2.68 3.67 2 3.5 C-5.28177868 2.27495602 -5.28177868 2.27495602 -11.9375 4.875 C-14.39265003 7.40454851 -14.93828825 8.30574285 -15.25 11.8125 C-14.96929042 15.39154719 -14.12271416 17.14250017 -12 20 C-7.40456709 22.29771645 -0.82752346 21.24581251 4 20 C4 20.66 4 21.32 4 22 C-0.51677047 24.71006228 -4.7666228 26.26808755 -10 25 C-13.86903463 22.63393651 -16.55329581 20.34011257 -18 16 C-18.39308695 11.20433923 -18.48270142 8.93092416 -16.25 4.625 C-11.76705403 -0.60510363 -6.59883987 -0.94269141 0 0 Z " fill="#619FF6" transform="translate(41,30)"/>
<path d="M0 0 C0.33 0 0.66 0 1 0 C1 2.97 1 5.94 1 9 C-6.92 9 -14.84 9 -23 9 C-22.67 7.35 -22.34 5.7 -22 4 C-14.74 4 -7.48 4 0 4 C0 2.68 0 1.36 0 0 Z " fill="#D3E8F6" transform="translate(120,32)"/>
<path d="M0 0 C2 1 4 2 6 3 C5.45118943 9.35219042 4.83488387 15.67873638 4 22 C2.35 22 0.7 22 -1 22 C-1.33 22.66 -1.66 23.32 -2 24 C-1.86076462 20.74968216 -1.71245815 17.49983939 -1.5625 14.25 C-1.52318359 13.32960938 -1.48386719 12.40921875 -1.44335938 11.4609375 C-1.40146484 10.57148437 -1.35957031 9.68203125 -1.31640625 8.765625 C-1.27974854 7.94868164 -1.24309082 7.13173828 -1.20532227 6.29003906 C-1.00865725 4.0965577 -0.59699406 2.11603587 0 0 Z " fill="#BBDDDE" transform="translate(116,73)"/>
<path d="M0 0 C11.69580179 2.62147281 11.69580179 2.62147281 15.9375 7 C16.288125 7.66 16.63875 8.32 17 9 C16.67 9.99 16.34 10.98 16 12 C15.6596875 11.51144531 15.319375 11.02289063 14.96875 10.51953125 C12.02884547 8.25043827 9.05471497 8.60286393 5.5 8.6875 C4.82324219 8.68427734 4.14648438 8.68105469 3.44921875 8.67773438 C-0.23473014 8.71769832 -1.86207954 8.90805303 -5 11 C-5.39169887 8.33644766 -5.40564529 6.60775627 -3.88671875 4.33203125 C-2.63610683 2.8489112 -1.32135486 1.42045648 0 0 Z " fill="#3F435B" transform="translate(92,102)"/>
<path d="M0 0 C0.66 1.32 1.32 2.64 2 4 C2.66 3.34 3.32 2.68 4 2 C2.33333333 15.33333333 0.66666667 28.66666667 -1 42 C-1.99 41.67 -2.98 41.34 -4 41 C-2.68 27.47 -1.36 13.94 0 0 Z " fill="#151D53" transform="translate(62,153)"/>
<path d="M0 0 C2.1462026 0.14029419 4.29196218 0.28738164 6.4375 0.4375 C7.63246094 0.51871094 8.82742187 0.59992188 10.05859375 0.68359375 C13 1 13 1 14 2 C14.04092937 4.33297433 14.04241723 6.66705225 14 9 C11.8537974 8.85970581 9.70803782 8.71261836 7.5625 8.5625 C6.36753906 8.48128906 5.17257813 8.40007812 3.94140625 8.31640625 C1 8 1 8 0 7 C-0.04092937 4.66702567 -0.04241723 2.33294775 0 0 Z " fill="#EB6F53" transform="translate(142,99)"/>
<path d="M0 0 C1.65 0.33 3.3 0.66 5 1 C5.42765417 7.41481258 3.85743168 12.88595404 2 19 C0.35 19 -1.3 19 -3 19 C-3.6875 17.25 -3.6875 17.25 -4 15 C-3.2575 14.1028125 -3.2575 14.1028125 -2.5 13.1875 C-0.31149776 9.99593423 -1.4033395 7.7125542 -2 4 C-1.0625 1.5625 -1.0625 1.5625 0 0 Z " fill="#EACF2F" transform="translate(126,72)"/>
<path d="M0 0 C5.28 0 10.56 0 16 0 C15.67 0.99 15.34 1.98 15 3 C-7.44 3 -29.88 3 -53 3 C-53 2.67 -53 2.34 -53 2 C-35.51 2 -18.02 2 0 2 C0 1.34 0 0.68 0 0 Z " fill="#112973" transform="translate(124,114)"/>
<path d="M0 0 C16.83 0 33.66 0 51 0 C51 3.3 51 6.6 51 10 C53.97 10 56.94 10 60 10 C59.01 10.33 58.02 10.66 57 11 C57 11.66 57 12.32 57 13 C55.4221875 13.2165625 55.4221875 13.2165625 53.8125 13.4375 C50.84539451 13.87526966 47.93205634 14.37804866 45 15 C46 13 46 13 49 12 C49.33 8.37 49.66 4.74 50 1 C37.13 1.33 24.26 1.66 11 2 C11 2.99 11 3.98 11 5 C10.67 4.525625 10.34 4.05125 10 3.5625 C6.90186733 1.14208385 3.87973208 1.31801083 0 1 C0 0.67 0 0.34 0 0 Z " fill="#CBE0F7" transform="translate(76,186)"/>
<path d="M0 0 C4.95 0 9.9 0 15 0 C15 1.65 15 3.3 15 5 C14.67 4.34 14.34 3.68 14 3 C11.47266765 2.34444881 11.47266765 2.34444881 9 2 C8.835 3.2375 8.67 4.475 8.5 5.75 C8.4071875 6.44609375 8.314375 7.1421875 8.21875 7.859375 C7.93222643 10.30458395 7.93222643 10.30458395 8 14 C6.5 15.75 6.5 15.75 5 17 C4.15901344 12.98195309 3.94595055 9.98196457 5 6 C4.360625 5.7525 3.72125 5.505 3.0625 5.25 C1 4 1 4 0 0 Z " fill="#58B87E" transform="translate(117,70)"/>
<path d="M0 0 C1.65 0 3.3 0 5 0 C4.30834212 5.41798672 3.24200752 10.6822785 2 16 C1.01 16 0.02 16 -1 16 C-1.33 16.66 -1.66 17.32 -2 18 C-3.65 17.67 -5.3 17.34 -7 17 C-6.01 16.67 -5.02 16.34 -4 16 C-3.11917378 13.28681956 -2.42123771 10.71116483 -1.8125 7.9375 C-1.54663086 6.79958008 -1.54663086 6.79958008 -1.27539062 5.63867188 C-0.83863033 3.76178303 -0.41780844 1.8811984 0 0 Z " fill="#437FE7" transform="translate(116,45)"/>
<path d="M0 0 C0.33 0.99 0.66 1.98 1 3 C2.32 3 3.64 3 5 3 C5 2.34 5 1.68 5 1 C5.99 1.33 6.98 1.66 8 2 C7.34 2 6.68 2 6 2 C6.03480469 2.58007812 6.06960937 3.16015625 6.10546875 3.7578125 C6.28744524 9.009134 5.83377711 12.39511219 3 17 C0.0222241 14.50003341 -0.94548483 11.95288929 -2.1875 8.3125 C-2.53167969 7.31863281 -2.87585938 6.32476562 -3.23046875 5.30078125 C-3.48441406 4.54152344 -3.73835938 3.78226562 -4 3 C-2.68 2.67 -1.36 2.34 0 2 C0 1.34 0 0.68 0 0 Z " fill="#F18D85" transform="translate(93,88)"/>
<path d="M0 0 C0.66 0 1.32 0 2 0 C2 0.66 2 1.32 2 2 C6.29 2 10.58 2 15 2 C15 3.32 15 4.64 15 6 C10.38 6 5.76 6 1 6 C-0.32 9.3 -1.64 12.6 -3 16 C-3.66 15.67 -4.32 15.34 -5 15 C-4.37321829 11.33827525 -3.35548154 8.1181005 -1.9375 4.6875 C-1.39416016 3.36298828 -1.39416016 3.36298828 -0.83984375 2.01171875 C-0.56269531 1.34785156 -0.28554687 0.68398437 0 0 Z " fill="#2E55B4" transform="translate(138,73)"/>
<path d="M0 0 C2.475 0.99 2.475 0.99 5 2 C5 7.28 5 12.56 5 18 C5.66 18.33 6.32 18.66 7 19 C5.68 19 4.36 19 3 19 C2.67 16.69 2.34 14.38 2 12 C0.0549 14.91765 -0.45276317 16.62537285 -1 20 C-1.33 20 -1.66 20 -2 20 C-2.26404456 13.13484138 -1.25841946 6.74153283 0 0 Z " fill="#7EA49F" transform="translate(136,43)"/>
<path d="M0 0 C1.98 0 3.96 0 6 0 C6.3403125 1.2065625 6.3403125 1.2065625 6.6875 2.4375 C7.120625 3.283125 7.55375 4.12875 8 5 C10.54775306 5.89386164 10.54775306 5.89386164 13 6 C13 7.32 13 8.64 13 10 C11.35 9.67 9.7 9.34 8 9 C7.67 7.68 7.34 6.36 7 5 C4.7763932 6.9254644 4.7763932 6.9254644 4 10 C2.0625 9.6875 2.0625 9.6875 0 9 C-0.33 8.01 -0.66 7.02 -1 6 C-1.99 5.67 -2.98 5.34 -4 5 C-2.68 4.67 -1.36 4.34 0 4 C0 2.68 0 1.36 0 0 Z " fill="#BD533D" transform="translate(119,22)"/>
<path d="M0 0 C1.98 0 3.96 0 6 0 C6.103125 1.0725 6.20625 2.145 6.3125 3.25 C7.0032022 7.01746654 7.7742322 8.09682461 10 11 C10.1875 13.75 10.1875 13.75 10 16 C10.886875 15.505 11.77375 15.01 12.6875 14.5 C15.87586238 13.05621326 17.58187546 12.69840078 21 13 C20.67 14.32 20.34 15.64 20 17 C16.37 17 12.74 17 9 17 C8.773125 15.948125 8.54625 14.89625 8.3125 13.8125 C7.19186117 9.80561151 5.0067439 7.8564067 2 5 C0.6875 2.1875 0.6875 2.1875 0 0 Z " fill="#E3F0FA" transform="translate(86,187)"/>
<path d="M0 0 C1.09716797 1.72949219 1.09716797 1.72949219 2 4 C1.49267578 6.10644531 1.49267578 6.10644531 0.4453125 8.328125 C0.07792969 9.12734375 -0.28945312 9.9265625 -0.66796875 10.75 C-1.06628906 11.575 -1.46460938 12.4 -1.875 13.25 C-2.26558594 14.09046875 -2.65617188 14.9309375 -3.05859375 15.796875 C-4.02521929 17.87158347 -5.00591858 19.93834229 -6 22 C-3.69 22 -1.38 22 1 22 C1 22.33 1 22.66 1 23 C-2.3 23 -5.6 23 -9 23 C-7.32103321 13.18450185 -7.32103321 13.18450185 -4 9 C-3.22664607 7.43777333 -2.49631987 5.8534397 -1.8125 4.25 C-1.46832031 3.45078125 -1.12414062 2.6515625 -0.76953125 1.828125 C-0.51558594 1.22484375 -0.26164063 0.6215625 0 0 Z " fill="#2E64D6" transform="translate(132,88)"/>
<path d="M0 0 C6.6 0 13.2 0 20 0 C20.33 0.99 20.66 1.98 21 3 C11.43 3 1.86 3 -8 3 C-8 2.67 -8 2.34 -8 2 C-5.36 2 -2.72 2 0 2 C0 1.34 0 0.68 0 0 Z " fill="#A07594" transform="translate(118,111)"/>
<path d="M0 0 C0.99 0 1.98 0 3 0 C3 1.32 3 2.64 3 4 C5.475 4.99 5.475 4.99 8 6 C8 6.99 8 7.98 8 9 C4.8035914 10.06546953 2.34252724 10.07427838 -1 10 C-2.46726798 6.18510326 -1.43336419 3.70988378 0 0 Z " fill="#F3EEED" transform="translate(125,35)"/>
<path d="M0 0 C4.75 0.75 4.75 0.75 7 3 C7.125 6.625 7.125 6.625 7 10 C4.69 10 2.38 10 0 10 C0 6.7 0 3.4 0 0 Z " fill="#3D6DD5" transform="translate(75,194)"/>
<path d="M0 0 C0.33 0 0.66 0 1 0 C1.12930469 7.49206571 0.48355977 14.71967921 -0.37695312 22.15429688 C-0.47041016 23.00958984 -0.56386719 23.86488281 -0.66015625 24.74609375 C-0.79369507 25.90129517 -0.79369507 25.90129517 -0.92993164 27.07983398 C-1.15680625 29.08599816 -1.15680625 29.08599816 0 31 C-0.66 31 -1.32 31 -2 31 C-2.495 32.485 -2.495 32.485 -3 34 C-5.31 33.67 -7.62 33.34 -10 33 C-8.75 31.5 -8.75 31.5 -7 30 C-5.68 30 -4.36 30 -3 30 C-2.01 20.1 -1.02 10.2 0 0 Z " fill="#6D82A6" transform="translate(60,165)"/>
<path d="M0 0 C1.3303125 0.433125 1.3303125 0.433125 2.6875 0.875 C2.0275 2.195 1.3675 3.515 0.6875 4.875 C2.3375 5.205 3.9875 5.535 5.6875 5.875 C5.6875 6.205 5.6875 6.535 5.6875 6.875 C5.09582031 6.91238281 4.50414063 6.94976562 3.89453125 6.98828125 C-0.91917451 7.38876901 -4.32091777 7.9135035 -8.3125 10.875 C-8.86913017 7.08991485 -8.27555255 5.81631875 -6.1875 2.5 C-3.3125 -0.125 -3.3125 -0.125 0 0 Z " fill="#121439" transform="translate(95.3125,102.125)"/>
<path d="M0 0 C1.98 0.66 3.96 1.32 6 2 C6 3.65 6 5.3 6 7 C5.01 7 4.02 7 3 7 C3 7.66 3 8.32 3 9 C1.68 9 0.36 9 -1 9 C-1 8.01 -1 7.02 -1 6 C-1.99 5.67 -2.98 5.34 -4 5 C-2.68 3.35 -1.36 1.7 0 0 Z " fill="#ECB753" transform="translate(95,82)"/>
<path d="M0 0 C1.10861925 3.27765692 0.92934526 4.95309519 -0.43359375 8.109375 C-0.75263672 8.86347656 -1.07167969 9.61757812 -1.40039062 10.39453125 C-1.74263672 11.17183594 -2.08488281 11.94914062 -2.4375 12.75 C-2.77587891 13.54277344 -3.11425781 14.33554688 -3.46289062 15.15234375 C-4.29845982 17.10592806 -5.14790442 19.0535672 -6 21 C-6.33 21 -6.66 21 -7 21 C-6.85816304 19.24967156 -6.71136571 17.49974466 -6.5625 15.75 C-6.48128906 14.77546875 -6.40007812 13.8009375 -6.31640625 12.796875 C-6.04925416 10.43538247 -5.64628032 8.28098935 -5 6 C-4.01 6 -3.02 6 -2 6 C-1.34 4.02 -0.68 2.04 0 0 Z " fill="#3D7AEA" transform="translate(133,81)"/>
<path d="M0 0 C4.95 0 9.9 0 15 0 C15.33 0.99 15.66 1.98 16 3 C10.39 3 4.78 3 -1 3 C-0.67 2.01 -0.34 1.02 0 0 Z " fill="#D8E4EC" transform="translate(90,110)"/>
<path d="M0 0 C-0.53410863 7.35251669 -1.13140916 14.67902003 -2 22 C-2.99 21.67 -3.98 21.34 -5 21 C-4.72350393 17.68604792 -4.42627566 14.37428395 -4.125 11.0625 C-4.00705078 9.64420898 -4.00705078 9.64420898 -3.88671875 8.19726562 C-3.80292969 7.29814453 -3.71914063 6.39902344 -3.6328125 5.47265625 C-3.55949707 4.64000244 -3.48618164 3.80734863 -3.41064453 2.94946289 C-3.20737549 1.98447876 -3.20737549 1.98447876 -3 1 C-1 0 -1 0 0 0 Z " fill="#1E2556" transform="translate(63,173)"/>
<path d="M0 0 C-2.57516622 2.63746863 -4.54331396 3.21887499 -8.109375 3.29296875 C-9.65652231 3.27313353 -11.20353396 3.2375101 -12.75 3.1875 C-13.54277344 3.17396484 -14.33554688 3.16042969 -15.15234375 3.14648438 C-17.10185564 3.11125223 -19.05101626 3.05744821 -21 3 C-20.67 2.34 -20.34 1.68 -20 1 C-17.55859375 0.5859375 -17.55859375 0.5859375 -14.4375 0.375 C-13.35855469 0.30152344 -12.27960938 0.22804687 -11.16796875 0.15234375 C-7.43323236 -0.02725516 -3.73788586 -0.07188242 0 0 Z " fill="#5195F8" transform="translate(82,204)"/>
<path d="M0 0 C0.33 0.99 0.66 1.98 1 3 C2.98 3 4.96 3 7 3 C6.67 5.64 6.34 8.28 6 11 C4.125 10.6875 4.125 10.6875 2 10 C-0.4294516 6.3558226 -0.16179575 4.28758728 0 0 Z " fill="#EABC45" transform="translate(83,84)"/>
<path d="M0 0 C0.99 0 1.98 0 3 0 C2.80664062 0.6290625 2.61328125 1.258125 2.4140625 1.90625 C0.7907875 7.24216385 -0.69460565 12.57759268 -2 18 C-3.65 17.67 -5.3 17.34 -7 17 C-6.01 16.67 -5.02 16.34 -4 16 C-3.11917378 13.28681956 -2.42123771 10.71116483 -1.8125 7.9375 C-1.54663086 6.79958008 -1.54663086 6.79958008 -1.27539062 5.63867188 C-0.83863033 3.76178303 -0.41780844 1.8811984 0 0 Z " fill="#B4C264" transform="translate(116,45)"/>
<path d="M0 0 C2 1 4 2 6 3 C6 4.65 6 6.3 6 8 C4.02 8 2.04 8 0 8 C0 5.36 0 2.72 0 0 Z " fill="#CBC24B" transform="translate(116,73)"/>
<path d="M0 0 C0.66 0.33 1.32 0.66 2 1 C2.28571429 9.57142857 2.28571429 9.57142857 0 13 C-0.66 13 -1.32 13 -2 13 C-2.16682272 8.07872966 -2.24828052 4.49656104 0 0 Z " fill="#332534" transform="translate(137,29)"/>
<path d="M0 0 C1.65 0 3.3 0 5 0 C4.67 2.97 4.34 5.94 4 9 C3.34 9 2.68 9 2 9 C0.14223235 5.86501708 -0.20140476 3.62528568 0 0 Z " fill="#D5E39A" transform="translate(116,81)"/>
<path d="M0 0 C3.96 0 7.92 0 12 0 C12 0.99 12 1.98 12 3 C8.04 3 4.08 3 0 3 C0 2.01 0 1.02 0 0 Z " fill="#14205C" transform="translate(141,75)"/>
<path d="M0 0 C2.625 2 2.625 2 4 4 C3.34 3.835 2.68 3.67 2 3.5 C-2.97883405 2.67019433 -8.14412495 2.38137498 -13 4 C-12.67 3.01 -12.34 2.02 -12 1 C-8.31637726 -0.84181137 -4.02088059 -0.49936743 0 0 Z " fill="#569AF6" transform="translate(41,30)"/>
<path d="M0 0 C0.33 0 0.66 0 1 0 C1.66 6.27 2.32 12.54 3 19 C3.99 19.33 4.98 19.66 6 20 C4.0625 20.5625 4.0625 20.5625 2 21 C-0.59375895 18.40624105 0.01090968 11.53116483 -0.0625 7.95703125 C-0.0625 5.30390833 -0.0446252 2.65272016 0 0 Z " fill="#65A1F5" transform="translate(156,186)"/>
<path d="M0 0 C-0.33 2.97 -0.66 5.94 -1 9 C-2.65 9 -4.3 9 -6 9 C-6 6.69 -6 4.38 -6 2 C-2.25 0 -2.25 0 0 0 Z " fill="#1C1E4C" transform="translate(138,187)"/>
<path d="M0 0 C0.33 0 0.66 0 1 0 C1.144375 1.093125 1.28875 2.18625 1.4375 3.3125 C1.88288104 6.93122987 1.88288104 6.93122987 3 10 C-1.29 9.67 -5.58 9.34 -10 9 C-10 8.34 -10 7.68 -10 7 C-6.7 7 -3.4 7 0 7 C0 4.69 0 2.38 0 0 Z " fill="#71AFE1" transform="translate(65,83)"/>
<path d="M0 0 C1.65 0.33 3.3 0.66 5 1 C5 3.31 5 5.62 5 8 C4.34 7.01 3.68 6.02 3 5 C0.525 6.485 0.525 6.485 -2 8 C-1.47731534 5.23723823 -0.89130413 2.6739124 0 0 Z " fill="#A5C04D" transform="translate(126,72)"/>
<path d="M0 0 C-0.66 1.65 -1.32 3.3 -2 5 C-2.66 5 -3.32 5 -4 5 C-4.33 6.32 -4.66 7.64 -5 9 C-5.33 8.01 -5.66 7.02 -6 6 C-8.01508358 5.26676204 -8.01508358 5.26676204 -10 5 C-9.67 4.34 -9.34 3.68 -9 3 C-7.02 3.495 -7.02 3.495 -5 4 C-5.66 2.68 -6.32 1.36 -7 0 C-2.25 -1.125 -2.25 -1.125 0 0 Z " fill="#DF5A46" transform="translate(137,22)"/>
<path d="M0 0 C0.66 0 1.32 0 2 0 C1.49259538 4.39750672 -1.08293314 6.86948922 -4 10 C-4.66 10 -5.32 10 -6 10 C-6.33 9.01 -6.66 8.02 -7 7 C-4.66666667 4.66666667 -2.33333333 2.33333333 0 0 Z " fill="#6EA9F2" transform="translate(65,62)"/>
<path d="M0 0 C2.3129482 2.3129482 2.49580975 3.47904875 3.125 6.625 C3.29257813 7.44226563 3.46015625 8.25953125 3.6328125 9.1015625 C3.81457031 10.04128906 3.81457031 10.04128906 4 11 C2.68 11 1.36 11 0 11 C0 7.37 0 3.74 0 0 Z " fill="#CCDDF0" transform="translate(161,89)"/>
<path d="M0 0 C0.99 0.33 1.98 0.66 3 1 C2.34 1 1.68 1 1 1 C1 3.97 1 6.94 1 10 C0.01 9.67 -0.98 9.34 -2 9 C-3.1875 5.4375 -3.1875 5.4375 -4 2 C-2.68 2 -1.36 2 0 2 C0 1.34 0 0.68 0 0 Z " fill="#F4A89C" transform="translate(98,89)"/>
<path d="M0 0 C1.4540625 0.0309375 1.4540625 0.0309375 2.9375 0.0625 C2.6075 1.7125 2.2775 3.3625 1.9375 5.0625 C0.2875 5.0625 -1.3625 5.0625 -3.0625 5.0625 C-3.625 3.125 -3.625 3.125 -4.0625 1.0625 C-3.0625 0.0625 -3.0625 0.0625 0 0 Z " fill="#E6ECD7" transform="translate(126.0625,85.9375)"/>
<path d="M0 0 C2.375 0.3125 2.375 0.3125 5 1 C5.66 1.99 6.32 2.98 7 4 C3.7 4 0.4 4 -3 4 C-2.01 2.68 -1.02 1.36 0 0 Z " fill="#E9F1F6" transform="translate(84,180)"/>
<path d="M0 0 C2.97 0 5.94 0 9 0 C8.01 0.33 7.02 0.66 6 1 C6 1.66 6 2.32 6 3 C4.4221875 3.2165625 4.4221875 3.2165625 2.8125 3.4375 C-0.15460549 3.87526966 -3.06794366 4.37804866 -6 5 C-5.67 4.34 -5.34 3.68 -5 3 C-2.4375 2.375 -2.4375 2.375 0 2 C0 1.34 0 0.68 0 0 Z " fill="#877EAB" transform="translate(127,196)"/>
<path d="M0 0 C2.97 0.495 2.97 0.495 6 1 C5.34 2.32 4.68 3.64 4 5 C1.69 4.67 -0.62 4.34 -3 4 C-2.01 2.68 -1.02 1.36 0 0 Z " fill="#292340" transform="translate(92,102)"/>
<path d="M0 0 C0.33 0 0.66 0 1 0 C1.06058594 0.66386719 1.12117187 1.32773437 1.18359375 2.01171875 C1.79863507 8.54908081 1.79863507 8.54908081 3 15 C2.01 15.33 1.02 15.66 0 16 C0 10.72 0 5.44 0 0 Z " fill="#4E88D9" transform="translate(141,45)"/>
<path d="M0 0 C1.65 0 3.3 0 5 0 C5.33 1.65 5.66 3.3 6 5 C4.35 4.67 2.7 4.34 1 4 C0.67 2.68 0.34 1.36 0 0 Z " fill="#7F3A3A" transform="translate(126,27)"/>
<path d="M0 0 C1.32 0.33 2.64 0.66 4 1 C4 3.64 4 6.28 4 9 C3.67 8.01 3.34 7.02 3 6 C2.01 6 1.02 6 0 6 C0 4.02 0 2.04 0 0 Z " fill="#5389CD" transform="translate(136,43)"/>
<path d="M0 0 C1.65 0 3.3 0 5 0 C3.68 0.33 2.36 0.66 1 1 C1.185625 1.61875 1.37125 2.2375 1.5625 2.875 C2 5 2 5 1 7 C1.66 7 2.32 7 3 7 C2.67 7.99 2.34 8.98 2 10 C0 9 0 9 -1 6 C-1.99 5.67 -2.98 5.34 -4 5 C-2.68 4.67 -1.36 4.34 0 4 C0 2.68 0 1.36 0 0 Z " fill="#C07D75" transform="translate(119,22)"/>
<path d="M0 0 C0 0.66 0 1.32 0 2 C-3.465 3.485 -3.465 3.485 -7 5 C-7 4.34 -7 3.68 -7 3 C-8.98 3 -10.96 3 -13 3 C-13 2.67 -13 2.34 -13 2 C-11.39658445 1.66307215 -9.79223445 1.33058907 -8.1875 1 C-7.29417969 0.814375 -6.40085937 0.62875 -5.48046875 0.4375 C-3 0 -3 0 0 0 Z " fill="#82B5F4" transform="translate(45,50)"/>
<path d="M0 0 C-0.99 0.495 -0.99 0.495 -2 1 C-2.33 1.99 -2.66 2.98 -3 4 C-5.31 3.67 -7.62 3.34 -10 3 C-7.29536552 -0.8183075 -4.37912428 -0.24787496 0 0 Z " fill="#84597C" transform="translate(60,195)"/>
<path d="M0 0 C3.3 0.99 6.6 1.98 10 3 C10 3.33 10 3.66 10 4 C6.7 4 3.4 4 0 4 C0 2.68 0 1.36 0 0 Z " fill="#E9EDF0" transform="translate(69,137)"/>
<path d="M0 0 C0.33 0.66 0.66 1.32 1 2 C3.31 2 5.62 2 8 2 C7.01 3.485 7.01 3.485 6 5 C2.875 5.1875 2.875 5.1875 0 5 C0 3.35 0 1.7 0 0 Z " fill="#436ABB" transform="translate(78,111)"/>
<path d="M0 0 C2.0625 0.4375 2.0625 0.4375 4 1 C2.25 5.875 2.25 5.875 0 7 C-0.38133299 5.0085944 -0.71325582 3.00720923 -1 1 C-0.67 0.67 -0.34 0.34 0 0 Z " fill="#5EB571" transform="translate(122,80)"/>
<path d="M0 0 C0.99 0 1.98 0 3 0 C3 1.98 3 3.96 3 6 C1.02 6.99 1.02 6.99 -1 8 C-0.67 5.36 -0.34 2.72 0 0 Z " fill="#271A32" transform="translate(136,19)"/>
<path d="M0 0 C0.66 0.99 1.32 1.98 2 3 C0.71937515 4.7074998 -0.61767557 6.37373596 -2 8 C-2.66 8 -3.32 8 -4 8 C-3.40072174 4.64404172 -2.15377564 2.62198774 0 0 Z " fill="#5DC694" transform="translate(27,107)"/>
<path d="M0 0 C2.31 0 4.62 0 7 0 C7.66 1.32 8.32 2.64 9 4 C7.35 4.66 5.7 5.32 4 6 C4.33 4.68 4.66 3.36 5 2 C3.35 1.67 1.7 1.34 0 1 C0 0.67 0 0.34 0 0 Z " fill="#DBA84A" transform="translate(84,86)"/>
<path d="M0 0 C0.66 0.33 1.32 0.66 2 1 C2 5 2 5 0.6875 6.5625 C0.130625 7.036875 -0.42625 7.51125 -1 8 C-1.556875 8.556875 -2.11375 9.11375 -2.6875 9.6875 C-3.120625 10.120625 -3.55375 10.55375 -4 11 C-2.7874262 7.27566618 -1.49140021 3.62197194 0 0 Z " fill="#A9B572" transform="translate(143,62)"/>
<path d="M0 0 C0.66 0 1.32 0 2 0 C1.67 2.31 1.34 4.62 1 7 C0.01 6.67 -0.98 6.34 -2 6 C-1.49396008 3.83125748 -1.00016187 2.00032373 0 0 Z " fill="#6E84C7" transform="translate(119,45)"/>
<path d="M0 0 C2.31 0 4.62 0 7 0 C6.01 0.33 5.02 0.66 4 1 C2.79117904 3.00016466 2.79117904 3.00016466 2 5 C1.34 4.67 0.68 4.34 0 4 C0 2.68 0 1.36 0 0 Z " fill="#F38153" transform="translate(121,34)"/>
<path d="M0 0 C0.66 0.33 1.32 0.66 2 1 C0.515 4.465 0.515 4.465 -1 8 C-1.66 7.67 -2.32 7.34 -3 7 C-2.67 5.35 -2.34 3.7 -2 2 C-1.34 2 -0.68 2 0 2 C0 1.34 0 0.68 0 0 Z " fill="#2B63D8" transform="translate(136,81)"/>
<path d="M0 0 C0.99 0.33 1.98 0.66 3 1 C2.34 2.98 1.68 4.96 1 7 C0.34 7 -0.32 7 -1 7 C-0.67 4.69 -0.34 2.38 0 0 Z " fill="#4B84DF" transform="translate(130,80)"/>
<path d="M0 0 C0 1.98 0 3.96 0 6 C-1.65 6 -3.3 6 -5 6 C-4.23844604 3.71533812 -2.984409 0 0 0 Z " fill="#F1CD23" transform="translate(130,75)"/>
<path d="M0 0 C0.66 0 1.32 0 2 0 C1.67 2.31 1.34 4.62 1 7 C0.01 7.33 -0.98 7.66 -2 8 C-1.47731534 5.23723823 -0.89130413 2.6739124 0 0 Z " fill="#C1C73A" transform="translate(126,72)"/>
<path d="M0 0 C2.3125 1.25 2.3125 1.25 3.3125 3.25 C0.0125 2.59 -3.2875 1.93 -6.6875 1.25 C-2.6875 -0.75 -2.6875 -0.75 0 0 Z " fill="#6AA3F4" transform="translate(41.6875,30.75)"/>
<path d="M0 0 C0.33 0 0.66 0 1 0 C1 2.64 1 5.28 1 8 C0.01 8 -0.98 8 -2 8 C-2.33 7.01 -2.66 6.02 -3 5 C-2.01 4.67 -1.02 4.34 0 4 C0 2.68 0 1.36 0 0 Z " fill="#BB6E63" transform="translate(139,21)"/>
</svg>
