<?xml version="1.0" encoding="UTF-8"?>
<svg version="1.1" xmlns="http://www.w3.org/2000/svg" width="512" height="512">
<path d="M0 0 C1.01790619 0.00215515 2.03581238 0.0043103 3.08456421 0.00653076 C17.69363523 0.05620146 32.02575853 0.30709809 46.375 3.3125 C47.34985352 3.51117676 48.32470703 3.70985352 49.32910156 3.91455078 C88.37782454 12.08284366 124.83813271 27.70153311 156.375 52.3125 C157.27089844 52.99699219 158.16679687 53.68148437 159.08984375 54.38671875 C174.64561709 66.50203669 189.29582193 80.73146847 201.375 96.3125 C202.14972656 97.27027344 202.92445313 98.22804688 203.72265625 99.21484375 C238.26056965 142.61986011 256.81394766 197.76289597 256.69067383 253.03979492 C256.6875221 255.97938487 256.71104926 258.9179558 256.73632812 261.85742188 C256.78098737 275.23056192 255.57551542 288.12666711 253.375 301.3125 C253.09281616 303.01805054 253.09281616 303.01805054 252.80493164 304.75805664 C245.77946967 343.86954746 228.79665906 381.05202178 204.375 412.3125 C203.61574219 413.28445313 202.85648437 414.25640625 202.07421875 415.2578125 C189.73986402 430.63741644 175.93895499 445.19015196 160.375 457.3125 C159.43914062 458.07691406 158.50328125 458.84132813 157.5390625 459.62890625 C125.58628299 485.2157721 86.41988322 501.72551276 46.375 509.3125 C45.56562988 509.47621094 44.75625977 509.63992188 43.92236328 509.80859375 C13.88110013 515.67977137 -20.7615176 514.58512909 -50.625 508.3125 C-52.14794678 507.99901611 -52.14794678 507.99901611 -53.70166016 507.67919922 C-90.84546555 499.78695344 -125.70945445 483.68345578 -155.625 460.3125 C-156.59695312 459.55324219 -157.56890625 458.79398437 -158.5703125 458.01171875 C-173.94991644 445.67736402 -188.50265196 431.87645499 -200.625 416.3125 C-201.77162109 414.90871094 -201.77162109 414.90871094 -202.94140625 413.4765625 C-228.5282721 381.52378299 -245.03801276 342.35738322 -252.625 302.3125 C-252.78871094 301.50312988 -252.95242187 300.69375977 -253.12109375 299.85986328 C-258.59069558 271.87335724 -258.46977511 238.21828161 -252.625 210.3125 C-252.42632324 209.33764648 -252.22764648 208.36279297 -252.02294922 207.35839844 C-241.93598313 159.13741149 -219.89911449 114.53770064 -185.40722656 79.14160156 C-183.63301167 77.32072238 -181.87518486 75.48496071 -180.1171875 73.6484375 C-173.01562574 66.30860161 -165.60158994 59.73928631 -157.40917969 53.64355469 C-155.59628085 52.2910746 -153.80174757 50.91656557 -152.0078125 49.5390625 C-143.60124472 43.15234877 -134.85975388 37.61076633 -125.65234375 32.45166016 C-123.78933792 31.40484113 -121.94116361 30.33571119 -120.09375 29.26171875 C-83.4933446 8.69459905 -41.63834482 -0.15855121 0 0 Z " fill="#2196F3" transform="translate(255.625,-0.3125)"/>
<path d="M0 0 C1.52780933 -0.0096633 3.05561599 -0.01975735 4.5834198 -0.03025818 C7.77483546 -0.04813916 10.96600855 -0.05378755 14.1574707 -0.05200195 C18.2158321 -0.05169751 22.27261388 -0.09264548 26.33060169 -0.14431858 C29.48368758 -0.17793033 32.63640149 -0.18375204 35.78964806 -0.18217278 C37.28418101 -0.18567574 38.77872754 -0.19873303 40.27308083 -0.22216988 C50.86492932 -0.37275475 59.80223296 1.06621805 68.1497345 8.12742615 C74.62252685 15.04346372 76.99656912 24.47096084 79.24609375 33.42578125 C79.63713287 34.95854706 79.63713287 34.95854706 80.03607178 36.52227783 C80.58137926 38.67262736 81.12235121 40.82408056 81.65917969 42.9765625 C82.47575154 46.23508229 83.31721079 49.48649865 84.16015625 52.73828125 C91.41884686 81.28984258 91.41884686 81.28984258 84.23046875 93.50390625 C80.20567573 99.08024162 75.23439342 102.71902246 69.66796875 106.69140625 C68.81783203 107.30693359 67.96769531 107.92246094 67.09179688 108.55664062 C65.51357897 109.69914661 63.9330428 110.83846267 62.34936523 111.97338867 C60.2912428 113.46000805 58.25680959 114.97433835 56.23046875 116.50390625 C56.7686433 121.33819835 59.04051931 124.92788355 61.60546875 128.94140625 C62.27267944 129.99376465 62.27267944 129.99376465 62.95336914 131.06738281 C70.55225497 142.84452802 79.5479001 153.40261438 89.23046875 163.50390625 C89.73304199 164.03371094 90.23561523 164.56351563 90.75341797 165.109375 C104.9723626 180.03284198 121.37211929 192.22426943 139.23046875 202.50390625 C142.86477705 199.01780555 145.97595639 195.3611282 148.98046875 191.31640625 C164.39942176 171.08047091 164.39942176 171.08047091 176.25 168.96484375 C187.33815495 168.28054619 197.74717025 171.6982504 208.32421875 174.6328125 C215.45453915 176.60737807 222.64174139 178.21486017 229.90063477 179.64135742 C238.07543308 181.37025633 246.16246814 184.31966466 251.66796875 190.87890625 C252.28542969 191.58789062 252.90289062 192.296875 253.5390625 193.02734375 C257.33973935 198.59230708 258.60550218 203.19138272 258.66625977 209.90112305 C258.6763356 210.60463394 258.68641144 211.30814484 258.6967926 212.03297424 C258.72509521 214.33985664 258.7311407 216.64608018 258.734375 218.953125 C258.74403107 220.57347369 258.75412464 222.19381982 258.76463318 223.81416321 C258.78255225 227.20584159 258.78815886 230.59729133 258.78637695 233.98901367 C258.78607294 238.30522624 258.82695903 242.61994866 258.87869358 246.93580914 C258.91229189 250.28276608 258.91812734 253.62937228 258.91654778 256.97648048 C258.92005512 258.56590707 258.93313796 260.15534601 258.95654488 261.74460411 C259.10127775 272.58941096 257.95591491 281.96170772 250.48951721 290.49320984 C248.8349334 292.08372638 247.1727316 293.28443976 245.23046875 294.50390625 C244.62074219 294.91382813 244.01101563 295.32375 243.3828125 295.74609375 C225.98250241 305.46881037 194.38162272 296.00204448 176.421875 291.04296875 C159.23202047 286.04068385 142.3062589 280.42681229 126.23046875 272.50390625 C125.29025879 272.04532227 124.35004883 271.58673828 123.38134766 271.11425781 C95.11615902 257.21776889 68.10579902 239.38628497 46.23046875 216.50390625 C43.72375055 213.98055974 41.2019364 211.47615205 38.65234375 208.99609375 C32.36216665 202.83466296 26.63963315 196.46876421 21.23046875 189.50390625 C20.78622559 188.9413916 20.34198242 188.37887695 19.88427734 187.79931641 C-8.3890923 151.9023212 -29.04989076 108.15755717 -36.36376953 62.92675781 C-36.75761746 60.57504494 -37.20513564 58.24056225 -37.671875 55.90234375 C-43.48050308 26.02057659 -43.48050308 26.02057659 -36.1953125 14.34375 C-34.22109353 11.79619621 -32.22798066 9.59358825 -29.76953125 7.50390625 C-29.02703125 6.80265625 -28.28453125 6.10140625 -27.51953125 5.37890625 C-19.15170051 -0.32643289 -9.76571586 0.01461764 0 0 Z " fill="#EBEEF1" transform="translate(146.76953125,106.49609375)"/>
</svg>
