<?xml version="1.0" encoding="UTF-8"?>
<svg version="1.1" xmlns="http://www.w3.org/2000/svg" width="209" height="201">
<path d="M0 0 C68.97 0 137.94 0 209 0 C209 66.33 209 132.66 209 201 C140.03 201 71.06 201 0 201 C0 134.67 0 68.34 0 0 Z " fill="#FCFBFC" transform="translate(0,0)"/>
<path d="M0 0 C4.97709732 5.30405992 7.24284851 10.9123401 7.27415466 18.19059753 C7.28412979 19.43672821 7.29410492 20.68285889 7.30438232 21.9667511 C7.30527804 23.34005725 7.30594166 24.71336356 7.30639648 26.08666992 C7.31402172 27.5391482 7.32244985 28.99162245 7.33161926 30.4440918 C7.35353946 34.38443197 7.36236019 38.32469454 7.36744571 42.2650888 C7.37109322 44.7301085 7.37733543 47.19510802 7.3844471 49.66012001 C7.40893618 58.26927199 7.42199163 66.8783638 7.42553711 75.48754883 C7.42916857 83.49637825 7.4590372 91.50482356 7.50094169 99.51353568 C7.53570941 106.40122251 7.55108669 113.28878248 7.55178314 120.17655641 C7.55257397 124.28497611 7.56122196 128.39300465 7.58978081 132.50133324 C7.61607203 136.36996826 7.61810595 140.23789097 7.60212517 144.10657501 C7.6003192 145.5198326 7.60692393 146.93313218 7.62294388 148.34630013 C7.73167083 158.56751645 6.40561463 166.17480303 -0.625 173.875 C-4.51136591 176.32197113 -8.35851272 177.77122416 -12.70703125 179.203125 C-14.93655786 179.79129158 -14.93655786 179.79129158 -16 181 C-14.906875 180.95875 -13.81375 180.9175 -12.6875 180.875 C-9 181 -9 181 -6 183 C-17.83247784 186.94415928 -32.45515778 185.16393145 -44.75390625 185.16796875 C-47.06452962 185.17118746 -49.3751528 185.17455198 -51.68577576 185.17805481 C-56.51114372 185.18401793 -61.33649385 185.18589748 -66.16186523 185.18530273 C-72.32375778 185.18520095 -78.48553553 185.19888287 -84.64740086 185.21607494 C-89.41310648 185.22722569 -94.17878454 185.22922104 -98.94450188 185.22869301 C-101.21573217 185.22986734 -103.4869633 185.23425814 -105.75818062 185.24202538 C-108.93986074 185.2518933 -112.12129387 185.24892112 -115.30297852 185.24291992 C-116.68811897 185.25134918 -116.68811897 185.25134918 -118.10124207 185.25994873 C-124.57800277 185.22912182 -130.66724276 184.33805612 -137 183 C-135.515 182.01 -135.515 182.01 -134 181 C-134 180.34 -134 179.68 -134 179 C-134.556875 178.93683594 -135.11375 178.87367188 -135.6875 178.80859375 C-143.15583475 177.61012787 -147.78456133 174.20980843 -152.3515625 168.23046875 C-156.57082821 161.50696259 -156.25015603 153.55857864 -156.375 145.875 C-156.41238281 144.99457031 -156.44976562 144.11414063 -156.48828125 143.20703125 C-156.57760691 136.62670796 -156.57760691 136.62670796 -153.47265625 133.2578125 C-152.65667969 132.51273438 -151.84070313 131.76765625 -151 131 C-150.62014673 128.03998447 -150.62014673 128.03998447 -151.0625 125 C-151.30602134 119.50724085 -151.30602134 119.50724085 -149.859375 117.109375 C-146.6191683 114.26192063 -144.15032834 113.80202863 -140 114 C-140.03480469 113.27554688 -140.06960937 112.55109375 -140.10546875 111.8046875 C-140.2657477 106.08043945 -140.28630675 101.92946013 -137 97 C-134.54026222 94.54026222 -133.70700615 94.67698325 -130.3125 94.625 C-125.11288855 94.70046606 -122.22641038 96.05988843 -118 99 C-117.95875 98.236875 -117.9175 97.47375 -117.875 96.6875 C-117 94 -117 94 -114.25 92.25 C-111.45852341 91.17635516 -108.94934508 90.43372722 -106 90 C-99 105.4 -99 105.4 -99 111 C-82.83 110.67 -66.66 110.34 -50 110 C-51.98 105.38 -53.96 100.76 -56 96 C-57.0430575 93.01469749 -58.0595903 90.01921009 -59 87 C-59.33 86.01 -59.66 85.02 -60 84 C-63.0549278 82.4725361 -66.2763314 82.76008168 -69.6328125 82.68359375 C-70.38464813 82.66281265 -71.13648376 82.64203156 -71.91110229 82.62062073 C-74.31564085 82.55517295 -76.72028967 82.49626262 -79.125 82.4375 C-80.75391771 82.39431023 -82.38282422 82.35069579 -84.01171875 82.30664062 C-88.00769915 82.19949649 -92.00379059 82.09821567 -96 82 C-93.61907909 69.54674288 -87.18681438 59.7657731 -76.76953125 52.59765625 C-73.15423942 50.51210709 -70.10958031 49.62031401 -66 49 C-66 48.34 -66 47.68 -66 47 C-66.639375 46.835 -67.27875 46.67 -67.9375 46.5 C-70 45 -70 45 -70.48828125 43.0859375 C-70.7275978 41.06424845 -70.86893028 39.03158061 -71 37 C-72.11375 36.896875 -73.2275 36.79375 -74.375 36.6875 C-75.57125 36.460625 -76.7675 36.23375 -78 36 C-80 33 -80 33 -79.8125 29.625 C-78.67622016 24.55544378 -77.33986229 21.89324153 -73 19 C-67.20467676 18.43183105 -63.24521149 19.7914899 -58 22 C-58 21.154375 -58 20.30875 -58 19.4375 C-55.31177094 10.1967126 -41.6351512 3.110254 -33.48046875 -1.390625 C-21.93795674 -6.80812626 -10.62761813 -8.04809917 0 0 Z " fill="#FCBEDD" transform="translate(180,11)"/>
<path d="M0 0 C2 1.4375 2 1.4375 4 4 C4.37168139 7.02811015 4.20135154 9.96294753 4 13 C4 13.99 4 14.98 4 16 C3.17647059 22.82352941 3.17647059 22.82352941 2 24 C1.92851801 25.35243917 1.91600546 26.70834367 1.9375 28.0625 C1.958125 29.361875 1.97875 30.66125 2 32 C2.804375 32.226875 3.60875 32.45375 4.4375 32.6875 C13.41604661 35.99538559 22.47719926 41.31258676 27.62109375 49.6171875 C29.43257306 54.06121324 30.33071494 58.47748199 31.1875 63.1875 C31.35967041 64.12207031 31.53184082 65.05664062 31.70922852 66.01953125 C34.43838693 81.51758953 34.43838693 81.51758953 31.8125 87.875 C29.66459779 90.39323018 27.40419306 92.72576332 25 95 C25.33 95.33 25.66 95.66 26 96 C26.4652292 100.32490853 26.70500473 104.65935537 27 109 C19.08 109 11.16 109 3 109 C2.12223787 115.3837246 1.24710224 121.7675338 0.38476562 128.15332031 C0.15040624 129.88722288 -0.08499594 131.62098547 -0.32226562 133.35449219 C-1.44310242 141.57777437 -2.27924327 149.75042533 -2.65869141 158.03857422 C-2.8989375 162.8989375 -2.8989375 162.8989375 -4 164 C-6.01964199 164.07244053 -8.04167124 164.08377188 -10.0625 164.0625 C-11.16722656 164.05347656 -12.27195313 164.04445312 -13.41015625 164.03515625 C-14.69212891 164.01775391 -14.69212891 164.01775391 -16 164 C-14.125 160.125 -14.125 160.125 -13 159 C-13.04036632 156.60907202 -13.15105674 154.25891592 -13.3125 151.875 C-13.35882568 151.13596436 -13.40515137 150.39692871 -13.45288086 149.63549805 C-13.95274639 142.02834007 -14.63153849 134.43554162 -15.33911133 126.84521484 C-15.76305528 122.21185569 -16.1174611 117.65929049 -16 113 C-19.3 113 -22.6 113 -26 113 C-26.02505615 114.50941162 -26.0501123 116.01882324 -26.07592773 117.57397461 C-26.16980321 123.15186674 -26.27007164 128.72962852 -26.37231445 134.30737305 C-26.41573878 136.72563639 -26.45740812 139.1439319 -26.49731445 141.56225586 C-26.55483603 145.02988396 -26.61858187 148.49734903 -26.68359375 151.96484375 C-26.70866249 153.59763527 -26.70866249 153.59763527 -26.73423767 155.26341248 C-26.75418289 156.26437454 -26.77412811 157.26533661 -26.79467773 158.29663086 C-26.81022202 159.18265488 -26.8257663 160.06867889 -26.84178162 160.98155212 C-27 163 -27 163 -28 164 C-30.01964199 164.07244053 -32.04167124 164.08377188 -34.0625 164.0625 C-35.16722656 164.05347656 -36.27195312 164.04445312 -37.41015625 164.03515625 C-38.69212891 164.01775391 -38.69212891 164.01775391 -40 164 C-40 163.34 -40 162.68 -40 162 C-38.515 161.01 -38.515 161.01 -37 160 C-38.32 151.75 -39.64 143.5 -41 135 C-41.61620448 142.01474951 -41.61620448 142.01474951 -42.22631836 149.0300293 C-42.30503174 149.91086182 -42.38374512 150.79169434 -42.46484375 151.69921875 C-42.543396 152.59471436 -42.62194824 153.49020996 -42.70288086 154.4128418 C-42.9980463 156.98298823 -43.45612236 159.47186549 -44 162 C-44.33 162 -44.66 162 -45 162 C-45.02792326 160.54178519 -45.04679418 159.08339757 -45.0625 157.625 C-45.07410156 156.81289062 -45.08570312 156.00078125 -45.09765625 155.1640625 C-45.0155028 152.50229082 -44.7969247 149.94070605 -44.5078125 147.296875 C-43.96028255 142.06340531 -43.80860471 136.88461876 -43.8125 131.625 C-43.81185547 130.70960449 -43.81121094 129.79420898 -43.81054688 128.85107422 C-43.85703291 122.88501404 -44.38953999 117.23923078 -45.5390625 111.375 C-46.51865695 106.32759808 -46.68055735 103.20231799 -44.125 98.6875 C-40.46967996 94.06459524 -40.46967996 94.06459524 -37.97518921 93.7215271 C-37.14468048 93.70820343 -36.31417175 93.69487976 -35.45849609 93.68115234 C-34.51767181 93.66128265 -33.57684753 93.64141296 -32.60751343 93.62094116 C-31.58976837 93.60938995 -30.57202332 93.59783875 -29.5234375 93.5859375 C-28.48305328 93.56657135 -27.44266907 93.5472052 -26.37075806 93.5272522 C-23.0389228 93.46734273 -19.70705321 93.42102548 -16.375 93.375 C-14.11977637 93.3368307 -11.86456748 93.2977796 -9.609375 93.2578125 C-4.07304725 93.16163201 1.46336885 93.07661804 7 93 C6.58790283 92.04955811 6.17580566 91.09911621 5.7512207 90.11987305 C5.20514725 88.85469536 4.65917267 87.58947499 4.11328125 86.32421875 C3.84229614 85.69994995 3.57131104 85.07568115 3.29211426 84.43249512 C1.2466145 79.68351355 -0.46328911 74.93365077 -2 70 C-2.33 69.01 -2.66 68.02 -3 67 C-6.0549278 65.4725361 -9.2763314 65.76008168 -12.6328125 65.68359375 C-13.38464813 65.66281265 -14.13648376 65.64203156 -14.91110229 65.62062073 C-17.31564085 65.55517295 -19.72028967 65.49626262 -22.125 65.4375 C-23.75391771 65.39431023 -25.38282422 65.35069579 -27.01171875 65.30664062 C-31.00769915 65.19949649 -35.00379059 65.09821567 -39 65 C-36.61907909 52.54674288 -30.18681438 42.7657731 -19.76953125 35.59765625 C-16.15423942 33.51210709 -13.10958031 32.62031401 -9 32 C-9 31.34 -9 30.68 -9 30 C-9.639375 29.835 -10.27875 29.67 -10.9375 29.5 C-13 28 -13 28 -13.48828125 26.0859375 C-13.7275978 24.06424845 -13.86893028 22.03158061 -14 20 C-15.11375 19.896875 -16.2275 19.79375 -17.375 19.6875 C-19.169375 19.3471875 -19.169375 19.3471875 -21 19 C-23 16 -23 16 -22.8125 12.625 C-21.67622016 7.55544378 -20.33986229 4.89324153 -16 2 C-10.20467676 1.43183105 -6.24521149 2.7914899 -1 5 C-0.67 3.35 -0.34 1.7 0 0 Z " fill="#C44374" transform="translate(123,28)"/>
<path d="M0 0 C0.77783203 1.73413086 0.77783203 1.73413086 1.5078125 3.96484375 C1.77207031 4.76470703 2.03632812 5.56457031 2.30859375 6.38867188 C2.57800781 7.22978516 2.84742188 8.07089844 3.125 8.9375 C3.40214844 9.77474609 3.67929688 10.61199219 3.96484375 11.47460938 C6 17.70539563 6 17.70539563 6 20 C6.66 20.33 7.32 20.66 8 21 C7.360625 21.78375 6.72125 22.5675 6.0625 23.375 C2.75421176 27.58554867 2.98492981 30.22607347 3.375 35.375 C3.41882813 36.04789063 3.46265625 36.72078125 3.5078125 37.4140625 C3.77485489 41.22138952 3.77485489 41.22138952 4.51147461 44.95751953 C5.41700932 48.74347823 5.19030924 52.62500583 5.1875 56.5 C5.18814453 57.41676514 5.18878906 58.33353027 5.18945312 59.27807617 C5.1169648 68.92314187 4.15103437 78.43202682 3 88 C-1.23175554 88.04998439 -5.46334796 88.08599164 -9.6953125 88.10986328 C-11.13056436 88.11983031 -12.56579642 88.13340887 -14.00097656 88.15087891 C-36.62907089 88.41913386 -36.62907089 88.41913386 -44.30859375 80.92578125 C-51.06287484 73.23557207 -51.21561314 64.68453674 -51.375 54.875 C-51.41238281 53.99457031 -51.44976562 53.11414063 -51.48828125 52.20703125 C-51.57760691 45.62670796 -51.57760691 45.62670796 -48.47265625 42.2578125 C-47.65667969 41.51273438 -46.84070313 40.76765625 -46 40 C-45.62014673 37.03998447 -45.62014673 37.03998447 -46.0625 34 C-46.30602134 28.50724085 -46.30602134 28.50724085 -44.859375 26.109375 C-41.6191683 23.26192063 -39.15032834 22.80202863 -35 23 C-35.03480469 22.27554688 -35.06960937 21.55109375 -35.10546875 20.8046875 C-35.2657477 15.08043945 -35.28630675 10.92946013 -32 6 C-29.54026222 3.54026222 -28.70700615 3.67698325 -25.3125 3.625 C-20.11288855 3.70046606 -17.22641038 5.05988843 -13 8 C-12.95875 7.236875 -12.9175 6.47375 -12.875 5.6875 C-12 3 -12 3 -9.1875 1.25 C-2.63736264 -1.31868132 -2.63736264 -1.31868132 0 0 Z " fill="#FB8BAC" transform="translate(75,102)"/>
<path d="M0 0 C3.93395303 12.16780822 3.93395303 12.16780822 4.3125 16.9375 C5.22567252 21.00526851 7.20711607 22.05485026 10.39453125 24.5390625 C12 26 12 26 13.1875 28.9375 C12.85809896 34.31771691 10.33517998 37.73329079 6.5625 41.3125 C2.50885834 43.98197134 -0.10796255 45 -5 45 C-4.83628906 45.78632813 -4.67257813 46.57265625 -4.50390625 47.3828125 C-3.87344229 51.90846849 -3.89284476 56.31329568 -3.9375 60.875 C-3.94201172 61.75414062 -3.94652344 62.63328125 -3.95117188 63.5390625 C-3.96287663 65.69273803 -3.98080931 67.84637817 -4 70 C-4.33 70 -4.66 70 -5 70 C-5.33768172 66.93796326 -5.66936893 63.87530542 -6 60.8125 C-6.09539062 59.94818359 -6.19078125 59.08386719 -6.2890625 58.19335938 C-6.72690189 54.11207075 -7.13621913 50.11211498 -7 46 C-7.99 46.495 -7.99 46.495 -9 47 C-9.03758423 48.1281311 -9.03758423 48.1281311 -9.07592773 49.27905273 C-9.19150514 52.66539196 -9.31440345 56.05142613 -9.4375 59.4375 C-9.47681641 60.62150391 -9.51613281 61.80550781 -9.55664062 63.02539062 C-9.59853516 64.15009766 -9.64042969 65.27480469 -9.68359375 66.43359375 C-9.72025146 67.47572021 -9.75690918 68.51784668 -9.79467773 69.59155273 C-10 72 -10 72 -11 73 C-13.20867831 73.09432985 -15.42041521 73.11742431 -17.63110352 73.11352539 C-18.32375305 73.11367142 -19.01640259 73.11381744 -19.7300415 73.1139679 C-22.02969446 73.11326874 -24.32926737 73.10547628 -26.62890625 73.09765625 C-28.21931412 73.09579208 -29.80972257 73.09436817 -31.40013123 73.09336853 C-35.5939593 73.08954329 -39.78775295 73.07971295 -43.98156738 73.06866455 C-48.25788914 73.05845057 -52.53421644 73.05387094 -56.81054688 73.04882812 C-65.20704708 73.03809069 -73.60351926 73.02101419 -82 73 C-82 72.34 -82 71.68 -82 71 C-77.545 70.505 -77.545 70.505 -73 70 C-72.34 60.1 -71.68 50.2 -71 40 C-68.8622796 43.20658059 -68.50173245 45.00529022 -67.9296875 48.76171875 C-67.75566406 49.87998047 -67.58164063 50.99824219 -67.40234375 52.15039062 C-67.22832031 53.31763672 -67.05429688 54.48488281 -66.875 55.6875 C-66.69324219 56.86634766 -66.51148437 58.04519531 -66.32421875 59.25976562 C-65.87614798 62.1722256 -65.43502764 65.0855681 -65 68 C-66.98 68.99 -66.98 68.99 -69 70 C-69 70.66 -69 71.32 -69 72 C-63.06 71.505 -63.06 71.505 -57 71 C-56.97494385 69.91170898 -56.9498877 68.82341797 -56.92407227 67.70214844 C-56.8288834 63.6092841 -56.72894945 59.51654628 -56.62768555 55.42382812 C-56.58475303 53.66279082 -56.54305503 51.90172292 -56.50268555 50.140625 C-56.27829118 40.38916628 -55.94755272 30.71440599 -55 21 C-51.7 21 -48.4 21 -45 21 C-44.87882812 22.29550781 -44.75765625 23.59101563 -44.6328125 24.92578125 C-44.46377928 26.72137655 -44.2944889 28.51694765 -44.125 30.3125 C-44.03621582 31.25424072 -43.94743164 32.19598145 -43.85595703 33.16625977 C-43.16969696 40.37802088 -42.42444088 47.58208187 -41.60986328 54.78051758 C-40.37055075 66.0951667 -40.37055075 66.0951667 -43 69.875 C-43.66 70.57625 -44.32 71.2775 -45 72 C-39.06 71.505 -39.06 71.505 -33 71 C-32.95101562 70.030625 -32.90203125 69.06125 -32.8515625 68.0625 C-32.1340628 54.82546489 -30.47214336 41.78101383 -28.4375 28.6875 C-28.31068848 27.86854248 -28.18387695 27.04958496 -28.05322266 26.20581055 C-27.54820736 23.03728989 -27.01650874 20.04952621 -26 17 C-18.08 17 -10.16 17 -2 17 C-2.495 16.01 -2.495 16.01 -3 15 C-3.22914596 13.19229299 -3.41057811 11.37832825 -3.5625 9.5625 C-3.64628906 8.59441406 -3.73007813 7.62632813 -3.81640625 6.62890625 C-3.94719186 4.75616766 -4 2.87729984 -4 1 C-2 0 -2 0 0 0 Z " fill="#7F537B" transform="translate(152,120)"/>
<path d="M0 0 C0.94037109 0.00410889 1.88074219 0.00821777 2.84960938 0.01245117 C3.87183594 0.01438477 4.8940625 0.01631836 5.94726562 0.01831055 C7.01847656 0.03055664 8.0896875 0.04280273 9.19335938 0.05541992 C10.26457031 0.05606445 11.33578125 0.05670898 12.43945312 0.05737305 C20.4127571 0.10261878 20.4127571 0.10261878 22.69335938 1.24291992 C22.36335938 2.56291992 22.03335938 3.88291992 21.69335938 5.24291992 C23.746064 3.4010338 23.746064 3.4010338 24.69335938 1.24291992 C35.25335938 1.24291992 45.81335938 1.24291992 56.69335938 1.24291992 C53.62766215 3.54219284 50.89148336 5.23337354 47.47460938 6.88745117 C42.57253864 10.617755 41.07326417 15.58865408 40.06835938 21.43041992 C39.89071045 22.44797363 39.89071045 22.44797363 39.70947266 23.48608398 C38.63414494 29.93805031 37.94696638 36.43601261 37.33935547 42.94677734 C37.26797363 43.70966064 37.1965918 44.47254395 37.12304688 45.25854492 C37.06358887 45.93175781 37.00413086 46.6049707 36.94287109 47.29858398 C36.69335938 49.24291992 36.69335938 49.24291992 36.18408203 51.25097656 C35.19350813 55.27191809 35.2829583 59.53390924 35.08789062 63.6628418 C34.79560518 69.14067411 34.79560518 69.14067411 33.69335938 70.24291992 C31.67371739 70.31536045 29.65168814 70.3266918 27.63085938 70.30541992 C26.52613281 70.29639648 25.42140625 70.28737305 24.28320312 70.27807617 C23.42855469 70.26647461 22.57390625 70.25487305 21.69335938 70.24291992 C23.56835937 66.36791992 23.56835937 66.36791992 24.69335938 65.24291992 C24.65299306 62.85199194 24.54230264 60.50183585 24.38085938 58.11791992 C24.33453369 57.37888428 24.28820801 56.63984863 24.24047852 55.87841797 C23.74061298 48.27125999 23.06182088 40.67846155 22.35424805 33.08813477 C21.93030409 28.45477561 21.57589827 23.90221041 21.69335938 19.24291992 C18.39335938 19.24291992 15.09335938 19.24291992 11.69335938 19.24291992 C11.66830322 20.75233154 11.64324707 22.26174316 11.61743164 23.81689453 C11.52355617 29.39478666 11.42328773 34.97254844 11.32104492 40.55029297 C11.2776206 42.96855632 11.23595126 45.38685182 11.19604492 47.80517578 C11.13852334 51.27280388 11.07477751 54.74026895 11.00976562 58.20776367 C10.98469688 59.84055519 10.98469688 59.84055519 10.9591217 61.5063324 C10.93917648 62.50729446 10.91923126 63.50825653 10.89868164 64.53955078 C10.88313736 65.4255748 10.86759308 66.31159882 10.85157776 67.22447205 C10.69335938 69.24291992 10.69335938 69.24291992 9.69335938 70.24291992 C7.67371739 70.31536045 5.65168814 70.3266918 3.63085938 70.30541992 C2.52613281 70.29639648 1.42140625 70.28737305 0.28320312 70.27807617 C-0.57144531 70.26647461 -1.42609375 70.25487305 -2.30664062 70.24291992 C-2.30664062 69.58291992 -2.30664062 68.92291992 -2.30664062 68.24291992 C-0.82164063 67.25291992 -0.82164063 67.25291992 0.69335938 66.24291992 C-0.62664062 57.99291992 -1.94664063 49.74291992 -3.30664062 41.24291992 C-3.92284511 48.25766944 -3.92284511 48.25766944 -4.53295898 55.27294922 C-4.61167236 56.15378174 -4.69038574 57.03461426 -4.77148438 57.94213867 C-4.85003662 58.83763428 -4.92858887 59.73312988 -5.00952148 60.65576172 C-5.30468693 63.22590815 -5.76276299 65.71478541 -6.30664062 68.24291992 C-6.63664062 68.24291992 -6.96664062 68.24291992 -7.30664062 68.24291992 C-7.33456389 66.78470511 -7.35343481 65.32631749 -7.36914062 63.86791992 C-7.38074219 63.05581055 -7.39234375 62.24370117 -7.40429688 61.40698242 C-7.32214343 58.74521074 -7.10356532 56.18362597 -6.81445312 53.53979492 C-6.26692318 48.30632523 -6.11524533 43.12753868 -6.11914062 37.86791992 C-6.11849609 36.95252441 -6.11785156 36.03712891 -6.1171875 35.09399414 C-6.16367354 29.12793396 -6.69618061 23.4821507 -7.84570312 17.61791992 C-8.82529758 12.57051801 -8.98719798 9.44523791 -6.43164062 4.93041992 C-2.76326918 0.29100898 -2.76326918 0.29100898 0 0 Z " fill="#1A1C40" transform="translate(85.306640625,121.757080078125)"/>
<path d="M0 0 C1.29349365 0.00523682 2.5869873 0.01047363 3.91967773 0.01586914 C4.9496714 0.01799156 4.9496714 0.01799156 6.00047302 0.02015686 C8.20144949 0.0257706 10.40232557 0.03832532 12.60327148 0.05102539 C14.09220231 0.05603863 15.58113473 0.06060184 17.07006836 0.06469727 C20.72700223 0.07574446 24.38387707 0.09301826 28.04077148 0.11352539 C28.53577148 2.09352539 28.53577148 2.09352539 29.04077148 4.11352539 C31.02077148 4.11352539 33.00077148 4.11352539 35.04077148 4.11352539 C35.53577148 5.59852539 35.53577148 5.59852539 36.04077148 7.11352539 C37.03077148 7.44352539 38.02077148 7.77352539 39.04077148 8.11352539 C38.05077148 5.80352539 37.06077148 3.49352539 36.04077148 1.11352539 C39.14025296 1.12652112 42.0383835 1.31074785 45.04077148 2.11352539 C46.91577148 4.61352539 46.91577148 4.61352539 48.04077148 8.11352539 C48.28053711 8.78899414 48.52030273 9.46446289 48.76733398 10.16040039 C50.72762346 15.74425525 52.37000742 21.43766734 54.04077148 27.11352539 C56.68077148 27.11352539 59.32077148 27.11352539 62.04077148 27.11352539 C62.04077148 27.44352539 62.04077148 27.77352539 62.04077148 28.11352539 C43.23077148 28.11352539 24.42077148 28.11352539 5.04077148 28.11352539 C-1.92351423 8.38138253 -1.92351423 8.38138253 -3.95922852 1.11352539 C-2.95922852 0.11352539 -2.95922852 0.11352539 0 0 Z " fill="#CBE6F3" transform="translate(75.959228515625,93.886474609375)"/>
<path d="M0 0 C0 1.65 0 3.3 0 5 C6.11132477 6.39223227 6.11132477 6.39223227 17 6 C17.33 20.19 17.66 34.38 18 49 C17.01 48.505 17.01 48.505 16 48 C15.21875 45.63671875 15.21875 45.63671875 14.5 42.6875 C13.64958899 39.22577256 12.8535676 36.06821607 11 33 C7.9450722 31.4725361 4.7236686 31.76008168 1.3671875 31.68359375 C0.61535187 31.66281265 -0.13648376 31.64203156 -0.91110229 31.62062073 C-3.31564085 31.55517295 -5.72028967 31.49626262 -8.125 31.4375 C-9.75391771 31.39431023 -11.38282422 31.35069579 -13.01171875 31.30664062 C-17.00769915 31.19949649 -21.00379059 31.09821567 -25 31 C-22.56068655 18.24132434 -15.98981313 8.88488816 -5.48828125 1.43359375 C-3 0 -3 0 0 0 Z " fill="#C54472" transform="translate(109,62)"/>
<path d="M0 0 C0.2475 1.27875 0.495 2.5575 0.75 3.875 C1.51990586 7.26747318 1.51990586 7.26747318 4.125 9.5 C4.74375 9.665 5.3625 9.83 6 10 C5.67 10.99 5.34 11.98 5 13 C3.03125 13.703125 3.03125 13.703125 0.5 14.25 C-7.95193422 16.5923932 -14.02352157 21.81641582 -18.55371094 29.27001953 C-20.19795808 32.37366091 -21.43660925 35.51755413 -22.671875 38.8046875 C-23.33074707 40.54854736 -23.33074707 40.54854736 -24.00292969 42.32763672 C-24.49647949 43.65045654 -24.49647949 43.65045654 -25 45 C-23.47862427 44.97643433 -23.47862427 44.97643433 -21.92651367 44.95239258 C-18.16389913 44.89809681 -14.40131922 44.86365149 -10.63842773 44.83520508 C-9.00978777 44.82011757 -7.38118844 44.79964494 -5.75268555 44.77368164 C-3.41184465 44.73729551 -1.07154081 44.7202738 1.26953125 44.70703125 C1.99775589 44.69154739 2.72598053 44.67606354 3.47627258 44.66011047 C8.55384196 44.65841969 8.55384196 44.65841969 10.9831543 46.51831055 C11.31871338 47.00726807 11.65427246 47.49622559 12 48 C8.71303767 48.79953138 7.28976808 49.09658936 4 48 C4.66 48.99 5.32 49.98 6 51 C6 51.99 6 52.98 6 54 C4.02 53.505 4.02 53.505 2 53 C2 52.01 2 51.02 2 50 C-0.97 50.495 -0.97 50.495 -4 51 C-4.33 49.35 -4.66 47.7 -5 46 C-20.345 46.495 -20.345 46.495 -36 47 C-35.67 48.98 -35.34 50.96 -35 53 C-35.62648438 53.27714844 -36.25296875 53.55429688 -36.8984375 53.83984375 C-37.71570313 54.20207031 -38.53296875 54.56429687 -39.375 54.9375 C-40.59316406 55.47697266 -40.59316406 55.47697266 -41.8359375 56.02734375 C-43.23683785 56.6569903 -44.62625284 57.31312642 -46 58 C-46.65213292 60.02463255 -46.65213292 60.02463255 -47 62 C-49.96175123 61.38722388 -51.38058783 60.74627478 -54 59 C-56.0492094 58.54860541 -56.0492094 58.54860541 -58.1875 58.375 C-60.0746875 58.189375 -60.0746875 58.189375 -62 58 C-62 57.67 -62 57.34 -62 57 C-61.01 56.87625 -60.02 56.7525 -59 56.625 C-54.07381238 55.2516386 -51.86957444 51.49879877 -48.92578125 47.5546875 C-46.51373702 44.35493715 -43.96910466 41.68633279 -41 39 C-40.34 39 -39.68 39 -39 39 C-38.79761719 38.46890625 -38.59523438 37.9378125 -38.38671875 37.390625 C-36.39543157 33.95775809 -33.65521151 31.49124294 -30.8125 28.75 C-24.98394886 23.02941462 -19.56548815 17.11751014 -14.375 10.8125 C-5.24444444 0 -5.24444444 0 0 0 Z " fill="#FBC9DF" transform="translate(109,48)"/>
<path d="M0 0 C1.11375 0.185625 1.11375 0.185625 2.25 0.375 C2.91 1.695 3.57 3.015 4.25 4.375 C6.23 4.375 8.21 4.375 10.25 4.375 C10.88019694 12.41001094 10.88019694 12.41001094 8.25 16.4375 C7.59 17.076875 6.93 17.71625 6.25 18.375 C6.86875 18.66375 7.4875 18.9525 8.125 19.25 C10.25 20.375 10.25 20.375 12.25 22.375 C12.81368339 25.40479824 12.73797086 27.45529192 11.27758789 30.20776367 C9.07106125 33.16910285 7.44218941 35.07971616 3.77490234 35.98803711 C0.88286229 36.17331887 -1.91795114 36.13374153 -4.8125 36 C-5.79283203 35.99355469 -6.77316406 35.98710937 -7.78320312 35.98046875 C-16.87977324 35.7705004 -16.87977324 35.7705004 -20.75 32.375 C-22.20231654 28.01805039 -22.51669196 23.9172882 -21.75 19.375 C-19.9971632 16.71633478 -18.63415274 16.00753929 -15.75 14.375 C-14.1 14.375 -12.45 14.375 -10.75 14.375 C-10.75 10.745 -10.75 7.115 -10.75 3.375 C-10.42 3.375 -10.09 3.375 -9.75 3.375 C-9.72287649 5.77091038 -9.7031018 8.16650957 -9.6875 10.5625 C-9.67912109 11.23603516 -9.67074219 11.90957031 -9.66210938 12.60351562 C-9.64393462 16.32934131 -9.85700608 19.7538042 -10.75 23.375 C-9.43 23.375 -8.11 23.375 -6.75 23.375 C-6.79640625 22.21742188 -6.8428125 21.05984375 -6.890625 19.8671875 C-6.92816248 18.32815094 -6.96456051 16.7890863 -7 15.25 C-7.03351562 14.48945312 -7.06703125 13.72890625 -7.1015625 12.9453125 C-7.19617159 7.45798553 -6.49270984 0.88536952 0 0 Z " fill="#A9A5DF" transform="translate(50.75,110.625)"/>
<path d="M0 0 C2 1.4375 2 1.4375 4 4 C4.37168139 7.02811015 4.20135154 9.96294753 4 13 C4 13.99 4 14.98 4 16 C3.17647059 22.82352941 3.17647059 22.82352941 2 24 C1.92851801 25.35243917 1.91600546 26.70834367 1.9375 28.0625 C1.958125 29.361875 1.97875 30.66125 2 32 C2.66 32 3.32 32 4 32 C4 36.95 4 41.9 4 47 C3.67 47 3.34 47 3 47 C3 44.69 3 42.38 3 40 C2.505 40.165 2.01 40.33 1.5 40.5 C-4.06869464 41.61373893 -8.90102784 41.54948608 -14 39 C-14 37.02 -14 35.04 -14 33 C-11.525 32.505 -11.525 32.505 -9 32 C-9 31.34 -9 30.68 -9 30 C-9.639375 29.835 -10.27875 29.67 -10.9375 29.5 C-13 28 -13 28 -13.48828125 26.0859375 C-13.7275978 24.06424845 -13.86893028 22.03158061 -14 20 C-15.11375 19.896875 -16.2275 19.79375 -17.375 19.6875 C-19.169375 19.3471875 -19.169375 19.3471875 -21 19 C-23 16 -23 16 -22.8125 12.625 C-21.67622016 7.55544378 -20.33986229 4.89324153 -16 2 C-10.20467676 1.43183105 -6.24521149 2.7914899 -1 5 C-0.67 3.35 -0.34 1.7 0 0 Z " fill="#F5836C" transform="translate(123,28)"/>
<path d="M0 0 C4.25516734 3.75455942 6.86952819 7.86800871 9.66796875 12.79296875 C10.93978313 15.09979223 10.93978313 15.09979223 13 17 C16.59476952 17.1891984 19.79711572 17.26572992 23.31640625 16.48828125 C25.7246144 15.97893096 27.55598555 15.65729687 30 16 C34.03646333 19.47912739 36.696647 24.01122698 37.23828125 29.34765625 C37.42432631 36.15298881 36.65592288 42.12328729 33 48 C30.35546875 50.28515625 30.35546875 50.28515625 28 52 C27.68869141 50.515 27.68869141 50.515 27.37109375 49 C25.23240079 39.54352839 22.85608605 33.0791986 14.60546875 27.33203125 C10.66934452 24.88329037 6.60170668 22.77986419 2.4375 20.75 C-1 19 -1 19 -2 17 C-2.25860135 12.94857881 -2.30441554 11.45662331 0 8 C0.38499891 6.34450469 0.72793135 4.6777567 1 3 C0.34 2.67 -0.32 2.34 -1 2 C-0.67 1.34 -0.34 0.68 0 0 Z " fill="#A3A1E1" transform="translate(126,41)"/>
<path d="M0 0 C3.3 0 6.6 0 10 0 C10.12117188 1.29550781 10.24234375 2.59101563 10.3671875 3.92578125 C10.53622072 5.72137655 10.7055111 7.51694765 10.875 9.3125 C10.96378418 10.25424072 11.05256836 11.19598145 11.14404297 12.16625977 C11.83030304 19.37802088 12.57555912 26.58208187 13.39013672 33.78051758 C14.62379216 45.04351869 14.62379216 45.04351869 12.125 48.875 C8.71162245 51.19609673 7.76387541 51.24225347 3.8046875 51.1328125 C2.90476074 51.1136377 2.00483398 51.09446289 1.07763672 51.07470703 C0.3920166 51.05005371 -0.29360352 51.02540039 -1 51 C-1.02497411 45.6655307 -1.04298798 40.33109646 -1.05493164 34.99658203 C-1.05991803 33.18700568 -1.06670954 31.37743326 -1.07543945 29.56787109 C-1.12204973 19.64810839 -1.0352482 9.87969149 0 0 Z " fill="#F47096" transform="translate(97,141)"/>
<path d="M0 0 C3.93395303 12.16780822 3.93395303 12.16780822 4.3125 16.9375 C5.22567252 21.00526851 7.20711607 22.05485026 10.39453125 24.5390625 C12 26 12 26 13.1875 28.9375 C12.86627536 34.18416915 10.35694522 37.56323448 6.875 41.25 C4 43 4 43 -6 46 C-6.66 37.42 -7.32 28.84 -8 20 C-4.7 20 -1.4 20 2 20 C1.67 19.34 1.34 18.68 1 18 C0.01 17.67 -0.98 17.34 -2 17 C-3.26107581 14.47784838 -3.32753316 12.37091315 -3.5625 9.5625 C-3.64628906 8.59441406 -3.73007813 7.62632813 -3.81640625 6.62890625 C-3.94719186 4.75616766 -4 2.87729984 -4 1 C-2 0 -2 0 0 0 Z " fill="#A39EDD" transform="translate(152,120)"/>
<path d="M0 0 C4.95 0 9.9 0 15 0 C15 8.58 15 17.16 15 26 C4.875 31.625 4.875 31.625 0.4375 31.3125 C-0.83287109 31.24482422 -0.83287109 31.24482422 -2.12890625 31.17578125 C-2.74636719 31.11777344 -3.36382812 31.05976563 -4 31 C-2.09785933 10.18960245 -2.09785933 10.18960245 0 0 Z " fill="#9C9CDA" transform="translate(125,141)"/>
<path d="M0 0 C2.475 0.495 2.475 0.495 5 1 C8.96 1 12.92 1 17 1 C17.33 15.19 17.66 29.38 18 44 C17.34 43.67 16.68 43.34 16 43 C15.21875 40.63671875 15.21875 40.63671875 14.5 37.6875 C13.64958899 34.22577256 12.8535676 31.06821607 11 28 C8.02050148 26.36620684 8.02050148 26.36620684 0 26 C0 17.42 0 8.84 0 0 Z " fill="#F99C0E" transform="translate(109,67)"/>
<path d="M0 0 C0 8.25 0 16.5 0 25 C-6.6 25 -13.2 25 -20 25 C-20.020625 22.256875 -20.04125 19.51375 -20.0625 16.6875 C-20.071604 15.82729248 -20.08070801 14.96708496 -20.09008789 14.08081055 C-20.09258545 13.39801025 -20.09508301 12.71520996 -20.09765625 12.01171875 C-20.10289307 11.31522217 -20.10812988 10.61872559 -20.11352539 9.90112305 C-20 8 -20 8 -19 5 C-18.10796875 4.89042969 -17.2159375 4.78085938 -16.296875 4.66796875 C-15.12640625 4.50941406 -13.9559375 4.35085937 -12.75 4.1875 C-11.58984375 4.03667969 -10.4296875 3.88585937 -9.234375 3.73046875 C-5.74098766 2.94150325 -3.34156682 0 0 0 Z " fill="#F7779E" transform="translate(140,167)"/>
<path d="M0 0 C1.10546875 2.65234375 1.10546875 2.65234375 2.1875 5.9375 C2.55230469 7.01902344 2.91710937 8.10054687 3.29296875 9.21484375 C4 12 4 12 3 14 C-1.95 14 -6.9 14 -12 14 C-12.33 15.98 -12.66 17.96 -13 20 C-13.33 20 -13.66 20 -14 20 C-14 17.69 -14 15.38 -14 13 C-15.423125 13.0928125 -15.423125 13.0928125 -16.875 13.1875 C-17.90625 13.125625 -18.9375 13.06375 -20 13 C-20.66 12.01 -21.32 11.02 -22 10 C-24.45672892 9.33314062 -24.45672892 9.33314062 -27 10 C-30.62428275 14.35429231 -30.36302394 18.44326765 -30.1875 23.8125 C-30.17396484 24.60076172 -30.16042969 25.38902344 -30.14648438 26.20117188 C-30.11133456 28.13441169 -30.05753361 30.06729682 -30 32 C-32.475 32.495 -32.475 32.495 -35 33 C-35.38218767 31.34385343 -35.71395102 29.67542976 -36 28 C-35.67 27.67 -35.34 27.34 -35 27 C-34.82975123 23.26209369 -34.70274413 19.53050709 -34.65820312 15.7890625 C-34.51926062 11.82112295 -34.26425073 9.46155004 -32.2578125 5.95703125 C-28.94592087 3.08634318 -26.76803252 3.36491258 -22.55078125 3.55859375 C-18.68732537 4.22715503 -16.20246201 5.77220034 -13 8 C-12.95875 7.236875 -12.9175 6.47375 -12.875 5.6875 C-12 3 -12 3 -9.1875 1.25 C-2.63736264 -1.31868132 -2.63736264 -1.31868132 0 0 Z " fill="#DCB7D4" transform="translate(75,102)"/>
<path d="M0 0 C2 1.4375 2 1.4375 4 4 C4.72919332 8.69736163 4.66195958 12.00706063 2 16 C-0.31 15.34 -2.62 14.68 -5 14 C-5.33 15.65 -5.66 17.3 -6 19 C-8.45898655 19.08076963 -10.91533742 19.14037143 -13.375 19.1875 C-14.07367188 19.21263672 -14.77234375 19.23777344 -15.4921875 19.26367188 C-17.5234375 19.29296875 -17.5234375 19.29296875 -21 19 C-23 16 -23 16 -22.8125 12.625 C-21.67622016 7.55544378 -20.33986229 4.89324153 -16 2 C-10.20467676 1.43183105 -6.24521149 2.7914899 -1 5 C-0.67 3.35 -0.34 1.7 0 0 Z " fill="#1B1E41" transform="translate(123,28)"/>
<path d="M0 0 C2.16536174 4.33072349 1.67727249 10.29739913 2 15 C-5.92 15 -13.84 15 -22 15 C-18.33633626 7.67267252 -15.54162564 5.01665026 -8 2 C-17.9 2 -27.8 2 -38 2 C-38.33 2.99 -38.66 3.98 -39 5 C-39.66 5 -40.32 5 -41 5 C-40.67 3.68 -40.34 2.36 -40 1 C-40.66 0.67 -41.32 0.34 -42 0 C-36.50091272 -0.16760643 -31.00168215 -0.32816705 -25.50219727 -0.48217773 C-23.63104709 -0.53557425 -21.75995098 -0.59090179 -19.88891602 -0.64819336 C-17.2008022 -0.73016978 -14.51257095 -0.80521854 -11.82421875 -0.87890625 C-10.98662521 -0.90594131 -10.14903168 -0.93297638 -9.28605652 -0.96083069 C-5.9091632 -1.04776959 -3.23102004 -1.07700668 0 0 Z " fill="#834873" transform="translate(148,122)"/>
<path d="M0 0 C0.66 0 1.32 0 2 0 C2.12117188 1.14339844 2.24234375 2.28679687 2.3671875 3.46484375 C2.53597321 4.95578417 2.70527047 6.44666673 2.875 7.9375 C2.95363281 8.69224609 3.03226563 9.44699219 3.11328125 10.22460938 C3.33883808 12.15919299 3.66258974 14.08176019 4 16 C4.66 16.33 5.32 16.66 6 17 C6 18.98 6 20.96 6 23 C10.95 23 15.9 23 21 23 C21 23.33 21 23.66 21 24 C19.906875 24.12375 18.81375 24.2475 17.6875 24.375 C13.92618198 24.75464801 13.92618198 24.75464801 11 27 C7.10593576 28.05841537 3.39538034 28.12121488 -0.6262207 28.11352539 C-1.59291939 28.11374443 -1.59291939 28.11374443 -2.57914734 28.1139679 C-4.69472704 28.11327506 -6.81021706 28.10551231 -8.92578125 28.09765625 C-10.39837089 28.09578983 -11.87096115 28.09436699 -13.34355164 28.09336853 C-17.20852388 28.08956096 -21.0734582 28.07974579 -24.93841553 28.06866455 C-28.88667284 28.0584125 -32.83493632 28.05386279 -36.78320312 28.04882812 C-44.52215265 28.03812187 -52.261071 28.02106669 -60 28 C-60 27.67 -60 27.34 -60 27 C-31.29 26.505 -31.29 26.505 -2 26 C-1.67 17.75 -1.34 9.5 -1 1 C-0.67 0.67 -0.34 0.34 0 0 Z " fill="#F3A3C5" transform="translate(143,166)"/>
<path d="M0 0 C3.71788041 0.75678987 5.31976481 2.41482172 7.41796875 5.4921875 C7.41796875 6.8121875 7.41796875 8.1321875 7.41796875 9.4921875 C5.04296875 9.6796875 5.04296875 9.6796875 2.41796875 9.4921875 C1.75796875 8.5021875 1.09796875 7.5121875 0.41796875 6.4921875 C-2.03876017 5.82532812 -2.03876017 5.82532812 -4.58203125 6.4921875 C-8.206314 10.84647981 -7.94505519 14.93545515 -7.76953125 20.3046875 C-7.75599609 21.09294922 -7.74246094 21.88121094 -7.72851562 22.69335938 C-7.69336581 24.62659919 -7.63956486 26.55948432 -7.58203125 28.4921875 C-9.23203125 28.8221875 -10.88203125 29.1521875 -12.58203125 29.4921875 C-12.96421892 27.83604093 -13.29598227 26.16761726 -13.58203125 24.4921875 C-13.25203125 24.1621875 -12.92203125 23.8321875 -12.58203125 23.4921875 C-12.41178248 19.75428119 -12.28477538 16.02269459 -12.24023438 12.28125 C-12.10151312 8.31962917 -11.84565324 5.95411973 -9.84765625 2.453125 C-6.51424915 -0.43199632 -4.24898996 -0.21339093 0 0 Z " fill="#F99A19" transform="translate(52.58203125,105.5078125)"/>
<path d="M0 0 C18.315 0.495 18.315 0.495 37 1 C37 1.33 37 1.66 37 2 C33.7 2 30.4 2 27 2 C27 2.66 27 3.32 27 4 C44.82 4.33 62.64 4.66 81 5 C81 5.33 81 5.66 81 6 C72.43700597 6.04653858 63.87406565 6.08197779 55.31097603 6.10362434 C51.3338992 6.11401864 47.35690951 6.12809733 43.37988281 6.15087891 C39.53490224 6.17276382 35.69000499 6.18460128 31.84496689 6.18975449 C30.38510707 6.19342237 28.92525131 6.20058402 27.4654274 6.21146011 C19.44165224 6.26880945 11.80681801 6.05254251 4 4 C3.67 3.01 3.34 2.02 3 1 C2.01 0.67 1.02 0.34 0 0 Z " fill="#F9B5D5" transform="translate(43,189)"/>
<path d="M0 0 C3.1239747 4.68596205 3.49483691 9.8859192 4.4375 15.375 C4.77297852 17.08042969 4.77297852 17.08042969 5.11523438 18.8203125 C6.53430678 27.12993235 6.53430678 27.12993235 3.9921875 31.26953125 C0.53723821 33.26762856 -1.35540973 33.52992254 -5.3125 33.3125 C-6.38113281 33.26738281 -7.44976562 33.22226563 -8.55078125 33.17578125 C-9.76314453 33.08876953 -9.76314453 33.08876953 -11 33 C-11 32.34 -11 31.68 -11 31 C-8.03 30.67 -5.06 30.34 -2 30 C-1.34 20.1 -0.68 10.2 0 0 Z " fill="#EC6C93" transform="translate(81,160)"/>
<path d="M0 0 C1.98 0 3.96 0 6 0 C6 0.99 6 1.98 6 3 C8.475 3.495 8.475 3.495 11 4 C10.67 5.32 10.34 6.64 10 8 C9.27554688 7.96519531 8.55109375 7.93039063 7.8046875 7.89453125 C2.08704619 7.73443729 -2.09527924 7.68931349 -7 11 C-7.804375 11.86625 -7.804375 11.86625 -8.625 12.75 C-9.305625 13.36875 -9.305625 13.36875 -10 14 C-12.1875 13.6875 -12.1875 13.6875 -14 13 C-14 12.34 -14 11.68 -14 11 C-14.99 10.67 -15.98 10.34 -17 10 C-15.95125002 7.37812506 -15.35068687 6.20628639 -12.875 4.75 C-12.25625 4.5025 -11.6375 4.255 -11 4 C-10.67 4.66 -10.34 5.32 -10 6 C-9.278125 5.67 -8.55625 5.34 -7.8125 5 C-4.98302573 3.99396471 -2.97104534 3.83022598 0 4 C0 2.68 0 1.36 0 0 Z " fill="#FCA216" transform="translate(53,22)"/>
<path d="M0 0 C-9.40382272 6.26921515 -27.85491872 3.16439094 -38.75390625 3.16796875 C-41.06452962 3.17118746 -43.3751528 3.17455198 -45.68577576 3.17805481 C-50.51114372 3.18401793 -55.33649385 3.18589748 -60.16186523 3.18530273 C-66.32375778 3.18520095 -72.48553553 3.19888287 -78.64740086 3.21607494 C-83.41310648 3.22722569 -88.17878454 3.22922104 -92.94450188 3.22869301 C-95.21573217 3.22986734 -97.4869633 3.23425814 -99.75818062 3.24202538 C-102.93986074 3.2518933 -106.12129387 3.24892112 -109.30297852 3.24291992 C-110.22640549 3.24853943 -111.14983246 3.25415894 -112.10124207 3.25994873 C-118.57800277 3.22912182 -124.66724276 2.33805612 -131 1 C-131 0.67 -131 0.34 -131 0 C-130.25453415 0.0702388 -129.5090683 0.1404776 -128.74101257 0.21284485 C-117.20971441 1.17591548 -105.70865421 1.16395386 -94.14453125 1.16796875 C-91.94886759 1.17118923 -89.75320413 1.17455387 -87.55754089 1.17805481 C-82.97951764 1.18400827 -78.40151317 1.18589841 -73.82348633 1.18530273 C-67.98001365 1.18520083 -62.13666169 1.1988996 -56.29321766 1.21607494 C-51.76770989 1.22722744 -47.24223114 1.22922101 -42.71671104 1.22869301 C-40.56270618 1.22986642 -38.4087004 1.23425199 -36.25470924 1.24202538 C-33.23848731 1.25190012 -30.22252558 1.24891886 -27.20629883 1.24291992 C-26.33276764 1.24853943 -25.45923645 1.25415894 -24.55923462 1.25994873 C-19.00464284 1.23208965 -13.84303293 0.54428683 -8.40754223 -0.60766125 C-5.41806357 -1.09483373 -2.91404843 -0.78758066 0 0 Z " fill="#FCCFE6" transform="translate(174,193)"/>
<path d="M0 0 C8.91 0 17.82 0 27 0 C27.33 0.99 27.66 1.98 28 3 C24.7 3.33 21.4 3.66 18 4 C18 6.97 18 9.94 18 13 C17.01 13 16.02 13 15 13 C15 10.03 15 7.06 15 4 C10.71 4 6.42 4 2 4 C2 8.29 2 12.58 2 17 C1.67 17 1.34 17 1 17 C1 12.71 1 8.42 1 4 C0.34 3.67 -0.32 3.34 -1 3 C-0.67 2.01 -0.34 1.02 0 0 Z " fill="#B95E8C" transform="translate(126,137)"/>
<path d="M0 0 C0.86625 0.4640625 0.86625 0.4640625 1.75 0.9375 C1.42 1.9275 1.09 2.9175 0.75 3.9375 C-1.21875 4.640625 -1.21875 4.640625 -3.75 5.1875 C-9.63702244 6.77149021 -13.84727137 9.77546724 -18.25 13.9375 C-18.58 14.5975 -18.91 15.2575 -19.25 15.9375 C-19.91 15.9375 -20.57 15.9375 -21.25 15.9375 C-21.25 10.06764882 -18.20238872 6.9896315 -14.37890625 2.93359375 C-9.31356094 -1.81574836 -6.10416637 -2.88252301 0 0 Z " fill="#B9CBEE" transform="translate(113.25,57.0625)"/>
<path d="M0 0 C1.1446875 0.309375 1.1446875 0.309375 2.3125 0.625 C1.755625 0.83125 1.19875 1.0375 0.625 1.25 C-2.52921634 3.12547999 -4.436234 5.79501873 -6.6875 8.625 C-11.26574337 14.06974706 -16.10265616 19.28406035 -20.9375 24.5 C-21.55230225 25.16700928 -22.16710449 25.83401855 -22.80053711 26.52124023 C-23.38714111 27.15102783 -23.97374512 27.78081543 -24.578125 28.4296875 C-25.10438477 28.99671387 -25.63064453 29.56374023 -26.17285156 30.14794922 C-27.6875 31.625 -27.6875 31.625 -30.6875 33.625 C-30.375 31.6875 -30.375 31.6875 -29.6875 29.625 C-28.6975 29.295 -27.7075 28.965 -26.6875 28.625 C-26.56375 28.05910156 -26.44 27.49320313 -26.3125 26.91015625 C-25.38982566 23.5366282 -23.06306281 21.51050792 -20.6875 19.0625 C-16.04352108 14.1579829 -11.74650474 9.11160528 -7.5625 3.8046875 C-3.82994251 -0.53441058 -3.82994251 -0.53441058 0 0 Z " fill="#FCE1F2" transform="translate(104.6875,47.375)"/>
<path d="M0 0 C6.21131774 -0.07408447 12.42237905 -0.12857114 18.6340332 -0.16479492 C20.74768554 -0.1798936 22.86130648 -0.20037426 24.97485352 -0.22631836 C28.01065815 -0.26265397 31.04604906 -0.27971544 34.08203125 -0.29296875 C35.5024749 -0.31619453 35.5024749 -0.31619453 36.95161438 -0.33988953 C38.27264412 -0.34022942 38.27264412 -0.34022942 39.62036133 -0.34057617 C40.39535477 -0.34723801 41.17034821 -0.35389984 41.96882629 -0.36076355 C44.5014923 0.08907172 45.3853804 1.05299358 47 3 C43.71303767 3.79953138 42.28976808 4.09658936 39 3 C39.66 3.99 40.32 4.98 41 6 C41 6.99 41 7.98 41 9 C39.68 8.67 38.36 8.34 37 8 C37 7.01 37 6.02 37 5 C35.02 5.33 33.04 5.66 31 6 C30.67 4.35 30.34 2.7 30 1 C20.1 1 10.2 1 0 1 C0 0.67 0 0.34 0 0 Z " fill="#EFE8E3" transform="translate(74,93)"/>
<path d="M0 0 C0.99 0 1.98 0 3 0 C5.33129383 3.49694074 5.67618308 6.43438226 6.125 10.5 C6.20991699 11.23597412 6.29483398 11.97194824 6.38232422 12.73022461 C7.29388181 21.47622533 7.17349038 30.21945886 7 39 C6.67 39 6.34 39 6 39 C5.66231828 35.93796326 5.33063107 32.87530542 5 29.8125 C4.90460938 28.94818359 4.80921875 28.08386719 4.7109375 27.19335938 C4.27309811 23.11207075 3.86378087 19.11211498 4 15 C2.68 15 1.36 15 0 15 C0 10.05 0 5.1 0 0 Z " fill="#8C72A1" transform="translate(141,151)"/>
<path d="M0 0 C0 3.63 0 7.26 0 11 C-1.093125 11.28875 -2.18625 11.5775 -3.3125 11.875 C-7.04013845 12.81893204 -7.04013845 12.81893204 -10 15 C-10.90711462 6.34881423 -10.90711462 6.34881423 -8.8046875 3.22265625 C-5.71622824 0.54547423 -4.12494318 0 0 0 Z " fill="#CFE9F7" transform="translate(40,114)"/>
<path d="M0 0 C1.65 0.33 3.3 0.66 5 1 C4.66666667 2.33333333 4.33333333 3.66666667 4 5 C3.855625 5.66 3.71125 6.32 3.5625 7 C2.95231644 9.16954155 2.06216572 11.01729065 1 13 C0.13375 12.979375 -0.7325 12.95875 -1.625 12.9375 C-4.85903648 12.99738956 -7.82799897 13.39580933 -11 14 C-11.33 12.68 -11.66 11.36 -12 10 C-11.30132812 9.78085938 -10.60265625 9.56171875 -9.8828125 9.3359375 C-3.96308127 7.48187193 -3.96308127 7.48187193 -0.375 2.75 C-0.25125 1.8425 -0.1275 0.935 0 0 Z " fill="#4B4D88" transform="translate(69,56)"/>
<path d="M0 0 C0.66 0 1.32 0 2 0 C2.33970765 2.49927769 2.67188032 4.99919595 3 7.5 C3.09539062 8.19609375 3.19078125 8.8921875 3.2890625 9.609375 C3.9161622 14.44700129 4.08789528 19.12181196 4 24 C2.35 24 0.7 24 -1 24 C-1.02887236 20.18751574 -1.04675492 16.3750593 -1.0625 12.5625 C-1.07087891 11.47388672 -1.07925781 10.38527344 -1.08789062 9.26367188 C-1.09111328 8.22919922 -1.09433594 7.19472656 -1.09765625 6.12890625 C-1.10289307 5.17056885 -1.10812988 4.21223145 -1.11352539 3.22485352 C-1 1 -1 1 0 0 Z " fill="#F56D9B" transform="translate(143,166)"/>
<path d="M0 0 C-0.63163219 2.94761689 -1.62334109 5.32766212 -3 8 C-3.67966676 9.66140763 -4.34938905 11.32700041 -5 13 C-8.375 13.625 -8.375 13.625 -12 14 C-14 12 -14 12 -14.375 8.5625 C-14 5 -14 5 -12.1875 3.0625 C-10 2 -10 2 -7 2 C-7.66 3.32 -8.32 4.64 -9 6 C-9.66 6 -10.32 6 -11 6 C-10.67 7.65 -10.34 9.3 -10 11 C-9.01 11.33 -8.02 11.66 -7 12 C-7.66 10.35 -8.32 8.7 -9 7 C-7.88121617 5.82737096 -6.75476949 4.66204862 -5.625 3.5 C-4.99851562 2.8503125 -4.37203125 2.200625 -3.7265625 1.53125 C-2 0 -2 0 0 0 Z " fill="#FCD3F3" transform="translate(64,37)"/>
<path d="M0 0 C0 0.66 0 1.32 0 2 C-5.22399526 3.74133175 -9.48130264 4.54282269 -15 4 C-17.5 2.125 -17.5 2.125 -19 0 C-19 -0.66 -19 -1.32 -19 -2 C-12.02604262 -4.23166636 -6.4880711 -2.73181941 0 0 Z " fill="#D0E1F5" transform="translate(154,55)"/>
<path d="M0 0 C2.0625 0.4375 2.0625 0.4375 4 1 C4 1.66 4 2.32 4 3 C5.0828125 3.433125 5.0828125 3.433125 6.1875 3.875 C8.79166667 4.91666667 11.39583333 5.95833333 14 7 C14 8.32 14 9.64 14 11 C13.39671875 10.9278125 12.7934375 10.855625 12.171875 10.78125 C11.37265625 10.6884375 10.5734375 10.595625 9.75 10.5 C8.96109375 10.4071875 8.1721875 10.314375 7.359375 10.21875 C4.73109603 9.93845381 4.73109603 9.93845381 1 10 C-1 4.375 -1 4.375 -1 1 C-0.67 0.67 -0.34 0.34 0 0 Z " fill="#5FCABC" transform="translate(39,59)"/>
<path d="M0 0 C0.66 1.98 1.32 3.96 2 6 C0.5437455 6.67119549 -0.91507867 7.33681807 -2.375 8 C-3.59316406 8.556875 -3.59316406 8.556875 -4.8359375 9.125 C-7 10 -7 10 -9 10 C-9.99 7.36 -10.98 4.72 -12 2 C-10.56342755 1.66269158 -9.12569907 1.33030409 -7.6875 1 C-6.88699219 0.814375 -6.08648437 0.62875 -5.26171875 0.4375 C-3 0 -3 0 0 0 Z " fill="#F17565" transform="translate(139,111)"/>
<path d="M0 0 C0.70511719 0.16371094 1.41023438 0.32742187 2.13671875 0.49609375 C5.09658688 1.01699824 7.81061273 1.09866732 10.8125 1.0625 C11.78832031 1.05347656 12.76414062 1.04445313 13.76953125 1.03515625 C14.50558594 1.02355469 15.24164063 1.01195313 16 1 C15.625 3.4375 15.625 3.4375 15 6 C12.11584117 7.44207941 9.58278472 7.09394887 6.375 7.0625 C5.18648438 7.05347656 3.99796875 7.04445313 2.7734375 7.03515625 C1.85820313 7.02355469 0.94296875 7.01195313 0 7 C0 4.69 0 2.38 0 0 Z " fill="#E69110" transform="translate(109,67)"/>
<path d="M0 0 C0 4.62 0 9.24 0 14 C-0.33 14 -0.66 14 -1 14 C-1 11.69 -1 9.38 -1 7 C-1.495 7.165 -1.99 7.33 -2.5 7.5 C-6.03444089 8.20688818 -9.39690701 8.06005155 -13 8 C-12.01 7.67 -11.02 7.34 -10 7 C-10 5.02 -10 3.04 -10 1 C-6.37900892 -0.1141511 -4.08844645 0 0 0 Z " fill="#F57F54" transform="translate(127,61)"/>
<path d="M0 0 C1.32 0.33 2.64 0.66 4 1 C3.83628906 1.52078125 3.67257813 2.0415625 3.50390625 2.578125 C2.85941341 5.6756875 2.90588411 8.58841094 2.9375 11.75 C2.95103516 13.50570312 2.95103516 13.50570312 2.96484375 15.296875 C2.97644531 16.18890625 2.98804688 17.0809375 3 18 C1.68 18.33 0.36 18.66 -1 19 C-2.06385483 15.80843552 -2.16677982 13.41502524 -2.1875 10.0625 C-2.20167969 9.02222656 -2.21585938 7.98195313 -2.23046875 6.91015625 C-2.00392282 4.04953387 -1.47733619 2.42329849 0 0 Z " fill="#5FC5B8" transform="translate(36,37)"/>
<path d="M0 0 C0.99 0 1.98 0 3 0 C3 1.32 3 2.64 3 4 C3.99 4 4.98 4 6 4 C6 5.65 6 7.3 6 9 C5.01 9 4.02 9 3 9 C2.67 10.98 2.34 12.96 2 15 C0.68 14.67 -0.64 14.34 -2 14 C-1.85970581 11.8537974 -1.71261836 9.70803782 -1.5625 7.5625 C-1.48128906 6.36753906 -1.40007812 5.17257813 -1.31640625 3.94140625 C-1 1 -1 1 0 0 Z " fill="#45437E" transform="translate(75,40)"/>
<path d="M0 0 C2.5 1.125 2.5 1.125 5 3 C5.3125 6 5.3125 6 5 9 C5 9.99 5 10.98 5 12 C4.01 12.33 3.02 12.66 2 13 C0.02 10.36 -1.96 7.72 -4 5 C-2.68 3.35 -1.36 1.7 0 0 Z " fill="#FB9F12" transform="translate(70,26)"/>
<path d="M0 0 C3.96 0.33 7.92 0.66 12 1 C12 1.99 12 2.98 12 4 C12.99 3.67 13.98 3.34 15 3 C17.40383032 3.24346128 19.80023235 3.56517385 22.1875 3.9375 C23.45980469 4.13214844 24.73210937 4.32679688 26.04296875 4.52734375 C27.01878906 4.68332031 27.99460937 4.83929688 29 5 C29 5.33 29 5.66 29 6 C20.3725342 6.20705918 12.40371809 6.21462689 4 4 C3.67 3.01 3.34 2.02 3 1 C2.01 0.67 1.02 0.34 0 0 Z " fill="#FCBED6" transform="translate(43,189)"/>
<path d="M0 0 C0.33 0 0.66 0 1 0 C1.30518762 1.5561547 1.56775915 3.12070108 1.8125 4.6875 C1.96332031 5.55761719 2.11414063 6.42773438 2.26953125 7.32421875 C2 10 2 10 -0.46875 12.0625 C-4.44844715 16.68091398 -3.53580303 21.43447718 -3.3125 27.3125 C-3.28994141 28.43462891 -3.26738281 29.55675781 -3.24414062 30.71289062 C-3.18533776 33.47662536 -3.10320401 36.23762554 -3 39 C-5.94969388 34.57545918 -5.32939931 30.45498759 -5.3125 25.25 C-5.32861328 24.27289063 -5.34472656 23.29578125 -5.36132812 22.2890625 C-5.36533379 16.34465507 -4.70233357 12.28924082 -2 7 C-1.57062166 5.69808813 -1.16404385 4.38754989 -0.8125 3.0625 C-0.544375 2.051875 -0.27625 1.04125 0 0 Z " fill="#F7D8EB" transform="translate(28,132)"/>
<path d="M0 0 C2.5625 0.1875 2.5625 0.1875 4.5625 2.1875 C4.6875 5.3125 4.6875 5.3125 4.5625 8.1875 C1.6875 8.3125 1.6875 8.3125 -1.4375 8.1875 C-3.4375 6.1875 -3.4375 6.1875 -3.625 3.625 C-3.37291261 0.34786389 -3.27713611 0.25208739 0 0 Z " fill="#F8FBFD" transform="translate(97.4375,100.8125)"/>
<path d="M0 0 C8.25 0 16.5 0 25 0 C25 0.33 25 0.66 25 1 C21.7 1 18.4 1 15 1 C15 1.66 15 2.32 15 3 C10.05 3 5.1 3 0 3 C0 2.01 0 1.02 0 0 Z " fill="#FCAEC9" transform="translate(55,190)"/>
<path d="M0 0 C0.99 0 1.98 0 3 0 C2.57730231 3.41943506 2.08008783 6.72174346 1 10 C-1.625 11.625 -1.625 11.625 -4 12 C-4.3763524 8.0482998 -4.09508438 6.17705367 -2.1875 2.625 C-1.465625 1.75875 -0.74375 0.8925 0 0 Z " fill="#D6DAE6" transform="translate(48,111)"/>
<path d="M0 0 C0.33 0 0.66 0 1 0 C1 6.6 1 13.2 1 20 C4.3 20 7.6 20 11 20 C10.67 20.99 10.34 21.98 10 23 C6.7 23 3.4 23 0 23 C0 15.41 0 7.82 0 0 Z " fill="#F07FA5" transform="translate(96,169)"/>
<path d="M0 0 C7.45475911 0.48883666 7.45475911 0.48883666 10 2.875 C11 5 11 5 11 8 C9.68 7.67 8.36 7.34 7 7 C7 6.01 7 5.02 7 4 C5.02 4.33 3.04 4.66 1 5 C0.67 3.35 0.34 1.7 0 0 Z " fill="#DEC59E" transform="translate(104,94)"/>
<path d="M0 0 C-7.41162659 4.94108439 -19.3778104 3.12516082 -28 3 C-28 2.67 -28 2.34 -28 2 C-26.83082031 1.86722656 -25.66164062 1.73445312 -24.45703125 1.59765625 C-22.90884161 1.41937987 -21.36066522 1.24098839 -19.8125 1.0625 C-18.65911133 0.93198242 -18.65911133 0.93198242 -17.48242188 0.79882812 C-14.3367683 0.43431033 -11.25821973 0.05391401 -8.15625 -0.59375 C-5.26950855 -1.13762882 -2.85041059 -0.59659756 0 0 Z " fill="#FCDBED" transform="translate(174,193)"/>
<path d="M0 0 C10.56 0 21.12 0 32 0 C32 0.33 32 0.66 32 1 C22.76 1.33 13.52 1.66 4 2 C3.67 2.99 3.34 3.98 3 5 C2.34 5 1.68 5 1 5 C1.33 3.68 1.66 2.36 2 1 C1.34 0.67 0.68 0.34 0 0 Z " fill="#6D748F" transform="translate(106,122)"/>
<path d="M0 0 C-0.99 1.485 -0.99 1.485 -2 3 C-1.34 3.33 -0.68 3.66 0 4 C-3.78187881 5.83691257 -5.94568308 6.15837626 -10 5 C-10 4.01 -10 3.02 -10 2 C-8.71211992 1.46987262 -7.41953322 0.9511671 -6.125 0.4375 C-5.40570313 0.14746094 -4.68640625 -0.14257812 -3.9453125 -0.44140625 C-2 -1 -2 -1 0 0 Z " fill="#58588F" transform="translate(67,64)"/>
<path d="M0 0 C0.66 0.66 1.32 1.32 2 2 C0.90220176 3.15193623 -0.20349446 4.29634937 -1.3125 5.4375 C-1.92738281 6.07558594 -2.54226562 6.71367188 -3.17578125 7.37109375 C-5 9 -5 9 -8 10 C-6.34908222 5.70761377 -3.26245434 3.1206085 0 0 Z M-10 11 C-10 11.99 -10 12.98 -10 14 C-10.99 14.495 -10.99 14.495 -12 15 C-11.34 13.68 -10.68 12.36 -10 11 Z " fill="#FDDEEE" transform="translate(67,88)"/>
<path d="M0 0 C-6.08973134 3.49595688 -10.99995111 4.71311275 -18 5 C-15.70191367 2.31278085 -14.01711782 1.51582287 -10.5625 0.875 C-9.80066406 0.72804687 -9.03882813 0.58109375 -8.25390625 0.4296875 C-7.51011719 0.28789062 -6.76632813 0.14609375 -6 0 C-5.28714844 -0.20367187 -4.57429687 -0.40734375 -3.83984375 -0.6171875 C-2 -1 -2 -1 0 0 Z " fill="#FBB7D2" transform="translate(172,188)"/>
<path d="M0 0 C1.65 0 3.3 0 5 0 C5 1.98 5 3.96 5 6 C3.35 6 1.7 6 0 6 C0 4.02 0 2.04 0 0 Z " fill="#5491CC" transform="translate(89,29)"/>
<path d="M0 0 C-0.33 0.66 -0.66 1.32 -1 2 C-4.96 2 -8.92 2 -13 2 C-13 1.34 -13 0.68 -13 0 C-11.39679026 -0.19551338 -9.79237014 -0.38111983 -8.1875 -0.5625 C-7.29417969 -0.66691406 -6.40085937 -0.77132812 -5.48046875 -0.87890625 C-3 -1 -3 -1 0 0 Z " fill="#E489AE" transform="translate(83,191)"/>
<path d="M0 0 C0.66 0 1.32 0 2 0 C2 1.32 2 2.64 2 4 C3.32 4.33 4.64 4.66 6 5 C5 6 5 6 1.4375 6.0625 C0.303125 6.041875 -0.83125 6.02125 -2 6 C-1.34 4.02 -0.68 2.04 0 0 Z " fill="#F0F9FB" transform="translate(111,110)"/>
<path d="M0 0 C0.33 0.99 0.66 1.98 1 3 C-0.051875 3.0825 -1.10375 3.165 -2.1875 3.25 C-6.27047209 4.05320762 -8.0122727 5.19334709 -11 8 C-10.875 6.1875 -10.875 6.1875 -10 4 C-6.78223945 2.06934367 -3.68854359 0.70933531 0 0 Z " fill="#EAC0DC" transform="translate(73,101)"/>
<path d="M0 0 C0.66 0 1.32 0 2 0 C2.33 2.97 2.66 5.94 3 9 C2.01 9 1.02 9 0 9 C0 6.03 0 3.06 0 0 Z " fill="#9799CB" transform="translate(141,141)"/>
<path d="M0 0 C4.62 0 9.24 0 14 0 C14 0.33 14 0.66 14 1 C10.7 1 7.4 1 4 1 C4 1.66 4 2.32 4 3 C2.68 2.67 1.36 2.34 0 2 C0 1.34 0 0.68 0 0 Z " fill="#F99DBD" transform="translate(66,190)"/>
<path d="M0 0 C0.66 0.33 1.32 0.66 2 1 C1.649375 1.598125 1.29875 2.19625 0.9375 2.8125 C-0.33304698 5.10813214 -0.33304698 5.10813214 1 8 C-0.32 7.67 -1.64 7.34 -3 7 C-3.1875 4.625 -3.1875 4.625 -3 2 C-2.01 1.34 -1.02 0.68 0 0 Z " fill="#F9F4F1" transform="translate(56,41)"/>
<path d="M0 0 C2.97 0.495 2.97 0.495 6 1 C5.67 1.99 5.34 2.98 5 4 C2.9375 4.6875 2.9375 4.6875 1 5 C0.67 3.35 0.34 1.7 0 0 Z " fill="#E7D08E" transform="translate(104,94)"/>
<path d="M0 0 C2.31 0 4.62 0 7 0 C6.01 1.485 6.01 1.485 5 3 C1.875 3.1875 1.875 3.1875 -1 3 C-0.67 2.01 -0.34 1.02 0 0 Z " fill="#F3ABC7" transform="translate(142,190)"/>
<path d="M0 0 C1.32 0.33 2.64 0.66 4 1 C4.33 3.31 4.66 5.62 5 8 C4.34 8 3.68 8 3 8 C2.01 5.36 1.02 2.72 0 0 Z " fill="#EF8B84" transform="translate(127,113)"/>
<path d="M0 0 C0.33 0 0.66 0 1 0 C1 2.97 1 5.94 1 9 C0.34 8.67 -0.32 8.34 -1 8 C-1.625 4.9375 -1.625 4.9375 -2 2 C-1.34 2 -0.68 2 0 2 C0 1.34 0 0.68 0 0 Z " fill="#E39157" transform="translate(126,102)"/>
<path d="M0 0 C0.75 1.6875 0.75 1.6875 1 4 C-0.9375 6.75 -0.9375 6.75 -3 9 C-2.25 2.25 -2.25 2.25 0 0 Z " fill="#FEE9F3" transform="translate(27,134)"/>
<path d="M0 0 C0.99 0 1.98 0 3 0 C3 0.66 3 1.32 3 2 C4.32 2.33 5.64 2.66 7 3 C5.02 3.33 3.04 3.66 1 4 C0.67 2.68 0.34 1.36 0 0 Z " fill="#7370A1" transform="translate(57,66)"/>
</svg>
